<svg width="15" height="15" viewBox="0 0 15 15" fill="none" xmlns="http://www.w3.org/2000/svg">
<path d="M8.63737 1.71716C8.65638 1.64608 8.68921 1.57946 8.73398 1.52108C8.77875 1.4627 8.83458 1.41371 8.89828 1.37692C8.96199 1.34012 9.03232 1.31624 9.10526 1.30664C9.1782 1.29704 9.25232 1.3019 9.32338 1.32095C10.3615 1.59182 11.3087 2.13453 12.0674 2.89319C12.826 3.65185 13.3688 4.59904 13.6396 5.63719C13.6587 5.70825 13.6635 5.78237 13.6539 5.85531C13.6443 5.92825 13.6205 5.99858 13.5837 6.06229C13.5469 6.12599 13.4979 6.18183 13.4395 6.2266C13.3811 6.27136 13.3145 6.30419 13.2434 6.3232C13.1961 6.33563 13.1474 6.34198 13.0985 6.3421C12.9752 6.34214 12.8553 6.30147 12.7575 6.22642C12.6596 6.15136 12.5893 6.04611 12.5574 5.927C12.3366 5.07938 11.8937 4.306 11.2744 3.68659C10.6551 3.06717 9.88185 2.62414 9.03428 2.40316C8.96314 2.38423 8.89644 2.35146 8.83798 2.30672C8.77953 2.26198 8.73046 2.20616 8.6936 2.14245C8.65674 2.07873 8.6328 2.00837 8.62315 1.9354C8.6135 1.86242 8.61833 1.78826 8.63737 1.71716ZM8.47427 4.64318C9.43958 4.90079 10.0598 5.52169 10.3174 6.487C10.3493 6.60611 10.4196 6.71137 10.5175 6.78642C10.6153 6.86148 10.7352 6.90214 10.8585 6.90211C10.9074 6.90198 10.9561 6.89563 11.0034 6.88321C11.0745 6.8642 11.1411 6.83137 11.1995 6.7866C11.2579 6.74183 11.3068 6.686 11.3436 6.62229C11.3804 6.55859 11.4043 6.48825 11.4139 6.41531C11.4235 6.34237 11.4187 6.26826 11.3996 6.1972C11.0412 4.85599 10.1046 3.91938 8.76337 3.56097C8.61986 3.52264 8.467 3.54288 8.33842 3.61725C8.20983 3.69161 8.11605 3.81402 8.07772 3.95753C8.03938 4.10104 8.05962 4.2539 8.13399 4.38248C8.20836 4.51107 8.33076 4.60485 8.47427 4.64318ZM13.5444 10.1543L10.2467 8.67662L10.2376 8.67242C10.0664 8.5992 9.87963 8.56981 9.69422 8.58693C9.50881 8.60404 9.33059 8.66711 9.17568 8.77042C9.15744 8.78247 9.13991 8.79556 9.12318 8.80962L7.41936 10.2621C6.33995 9.73783 5.22554 8.63182 4.70123 7.56641L6.15585 5.8367C6.16985 5.8192 6.18315 5.8017 6.19575 5.78279C6.29685 5.6283 6.35819 5.45122 6.37431 5.26729C6.39043 5.08337 6.36083 4.89831 6.28815 4.72858V4.72018L4.80624 1.41685C4.71015 1.19514 4.54494 1.01044 4.33526 0.890334C4.12558 0.77023 3.88268 0.721158 3.64282 0.750446C2.69429 0.875262 1.82363 1.34109 1.19345 2.06093C0.563275 2.78076 0.216675 3.70538 0.21839 4.66208C0.21839 10.2201 4.74043 14.7422 10.2985 14.7422C11.2552 14.7439 12.1798 14.3973 12.8996 13.7671C13.6195 13.1369 14.0853 12.2663 14.2101 11.3177C14.2395 11.078 14.1905 10.8351 14.0705 10.6255C13.9506 10.4158 13.766 10.2505 13.5444 10.1543Z" fill="#FFA415"/>
</svg>
