<svg width="48" height="42" viewBox="0 0 48 42" fill="none" xmlns="http://www.w3.org/2000/svg">
<path d="M44.699 1.11584L40.709 6.78815M40.709 6.78815C39.2294 5.75439 37.3983 5.34875 35.6186 5.66047C33.8389 5.9722 32.2563 6.97574 31.2191 8.45034M40.709 6.78815C42.1886 7.82191 43.1956 9.39911 43.5083 11.1728C43.8211 12.9465 43.4141 14.7713 42.3768 16.2459C38.4826 21.9015 27.1304 27.7061 27.1304 27.7061C26.9661 27.8331 26.7653 27.9044 26.5574 27.9094C26.3495 27.9144 26.1454 27.8529 25.9751 27.734C25.8048 27.615 25.6773 27.4448 25.6111 27.2483C25.5449 27.0518 25.5437 26.8393 25.6075 26.6421C25.6075 26.6421 27.2121 14.0271 31.2191 8.45034M31.2191 8.45034L36.7979 12.3481M46.5 5.7246L40.6514 6.74899M40.7656 6.82872L39.7377 1M33.806 17.7964L37.9901 20.7197" stroke="white" stroke-width="1.5" stroke-linecap="round" stroke-linejoin="round"/>
<path d="M10.8971 25.5601C15.5347 25.5601 19.2942 21.8133 19.2942 17.1914C19.2942 12.5695 15.5347 8.82277 10.8971 8.82277C6.25951 8.82277 2.5 12.5695 2.5 17.1914C2.5 21.8133 6.25951 25.5601 10.8971 25.5601Z" fill="#FF5528"/>
<path d="M10.8971 8.82277C10.8971 7.26912 11.5164 5.7791 12.6187 4.6805C13.721 3.58191 15.2161 2.96472 16.7751 2.96472H17.6148C17.6148 4.51837 16.9955 6.00839 15.8932 7.10699C14.7908 8.20559 13.2957 8.82277 11.7368 8.82277H10.8971Z" fill="#FF5528"/>
<path d="M10.8971 8.82277C10.8971 7.26912 10.2778 5.7791 9.17548 4.6805C8.07314 3.58191 6.57806 2.96472 5.01913 2.96472H4.17942" fill="#FF5528"/>
<path d="M15.9353 18.0283C15.748 19.0695 15.2452 20.0287 14.4946 20.7767C13.744 21.5248 12.7816 22.0258 11.7368 22.2126" fill="#FF5528"/>
<path d="M10.8971 8.82277C6.25951 8.82277 2.5 12.5695 2.5 17.1914C2.5 21.8133 6.25951 25.5601 10.8971 25.5601C15.5347 25.5601 19.2942 21.8133 19.2942 17.1914C19.2942 12.5695 15.5347 8.82277 10.8971 8.82277ZM10.8971 8.82277C10.8971 7.26912 11.5164 5.7791 12.6187 4.6805C13.721 3.58191 15.2161 2.96472 16.7751 2.96472H17.6148C17.6148 4.51837 16.9955 6.00839 15.8932 7.10699C14.7908 8.20559 13.2957 8.82277 11.7368 8.82277H10.8971ZM10.8971 8.82277C10.8971 7.26912 10.2778 5.7791 9.17548 4.6805C8.07314 3.58191 6.57806 2.96472 5.01913 2.96472H4.17942M15.9353 18.0283C15.748 19.0695 15.2452 20.0287 14.4946 20.7767C13.744 21.5248 12.7816 22.0258 11.7368 22.2126" stroke="white" stroke-width="1.5" stroke-linecap="round" stroke-linejoin="round"/>
<path d="M25.4643 20.8725C27.2312 20.4559 28.3247 18.6906 27.9067 16.9297C27.4886 15.1688 25.7174 14.0791 23.9505 14.4957C22.1836 14.9123 21.0901 16.6775 21.5082 18.4384C21.9262 20.1994 23.6974 21.2891 25.4643 20.8725Z" fill="#FF5528"/>
<path d="M18.9673 9.61028C19.0544 8.79337 19.3961 8.02419 19.9444 7.41076C20.4927 6.79733 21.22 6.37047 22.0242 6.19014C22.8284 6.0098 23.6691 6.08504 24.4282 6.4053C25.1873 6.72555 25.8266 7.27474 26.2565 7.97571L30.2364 14.1313C30.8084 15.0182 31.1572 16.0295 31.2533 17.0794C31.3493 18.1293 31.1898 19.1868 30.7882 20.1621C30.3867 21.1375 29.7549 22.0018 28.9465 22.6819C28.1382 23.3619 27.1771 23.8376 26.145 24.0684C25.1128 24.2992 24.04 24.2784 23.0176 24.0078C21.9952 23.7372 21.0534 23.2248 20.2721 22.5139C19.4909 21.8031 18.8933 20.9149 18.53 19.9248C18.1667 18.9346 18.0485 17.8718 18.1855 16.8264L18.9673 9.61028Z" fill="#FF5528"/>
<path d="M25.4643 20.8725C27.2312 20.4559 28.3247 18.6906 27.9067 16.9297C27.4886 15.1688 25.7174 14.0791 23.9505 14.4957C22.1836 14.9123 21.0901 16.6775 21.5082 18.4384C21.9262 20.1994 23.6974 21.2891 25.4643 20.8725Z" stroke="white" stroke-width="1.5" stroke-linecap="round" stroke-linejoin="round"/>
<path d="M18.9673 9.61028C19.0544 8.79337 19.3961 8.02419 19.9444 7.41076C20.4927 6.79733 21.22 6.37047 22.0242 6.19014C22.8284 6.0098 23.6691 6.08504 24.4282 6.4053C25.1873 6.72555 25.8266 7.27474 26.2565 7.97571L30.2364 14.1313C30.8084 15.0182 31.1572 16.0295 31.2533 17.0794C31.3493 18.1293 31.1898 19.1868 30.7882 20.1621C30.3867 21.1375 29.7549 22.0018 28.9465 22.6819C28.1382 23.3619 27.1771 23.8376 26.145 24.0684C25.1128 24.2992 24.04 24.2784 23.0176 24.0078C21.9952 23.7372 21.0534 23.2248 20.2721 22.5139C19.4909 21.8031 18.8933 20.9149 18.53 19.9248C18.1667 18.9346 18.0485 17.8718 18.1855 16.8264L18.9673 9.61028Z" stroke="white" stroke-width="1.5" stroke-linecap="round" stroke-linejoin="round"/>
<path d="M13.464 37.7993C9.89312 36.3311 6.86737 33.9738 4.74647 31.0077C2.62557 28.0416 1.49876 24.5916 1.5 21.0677H46.5C46.5012 24.5916 45.3744 28.0416 43.2535 31.0077C41.1326 33.9738 38.1069 36.3311 34.536 37.7993V39.4667C34.536 39.8734 34.3559 40.2634 34.0354 40.5509C33.7149 40.8384 33.2802 41 32.8269 41H15.1731C14.7199 41 14.2851 40.8384 13.9646 40.5509C13.6441 40.2634 13.464 39.8734 13.464 39.4667V37.7993Z" fill="#FF5528" stroke="white" stroke-width="1.5" stroke-linecap="round" stroke-linejoin="round"/>
</svg>
