<svg width="48" height="42" viewBox="0 0 48 42" fill="none" xmlns="http://www.w3.org/2000/svg">
<path d="M9.31206 41H2.78409C2.35126 41 1.93616 40.8281 1.6301 40.522C1.32404 40.216 1.1521 39.8009 1.1521 39.368V31.2081C1.1521 30.7752 1.32404 30.3601 1.6301 30.0541C1.93616 29.748 2.35126 29.5761 2.78409 29.5761H9.31206M9.31206 41L24 41L37.0559 37.736L44.9752 34.3578C45.538 34.0768 46.0114 33.6445 46.3422 33.1094C46.673 32.5743 46.8481 31.9575 46.8479 31.3284C46.8473 30.8074 46.7265 30.2935 46.495 29.8267C46.2635 29.36 45.9274 28.9529 45.513 28.6371C45.0985 28.3213 44.6168 28.1054 44.1054 28.0061C43.5939 27.9068 43.0664 27.9267 42.5639 28.0644L28.896 31.2081H22.368H28.08C29.162 31.2081 30.1998 30.7782 30.9649 30.0131C31.7301 29.2479 32.1599 28.2102 32.1599 27.1281C32.1599 26.046 31.7301 25.0083 30.9649 24.2431C30.1998 23.478 29.162 23.0481 28.08 23.0481H17.88C17.2365 23.0465 16.5989 23.1718 16.0039 23.4169C15.4088 23.6619 14.8679 24.0218 14.412 24.4761L9.31206 29.5761M9.31206 41V29.5761" stroke="white" stroke-width="1.5" stroke-linecap="round" stroke-linejoin="round"/>
<path d="M29.0891 11.0695H31.344M31.344 11.0695H33.5988M31.344 11.0695V8.81467M31.344 11.0695V13.3244M31.344 21.1391C31.344 21.1391 19.4436 14.7312 19.4436 7.17904C19.4436 5.54026 20.0946 3.96859 21.2534 2.8098C22.4122 1.651 23.9839 1 25.6226 1C28.2075 1 30.4217 2.40859 31.344 4.66165C32.2663 2.40859 34.4804 1 37.0653 1C38.7041 1 40.2758 1.651 41.4346 2.8098C42.5934 3.96859 43.2444 5.54026 43.2444 7.17904C43.2444 14.7312 31.344 21.1391 31.344 21.1391Z" stroke="white" stroke-width="1.5" stroke-linecap="round" stroke-linejoin="round"/>
</svg>
