<svg width="16" height="13" viewBox="0 0 16 13" fill="none" xmlns="http://www.w3.org/2000/svg">
<path d="M2.72959 1.24219H13.9296C14.6996 1.24219 15.3296 1.87219 15.3296 2.64219V11.0422C15.3296 11.8122 14.6996 12.4422 13.9296 12.4422H2.72959C1.95959 12.4422 1.32959 11.8122 1.32959 11.0422V2.64219C1.32959 1.87219 1.95959 1.24219 2.72959 1.24219Z" fill="#F79E12"/>
<path d="M15.3296 2.64219L8.32959 7.54219L1.32959 2.64219" fill="#F79E12"/>
<path d="M15.3296 2.64219C15.3296 1.87219 14.6996 1.24219 13.9296 1.24219H2.72959C1.95959 1.24219 1.32959 1.87219 1.32959 2.64219M15.3296 2.64219V11.0422C15.3296 11.8122 14.6996 12.4422 13.9296 12.4422H2.72959C1.95959 12.4422 1.32959 11.8122 1.32959 11.0422V2.64219M15.3296 2.64219L8.32959 7.54219L1.32959 2.64219" stroke="#29433F" stroke-linecap="round" stroke-linejoin="round"/>
</svg>
