<svg width="23" height="23" viewBox="0 0 23 23" fill="none" xmlns="http://www.w3.org/2000/svg">
<path d="M15.9128 2.07462C17.1273 2.07825 18.2911 2.56234 19.1499 3.42115C20.0087 4.27997 20.4928 5.44374 20.4964 6.65829V15.8246C20.4928 17.0392 20.0087 18.2029 19.1499 19.0618C18.2911 19.9206 17.1273 20.4047 15.9128 20.4083H6.74642C5.53187 20.4047 4.36811 19.9206 3.50929 19.0618C2.65047 18.2029 2.16639 17.0392 2.16276 15.8246V6.65829C2.16639 5.44374 2.65047 4.27997 3.50929 3.42115C4.36811 2.56234 5.53187 2.07825 6.74642 2.07462H15.9128V2.07462ZM15.9128 0.241455H6.74642C3.21709 0.241455 0.32959 3.12895 0.32959 6.65829V15.8246C0.32959 19.354 3.21709 22.2415 6.74642 22.2415H15.9128C19.4421 22.2415 22.3296 19.354 22.3296 15.8246V6.65829C22.3296 3.12895 19.4421 0.241455 15.9128 0.241455V0.241455Z" fill="white"/>
<path d="M17.2936 6.66235C17.0217 6.66235 16.7558 6.58171 16.5297 6.43063C16.3036 6.27954 16.1274 6.06479 16.0233 5.81354C15.9192 5.5623 15.892 5.28583 15.945 5.01911C15.9981 4.75238 16.1291 4.50738 16.3213 4.31508C16.5136 4.12279 16.7586 3.99183 17.0254 3.93877C17.2921 3.88572 17.5686 3.91295 17.8198 4.01702C18.0711 4.12109 18.2858 4.29733 18.4369 4.52345C18.588 4.74956 18.6686 5.0154 18.6686 5.28735C18.669 5.46803 18.6337 5.64701 18.5647 5.814C18.4958 5.981 18.3945 6.13274 18.2668 6.26049C18.139 6.38825 17.9873 6.48952 17.8203 6.55848C17.6533 6.62744 17.4743 6.66274 17.2936 6.66235ZM11.3355 7.57869C12.0607 7.57869 12.7696 7.79375 13.3726 8.19667C13.9756 8.59958 14.4456 9.17226 14.7232 9.84229C15.0007 10.5123 15.0733 11.2496 14.9318 11.9609C14.7903 12.6722 14.4411 13.3256 13.9283 13.8384C13.4155 14.3512 12.7621 14.7004 12.0508 14.8419C11.3395 14.9834 10.6022 14.9108 9.93222 14.6332C9.26219 14.3557 8.68951 13.8857 8.28659 13.2827C7.88368 12.6797 7.66862 11.9708 7.66862 11.2455C7.66966 10.2733 8.05632 9.34127 8.74376 8.65383C9.4312 7.96639 10.3633 7.57973 11.3355 7.57869ZM11.3355 5.74552C10.2477 5.74552 9.18429 6.06809 8.27982 6.67244C7.37535 7.27679 6.6704 8.13577 6.25411 9.14077C5.83783 10.1458 5.72891 11.2516 5.94113 12.3185C6.15335 13.3854 6.67718 14.3654 7.44636 15.1346C8.21555 15.9038 9.19556 16.4276 10.2625 16.6398C11.3294 16.8521 12.4352 16.7431 13.4402 16.3269C14.4452 15.9106 15.3042 15.2056 15.9085 14.3012C16.5129 13.3967 16.8355 12.3333 16.8355 11.2455C16.8355 9.78683 16.256 8.38789 15.2245 7.35644C14.1931 6.32499 12.7941 5.74552 11.3355 5.74552Z" fill="white"/>
</svg>
