<svg width="24" height="27" viewBox="0 0 24 27" fill="none" xmlns="http://www.w3.org/2000/svg">
<path d="M1 13.9994H22.9304M1 13.9994V24.1416C1 24.6345 1.1958 25.1072 1.54431 25.4557C1.89283 25.8042 2.36553 26 2.85841 26H21.072C21.5649 26 22.0376 25.8042 22.3861 25.4557C22.7346 25.1072 22.9304 24.6345 22.9304 24.1416V13.9994M1 13.9994L2.75392 8.42419C2.8945 7.97756 3.17386 7.58739 3.55139 7.31041C3.92892 7.03342 4.38495 6.88405 4.85319 6.884H6.97892M22.9304 13.9994L21.1772 8.42419C21.0365 7.9775 20.757 7.58732 20.3793 7.31034C20.0017 7.03336 19.5455 6.88401 19.0772 6.884H16.8762M6.84119 10.4197H17.0892M11.9279 3.08645V3.92372M11.9279 8.11005V8.94732M9.5104 10.4203C8.5341 9.88341 7.76413 9.03699 7.32175 8.01437C6.87936 6.99175 6.7897 5.85103 7.06688 4.77186C7.34405 3.69268 7.97232 2.73635 8.85274 2.05349C9.73316 1.37062 10.8157 1 11.9299 1C13.0441 1 14.1267 1.37062 15.0071 2.05349C15.8875 2.73635 16.5158 3.69268 16.793 4.77186C17.0701 5.85103 16.9805 6.99175 16.5381 8.01437C16.0957 9.03699 15.3257 9.88341 14.3494 10.4203M10.672 8.11005H12.5555C12.8285 8.1031 13.0879 7.98978 13.2785 7.79427C13.4691 7.59875 13.5758 7.33651 13.5758 7.06347C13.5758 6.79042 13.4691 6.52818 13.2785 6.33266C13.0879 6.13715 12.8285 6.02383 12.5555 6.01688H11.2996C11.0266 6.00993 10.7672 5.89662 10.5766 5.70111C10.386 5.50559 10.2793 5.24335 10.2793 4.9703C10.2793 4.69726 10.386 4.43501 10.5766 4.2395C10.7672 4.04398 11.0266 3.93067 11.2996 3.92372H13.1831M11.9645 23.4414C11.9645 23.4414 7.91661 21.2614 7.91661 18.6919C7.91661 18.1341 8.13821 17.5991 8.53266 17.2046C8.92711 16.8102 9.46211 16.5886 10.0199 16.5886C10.902 16.5886 11.6524 17.0676 11.9659 17.8343C12.28 17.0676 13.0332 16.5886 13.9125 16.5886C14.4703 16.5886 15.0053 16.8102 15.3998 17.2046C15.7942 17.5991 16.0158 18.1341 16.0158 18.6919C16.0131 21.2614 11.9645 23.4414 11.9645 23.4414Z" stroke="#FF5528" stroke-width="1.2" stroke-linecap="round" stroke-linejoin="round"/>
</svg>
