<svg width="22" height="22" viewBox="0 0 22 22" fill="none" xmlns="http://www.w3.org/2000/svg">
<path d="M11 1.98795C13.9157 1.98795 14.3133 1.98795 15.506 1.98795C16.5663 1.98795 17.0964 2.25301 17.494 2.38554C18.0241 2.6506 18.4217 2.78313 18.8193 3.18072C19.2169 3.57831 19.4819 3.9759 19.6145 4.50603C19.747 4.90362 19.8795 5.43374 20.012 6.49398C20.012 7.68675 20.012 7.95181 20.012 11C20.012 14.0482 20.012 14.3133 20.012 15.506C20.012 16.5663 19.747 17.0964 19.6145 17.494C19.3494 18.0241 19.2169 18.4217 18.8193 18.8193C18.4217 19.2169 18.0241 19.4819 17.494 19.6145C17.0964 19.747 16.5663 19.8795 15.506 20.012C14.3133 20.012 14.0482 20.012 11 20.012C7.95181 20.012 7.68675 20.012 6.49398 20.012C5.43374 20.012 4.90362 19.747 4.50603 19.6145C3.9759 19.3494 3.57831 19.2169 3.18072 18.8193C2.78313 18.4217 2.51807 18.0241 2.38554 17.494C2.25301 17.0964 2.12048 16.5663 1.98795 15.506C1.98795 14.3133 1.98795 14.0482 1.98795 11C1.98795 7.95181 1.98795 7.68675 1.98795 6.49398C1.98795 5.43374 2.25301 4.90362 2.38554 4.50603C2.6506 3.9759 2.78313 3.57831 3.18072 3.18072C3.57831 2.78313 3.9759 2.51807 4.50603 2.38554C4.90362 2.25301 5.43374 2.12048 6.49398 1.98795C7.68675 1.98795 8.08434 1.98795 11 1.98795ZM11 0C7.95181 0 7.68675 0 6.49398 0C5.30121 0 4.50603 0.265061 3.84337 0.530121C3.18072 0.795182 2.51807 1.19277 1.85542 1.85542C1.19277 2.51807 0.927712 3.04819 0.530121 3.84337C0.265061 4.50603 0.13253 5.30121 0 6.49398C0 7.68675 0 8.08434 0 11C0 14.0482 0 14.3133 0 15.506C0 16.6988 0.265061 17.494 0.530121 18.1566C0.795182 18.8193 1.19277 19.4819 1.85542 20.1446C2.51807 20.8072 3.04819 21.0723 3.84337 21.4699C4.50603 21.7349 5.30121 21.8675 6.49398 22C7.68675 22 8.08434 22 11 22C13.9157 22 14.3133 22 15.506 22C16.6988 22 17.494 21.7349 18.1566 21.4699C18.8193 21.2048 19.4819 20.8072 20.1446 20.1446C20.8072 19.4819 21.0723 18.9518 21.4699 18.1566C21.7349 17.494 21.8675 16.6988 22 15.506C22 14.3133 22 13.9157 22 11C22 8.08434 22 7.68675 22 6.49398C22 5.30121 21.7349 4.50603 21.4699 3.84337C21.2048 3.18072 20.8072 2.51807 20.1446 1.85542C19.4819 1.19277 18.9518 0.927712 18.1566 0.530121C17.494 0.265061 16.6988 0.13253 15.506 0C14.3133 0 14.0482 0 11 0Z" fill="#154168"/>
<path d="M11 5.30121C7.81928 5.30121 5.30121 7.81928 5.30121 11C5.30121 14.1807 7.81928 16.6988 11 16.6988C14.1807 16.6988 16.6988 14.1807 16.6988 11C16.6988 7.81928 14.1807 5.30121 11 5.30121ZM11 14.7108C9.01205 14.7108 7.28916 13.1205 7.28916 11C7.28916 9.01205 8.87952 7.28916 11 7.28916C12.988 7.28916 14.7108 8.87952 14.7108 11C14.7108 12.988 12.988 14.7108 11 14.7108Z" fill="#154168"/>
<path d="M16.8313 6.49398C17.5633 6.49398 18.1566 5.90062 18.1566 5.16868C18.1566 4.43673 17.5633 3.84337 16.8313 3.84337C16.0994 3.84337 15.506 4.43673 15.506 5.16868C15.506 5.90062 16.0994 6.49398 16.8313 6.49398Z" fill="#154168"/>
</svg>
