<svg width="17" height="16" viewBox="0 0 17 16" fill="none" xmlns="http://www.w3.org/2000/svg">
<path d="M8.84668 0C7.26443 0 5.71771 0.469192 4.40212 1.34824C3.08653 2.22729 2.06115 3.47672 1.45565 4.93853C0.850146 6.40034 0.691719 8.00887 1.0004 9.56072C1.30908 11.1126 2.07101 12.538 3.18983 13.6569C4.30865 14.7757 5.73411 15.5376 7.28596 15.8463C8.83781 16.155 10.4463 15.9965 11.9081 15.391C13.37 14.7855 14.6194 13.7602 15.4984 12.4446C16.3775 11.129 16.8467 9.58225 16.8467 8C16.8444 5.87895 16.0009 3.84542 14.5011 2.34562C13.0013 0.845814 10.9677 0.00223986 8.84668 0ZM13.1544 8.61538H8.84668C8.68347 8.61538 8.52695 8.55055 8.41154 8.43514C8.29613 8.31973 8.2313 8.16321 8.2313 8V3.69231C8.2313 3.5291 8.29613 3.37257 8.41154 3.25716C8.52695 3.14176 8.68347 3.07692 8.84668 3.07692C9.00989 3.07692 9.16642 3.14176 9.28182 3.25716C9.39723 3.37257 9.46207 3.5291 9.46207 3.69231V7.38461H13.1544C13.3176 7.38461 13.4741 7.44945 13.5895 7.56486C13.7049 7.68026 13.7698 7.83679 13.7698 8C13.7698 8.16321 13.7049 8.31973 13.5895 8.43514C13.4741 8.55055 13.3176 8.61538 13.1544 8.61538Z" fill="#FFA415"/>
</svg>
