<svg width="14" height="16" viewBox="0 0 14 16" fill="none" xmlns="http://www.w3.org/2000/svg">
<path d="M7.13246 0C5.46595 0.00189054 3.86823 0.664747 2.68983 1.84315C1.51143 3.02155 0.84857 4.61927 0.84668 6.28578C0.84668 11.6644 6.56102 15.7266 6.8046 15.8966C6.90068 15.9639 7.01515 16 7.13246 16C7.24977 16 7.36424 15.9639 7.46032 15.8966C7.70389 15.7266 13.4182 11.6644 13.4182 6.28578C13.4163 4.61927 12.7535 3.02155 11.5751 1.84315C10.3967 0.664747 8.79897 0.00189054 7.13246 0ZM7.13246 4.00004C7.58453 4.00004 8.02646 4.1341 8.40234 4.38526C8.77823 4.63642 9.0712 4.9934 9.2442 5.41106C9.4172 5.82873 9.46247 6.28831 9.37427 6.7317C9.28608 7.17509 9.06838 7.58237 8.74872 7.90204C8.42905 8.2217 8.02177 8.4394 7.57838 8.5276C7.13499 8.61579 6.67541 8.57053 6.25774 8.39752C5.84008 8.22452 5.4831 7.93155 5.23194 7.55567C4.98078 7.17978 4.84672 6.73785 4.84672 6.28578C4.84672 5.67956 5.08754 5.09818 5.5162 4.66952C5.94486 4.24086 6.52624 4.00004 7.13246 4.00004Z" fill="#FFA415"/>
</svg>
