<svg width="13" height="14" viewBox="0 0 13 14" fill="none" xmlns="http://www.w3.org/2000/svg">
<path d="M11.85 1.07996H10.24V0.539917C10.2379 0.397295 10.1806 0.26104 10.08 0.159912C9.97889 0.0593224 9.84263 0.00204152 9.70001 2.62e-07C9.6292 -7.00772e-05 9.5591 0.0140232 9.49384 0.0415042C9.42857 0.0689851 9.36945 0.109208 9.32001 0.159912C9.21942 0.26104 9.16208 0.397295 9.16003 0.539917V1.07996H3.77002V0.539917C3.77171 0.398495 3.71783 0.262048 3.62 0.159912C3.51887 0.0593224 3.38261 0.00204152 3.23999 2.62e-07C3.09432 0.00153694 2.95481 0.0587015 2.85004 0.159912C2.7522 0.262048 2.69832 0.398495 2.70001 0.539917V1.07996H1.08002C0.938299 1.07925 0.797912 1.10724 0.667297 1.16223C0.536683 1.21723 0.418535 1.29804 0.320007 1.3999C0.21905 1.49912 0.138792 1.61747 0.0838623 1.74793C0.0289331 1.87838 0.000417496 2.01836 0 2.15991V12.9299C0.00302587 13.2154 0.117931 13.4883 0.320007 13.6899C0.522672 13.8893 0.795759 14.0007 1.08002 14H11.85C11.9909 14.0009 12.1305 13.974 12.2609 13.9208C12.3913 13.8676 12.5099 13.7891 12.61 13.6899C12.8121 13.4883 12.927 13.2154 12.93 12.9299V2.19995C12.9296 2.0584 12.9011 1.9183 12.8462 1.78784C12.7913 1.65739 12.7109 1.53916 12.61 1.43994C12.517 1.32835 12.401 1.23832 12.2697 1.17615C12.1385 1.11398 11.9953 1.08118 11.85 1.07996ZM3.5 11.3099C3.34411 11.3083 3.19176 11.2633 3.06 11.1799C2.92386 11.0909 2.81898 10.9615 2.76001 10.8099C2.71556 10.6598 2.71556 10.5001 2.76001 10.35C2.79202 10.1919 2.86836 10.0462 2.98004 9.92993C3.09634 9.81825 3.24199 9.74197 3.40002 9.70996C3.55014 9.66551 3.70987 9.66551 3.85999 9.70996C4.01158 9.76893 4.14101 9.87388 4.23004 10.01C4.31337 10.1418 4.35832 10.2941 4.35999 10.45C4.36167 10.6658 4.27919 10.8738 4.13 11.0299C4.05119 11.119 3.95415 11.1901 3.84546 11.2384C3.73676 11.2867 3.61894 11.3111 3.5 11.3099ZM6.5 11.3099C6.34094 11.3086 6.18528 11.2636 6.04999 11.1799C5.91385 11.0909 5.80897 10.9615 5.75 10.8099C5.68896 10.6647 5.6716 10.5049 5.70001 10.35C5.73862 10.1944 5.8141 10.0503 5.92004 9.92993C6.03634 9.81825 6.18199 9.74197 6.34003 9.70996C6.4935 9.66524 6.65652 9.66524 6.81 9.70996C6.95725 9.77178 7.08268 9.87632 7.17004 10.01C7.25767 10.1398 7.30302 10.2934 7.29999 10.45C7.30167 10.6658 7.21919 10.8738 7.07001 11.0299C6.99536 11.1162 6.90333 11.1858 6.79993 11.234C6.69653 11.2823 6.58412 11.3082 6.47003 11.3099H6.5ZM6.5 8.62C6.33935 8.61957 6.18253 8.57077 6.04999 8.47998C5.9141 8.3951 5.80898 8.26896 5.75 8.12C5.68869 7.97134 5.67135 7.80813 5.70001 7.6499C5.73658 7.49648 5.81242 7.35528 5.92004 7.23999C6.03634 7.12831 6.18199 7.05191 6.34003 7.0199C6.49276 6.97024 6.65727 6.97024 6.81 7.0199C6.95448 7.08145 7.07914 7.18187 7.17004 7.30994C7.25675 7.44386 7.30192 7.60048 7.29999 7.76001C7.30168 7.86557 7.28224 7.97034 7.24274 8.06824C7.20323 8.16614 7.14449 8.25513 7.07001 8.32996C6.99587 8.4176 6.90414 8.48874 6.80078 8.5387C6.69742 8.58865 6.58477 8.61635 6.47003 8.62H6.5ZM3.5 8.62C3.34247 8.61944 3.18889 8.57056 3.06 8.47998C2.92411 8.3951 2.81899 8.26896 2.76001 8.12C2.71529 7.96652 2.71529 7.80338 2.76001 7.6499C2.79222 7.49486 2.86866 7.35255 2.98004 7.23999C3.09634 7.12831 3.24199 7.05191 3.40002 7.0199C3.54935 6.97032 3.71066 6.97032 3.85999 7.0199C4.00898 7.07838 4.13765 7.17923 4.23004 7.30994C4.31233 7.44583 4.35713 7.60117 4.35999 7.76001C4.36168 7.86557 4.34224 7.97034 4.30273 8.06824C4.26323 8.16614 4.20448 8.25513 4.13 8.32996C4.05169 8.42036 3.95496 8.49296 3.84631 8.54297C3.73767 8.59298 3.6196 8.6193 3.5 8.62ZM9.42999 11.3099C9.27093 11.3086 9.11534 11.2636 8.98004 11.1799C8.84643 11.0881 8.7422 10.9596 8.67999 10.8099C8.63042 10.6606 8.63042 10.4993 8.67999 10.35C8.70797 10.1905 8.78489 10.0437 8.90002 9.92993C9.01113 9.81659 9.15413 9.73987 9.31 9.70996C9.46347 9.66524 9.62655 9.66524 9.78003 9.70996C9.92728 9.77178 10.0526 9.87632 10.14 10.01C10.2306 10.1389 10.2795 10.2924 10.28 10.45C10.278 10.667 10.192 10.8749 10.04 11.0299C9.96428 11.1175 9.87061 11.1878 9.76538 11.2361C9.66015 11.2844 9.54577 11.3096 9.42999 11.3099ZM9.42999 8.62C9.26934 8.61957 9.11258 8.57077 8.98004 8.47998C8.84676 8.39216 8.74234 8.26693 8.67999 8.12C8.63033 7.96726 8.63033 7.80263 8.67999 7.6499C8.70801 7.49337 8.78508 7.34988 8.90002 7.23999C9.01113 7.12665 9.15413 7.04981 9.31 7.0199C9.46273 6.97024 9.6273 6.97024 9.78003 7.0199C9.92452 7.08145 10.0491 7.18187 10.14 7.30994C10.2297 7.44301 10.2784 7.59954 10.28 7.76001C10.2799 7.86619 10.2586 7.97123 10.2173 8.06909C10.1761 8.16695 10.1159 8.25563 10.04 8.32996C9.96479 8.41884 9.87142 8.49065 9.76624 8.54065C9.66105 8.59065 9.54643 8.61775 9.42999 8.62ZM11.85 4.30994H1.08002V2.19995H2.70001V2.73999C2.69832 2.88141 2.7522 3.01786 2.85004 3.12C2.95481 3.22121 3.09432 3.27837 3.23999 3.27991C3.38261 3.27787 3.51887 3.22059 3.62 3.12C3.71783 3.01786 3.77171 2.88141 3.77002 2.73999V2.19995H9.16003V2.73999C9.16208 2.88261 9.21942 3.01887 9.32001 3.12C9.36945 3.1707 9.42857 3.21092 9.49384 3.2384C9.5591 3.26588 9.6292 3.27998 9.70001 3.27991C9.84263 3.27787 9.97889 3.22059 10.08 3.12C10.1806 3.01887 10.2379 2.88261 10.24 2.73999V2.19995H11.85V4.30994Z" fill="#FFA415"/>
</svg>
