<svg width="30" height="30" viewBox="0 0 30 30" fill="none" xmlns="http://www.w3.org/2000/svg">
<path d="M0 10.8074C0 10.4926 0.0518252 10.1848 0.149718 9.89453L12.4741 19.5685C13.9575 20.7329 16.0431 20.7375 17.5316 19.5798L29.877 9.97789C29.9576 10.2434 30 10.5226 30 10.8074V26.9416C30 28.5196 28.7208 29.7987 27.1429 29.7987H2.85714C1.27918 29.7987 0 28.5196 0 26.9416V10.8074Z" fill="#FF5528"/>
<path d="M3.92885 11.4993L0.68457 8.95273C0.858531 8.74894 1.06239 8.56826 1.29232 8.41769L3.92885 6.69141V11.4993Z" fill="#FF5528"/>
<path d="M29.3685 9.01637L26.0713 11.5809V6.69122L28.7078 8.41751C28.9615 8.58362 29.1834 8.7864 29.3685 9.01637Z" fill="#FF5528"/>
<path d="M18.273 1.5849H11.7275L13.4351 0.466805C14.3858 -0.155602 15.6148 -0.155602 16.5654 0.466805L18.273 1.5849Z" fill="#FF5528"/>
<path fill-rule="evenodd" clip-rule="evenodd" d="M13.1357 18.7261L5 12.34V4.08482C5 3.29586 5.63961 2.65625 6.42857 2.65625H23.5714C24.3604 2.65625 25 3.29586 25 4.08482V12.4141L16.8738 18.7344C15.7736 19.5901 14.2321 19.5867 13.1357 18.7261Z" fill="#FFA415"/>
</svg>
