<svg width="70" height="64" viewBox="0 0 70 64" fill="none" xmlns="http://www.w3.org/2000/svg">
<path d="M48.593 42.3387C48.593 42.3387 54.8706 36.6389 56.3045 35.3615C59.0381 32.9206 55.8463 30.3132 53.9385 30.7536C51.273 31.3683 48.1627 33.3922 44.8859 35.224C44.8859 35.224 32.6391 38.8194 28.4737 45.2467C22.5158 54.4424 35.0676 61.9997 35.0676 61.9997C40.4322 56.8967 45.2055 53.3561 50.7902 50.7867C54.8661 48.9114 59.1432 47.0249 60.5302 46.6963C63.4203 46.0101 65.1582 40.1247 65.9539 36.3025C66.696 32.7418 68.7748 24.9934 65.7136 24.9934C62.9274 24.9934 61.8433 27.8578 61.422 30.0875C61.002 32.3899 60.3651 34.6475 59.5198 36.83L59.3511 37.2569L51.6284 39.586" stroke="#FFA415" stroke-width="2.5" stroke-linecap="round" stroke-linejoin="round"/>
<path d="M28.4762 45.2448C32.6415 38.8174 44.8883 35.2221 44.8883 35.2221C48.1629 33.3903 51.2721 31.3663 53.9409 30.7516C55.8498 30.3113 59.0417 32.9187 56.308 35.3595C54.8752 36.6392 51.6308 39.5863 51.6308 39.5863L59.3535 37.2572L59.52 36.8292C60.3683 34.6481 61.0082 32.3917 61.4311 30.09C61.8525 27.8604 62.9366 24.9948 65.7228 24.9948C66.5576 24.9948 67.008 25.5737 67.2092 26.4835C68.376 22.4467 68.1446 19.8549 68.1446 19.8549C68.1547 19.6314 68.1625 19.4001 68.1625 19.171C68.1625 9.97303 60.4052 2 50.8396 2C43.8433 2 37.8194 6.50509 35.0813 12.2429C32.3453 6.50509 26.3214 2 19.323 2C9.75286 2 2 9.97303 2 19.171C2 19.4001 2.00894 19.6281 2.019 19.8549C2.019 19.8549 1.03997 30.7807 13.1951 42.7112C17.7449 47.2688 22.7395 51.6431 30.0364 57.6581C27.3854 54.5835 25.2999 50.1477 28.4762 45.2448Z" stroke="#FFA415" stroke-width="2.5" stroke-linecap="round" stroke-linejoin="round"/>
</svg>
