<svg width="12" height="20" viewBox="0 0 12 20" fill="none" xmlns="http://www.w3.org/2000/svg">
<path d="M6.20781 19.48C5.86115 19.48 5.57448 19.36 5.34781 19.12C5.12115 18.8933 5.00781 18.6133 5.00781 18.28V16.64L5.54781 17.12C4.62781 17.0933 3.82781 16.98 3.14781 16.78C2.46781 16.58 1.90115 16.36 1.44781 16.12C1.15448 15.9733 0.947813 15.7733 0.827813 15.52C0.721146 15.2667 0.681146 15.0067 0.707813 14.74C0.734479 14.46 0.827813 14.22 0.987813 14.02C1.14781 13.8067 1.35448 13.6667 1.60781 13.6C1.87448 13.5333 2.17448 13.5867 2.50781 13.76C2.82781 13.9333 3.27448 14.1133 3.84781 14.3C4.42115 14.4733 5.12115 14.56 5.94781 14.56C6.56115 14.56 7.05448 14.4933 7.42781 14.36C7.80115 14.2133 8.06781 14.0267 8.22781 13.8C8.40115 13.5733 8.48781 13.3133 8.48781 13.02C8.48781 12.78 8.42781 12.5667 8.30781 12.38C8.20115 12.1933 8.00781 12.0333 7.72781 11.9C7.46115 11.7533 7.10115 11.6333 6.64781 11.54L4.44781 11.06C3.22115 10.7933 2.30781 10.34 1.70781 9.7C1.10781 9.04667 0.807813 8.20667 0.807813 7.18C0.807813 6.38 1.00115 5.66667 1.38781 5.04C1.78781 4.41333 2.33448 3.90667 3.02781 3.52C3.73448 3.13333 4.56115 2.9 5.50781 2.82L5.00781 3.14V1.62C5.00781 1.28667 5.12115 1.00667 5.34781 0.779999C5.57448 0.539999 5.86115 0.419999 6.20781 0.419999C6.54115 0.419999 6.82115 0.539999 7.04781 0.779999C7.27448 1.00667 7.38781 1.28667 7.38781 1.62V3.14L6.88781 2.78C7.43448 2.80667 8.02115 2.91333 8.64781 3.1C9.28781 3.27333 9.84115 3.52667 10.3078 3.86C10.5611 4.02 10.7345 4.22 10.8278 4.46C10.9345 4.7 10.9611 4.94 10.9078 5.18C10.8678 5.42 10.7678 5.63333 10.6078 5.82C10.4478 5.99333 10.2345 6.10667 9.96781 6.16C9.71448 6.2 9.41448 6.13333 9.06781 5.96C8.70781 5.78667 8.31448 5.64 7.88781 5.52C7.46115 5.4 6.93448 5.34 6.30781 5.34C5.52115 5.34 4.90781 5.5 4.46781 5.82C4.04115 6.14 3.82781 6.55333 3.82781 7.06C3.82781 7.43333 3.95448 7.73333 4.20781 7.96C4.47448 8.18667 4.93448 8.37333 5.58781 8.52L7.80781 9C9.07448 9.28 10.0078 9.73333 10.6078 10.36C11.2211 10.9867 11.5278 11.8 11.5278 12.8C11.5278 13.5867 11.3345 14.2867 10.9478 14.9C10.5611 15.5 10.0278 15.9867 9.34781 16.36C8.66781 16.7333 7.87448 16.9733 6.96781 17.08L7.38781 16.62V18.28C7.38781 18.6133 7.27448 18.8933 7.04781 19.12C6.83448 19.36 6.55448 19.48 6.20781 19.48Z" fill="#154168"/>
</svg>
