<svg width="20" height="26" viewBox="0 0 20 26" fill="none" xmlns="http://www.w3.org/2000/svg">
<path d="M10 13.6C11.9882 13.6 13.6 11.9882 13.6 10C13.6 8.01178 11.9882 6.4 10 6.4C8.01177 6.4 6.4 8.01178 6.4 10C6.4 11.9882 8.01177 13.6 10 13.6Z" stroke="#FFA415" stroke-width="1.8" stroke-linecap="round" stroke-linejoin="round"/>
<path d="M19 10C19 18.1 10 24.4 10 24.4C10 24.4 1 18.1 1 10C1 7.61305 1.94821 5.32387 3.63604 3.63604C5.32387 1.94821 7.61305 1 10 1C12.3869 1 14.6761 1.94821 16.364 3.63604C18.0518 5.32387 19 7.61305 19 10Z" stroke="#FFA415" stroke-width="1.8" stroke-linecap="round" stroke-linejoin="round"/>
</svg>
