<svg width="52" height="43" viewBox="0 0 52 43" fill="none" xmlns="http://www.w3.org/2000/svg">
<path d="M30.0625 43V34.1423C33.6375 33.2834 36.4 31.7266 38.35 29.4719C40.3 27.1099 41.4917 24.2647 41.925 20.9363H33.3125V0H52V13.6891C52 21.5268 50.1583 28.0225 46.475 33.176C42.7917 38.2222 37.3208 41.4969 30.0625 43ZM0 43V34.1423C3.575 33.2834 6.3375 31.7266 8.2875 29.4719C10.2375 27.1099 11.4292 24.2647 11.8625 20.9363H3.25V0H21.9375V13.6891C21.9375 21.5268 20.0958 28.0225 16.4125 33.176C12.7292 38.2222 7.25833 41.4969 0 43Z" fill="#FBFBFB" fill-opacity="0.38"/>
</svg>
