<svg width="32" height="32" viewBox="0 0 32 32" fill="none" xmlns="http://www.w3.org/2000/svg">
<path d="M22.7203 8H9.36714C8.6375 8 8 8.525 8 9.24607V22.6289C8 23.3539 8.6375 24 9.36714 24H22.7164C23.45 24 24 23.3496 24 22.6289V9.24607C24.0043 8.525 23.45 8 22.7203 8ZM12.9596 21.3368H10.6675V14.21H12.9596V21.3368ZM11.8929 13.1264H11.8764C11.1429 13.1264 10.6679 12.5804 10.6679 11.8968C10.6679 11.2007 11.1554 10.6675 11.9054 10.6675C12.6554 10.6675 13.1143 11.1968 13.1307 11.8968C13.1303 12.5804 12.6554 13.1264 11.8929 13.1264ZM21.3368 21.3368H19.0446V17.44C19.0446 16.5064 18.7111 15.8686 17.8818 15.8686C17.2482 15.8686 16.8732 16.2971 16.7064 16.7146C16.6439 16.8646 16.6271 17.0689 16.6271 17.2775V21.3368H14.335V14.21H16.6271V15.2018C16.9607 14.7268 17.4818 14.0432 18.6943 14.0432C20.1989 14.0432 21.3371 15.035 21.3371 17.1732L21.3368 21.3368Z" fill="white"/>
</svg>
