<svg width="20" height="23" viewBox="0 0 20 23" fill="none" xmlns="http://www.w3.org/2000/svg">
<path d="M18.3295 2.33697H15.8391V1.50164C15.836 1.28104 15.7473 1.07028 15.5917 0.913855C15.4353 0.758263 15.2245 0.669662 15.0039 0.666504C14.8944 0.666396 14.7859 0.688195 14.685 0.730702C14.584 0.773209 14.4926 0.835427 14.4161 0.913855C14.2605 1.07028 14.1718 1.28104 14.1687 1.50164V2.33697H5.83143V1.50164C5.83405 1.28289 5.75071 1.07184 5.59938 0.913855C5.44295 0.758263 5.23219 0.669662 5.01159 0.666504C4.78627 0.668881 4.57048 0.757303 4.40841 0.913855C4.25708 1.07184 4.17374 1.28289 4.17636 1.50164V2.33697H1.67056C1.45135 2.33587 1.2342 2.37917 1.03217 2.46423C0.830137 2.5493 0.647386 2.67429 0.494985 2.83186C0.338825 2.98533 0.214682 3.16839 0.129717 3.37018C0.0447534 3.57197 0.000645779 3.78849 0 4.00744V20.6664C0.00468038 21.108 0.182415 21.5301 0.494985 21.842C0.808465 22.1503 1.23087 22.3227 1.67056 22.3216H18.3295C18.5474 22.323 18.7634 22.2813 18.9651 22.199C19.1668 22.1168 19.3503 21.9953 19.505 21.842C19.8176 21.5301 19.9953 21.108 20 20.6664V4.06937C19.9994 3.85042 19.9553 3.63371 19.8704 3.43192C19.7854 3.23013 19.6612 3.04726 19.505 2.89379C19.3613 2.72118 19.1817 2.58192 18.9787 2.48576C18.7757 2.3896 18.5542 2.33886 18.3295 2.33697ZM5.41377 18.1606C5.17264 18.158 4.93699 18.0884 4.73318 17.9595C4.52261 17.8218 4.36038 17.6217 4.26916 17.3872C4.2004 17.155 4.2004 16.9079 4.26916 16.6758C4.31868 16.4313 4.43675 16.2059 4.6095 16.026C4.78939 15.8533 5.01468 15.7353 5.25913 15.6858C5.49132 15.617 5.7384 15.617 5.97059 15.6858C6.20508 15.777 6.40527 15.9393 6.54299 16.1499C6.67188 16.3537 6.74141 16.5893 6.74399 16.8304C6.74659 17.1643 6.61901 17.4861 6.38826 17.7275C6.26635 17.8653 6.11625 17.9752 5.94812 18.05C5.77999 18.1247 5.59775 18.1625 5.41377 18.1606ZM10.0541 18.1606C9.8081 18.1585 9.56734 18.0889 9.35807 17.9595C9.1475 17.8218 8.98527 17.6217 8.89405 17.3872C8.79963 17.1626 8.77278 16.9154 8.81673 16.6758C8.87644 16.4351 8.9932 16.2122 9.15707 16.026C9.33696 15.8533 9.56225 15.7353 9.8067 15.6858C10.0441 15.6166 10.2963 15.6166 10.5336 15.6858C10.7614 15.7814 10.9554 15.9431 11.0906 16.1499C11.2261 16.3506 11.2962 16.5882 11.2916 16.8304C11.2942 17.1643 11.1666 17.4861 10.9358 17.7275C10.8204 17.861 10.678 17.9685 10.5181 18.0432C10.3581 18.1178 10.1843 18.1579 10.0078 18.1606H10.0541ZM10.0541 13.9998C9.80564 13.9992 9.56308 13.9237 9.35807 13.7833C9.14788 13.652 8.98528 13.4569 8.89405 13.2264C8.79922 12.9965 8.7724 12.744 8.81673 12.4993C8.87329 12.262 8.9906 12.0436 9.15707 11.8653C9.33696 11.6925 9.56225 11.5743 9.8067 11.5248C10.0429 11.448 10.2974 11.448 10.5336 11.5248C10.7571 11.62 10.95 11.7754 11.0906 11.9734C11.2247 12.1806 11.2945 12.4229 11.2916 12.6696C11.2942 12.8329 11.2641 12.9949 11.203 13.1464C11.1419 13.2978 11.051 13.4355 10.9358 13.5512C10.8211 13.6868 10.6793 13.7968 10.5194 13.8741C10.3595 13.9514 10.1853 13.9942 10.0078 13.9998H10.0541ZM5.41377 13.9998C5.1701 13.999 4.93255 13.9234 4.73318 13.7833C4.52299 13.652 4.36039 13.4569 4.26916 13.2264C4.19998 12.989 4.19998 12.7367 4.26916 12.4993C4.31898 12.2595 4.43722 12.0394 4.6095 11.8653C4.78939 11.6925 5.01468 11.5743 5.25913 11.5248C5.49011 11.4481 5.73961 11.4481 5.97059 11.5248C6.20105 11.6153 6.40009 11.7713 6.54299 11.9734C6.67028 12.1837 6.73957 12.4239 6.74399 12.6696C6.74661 12.8329 6.71654 12.9949 6.65543 13.1464C6.59433 13.2978 6.50346 13.4355 6.38826 13.5512C6.26712 13.691 6.1175 13.8033 5.94944 13.8807C5.78139 13.9581 5.59877 13.9988 5.41377 13.9998ZM14.5862 18.1606C14.3402 18.1585 14.0995 18.0889 13.8903 17.9595C13.6836 17.8175 13.5224 17.6188 13.4261 17.3872C13.3495 17.1562 13.3495 16.9067 13.4261 16.6758C13.4694 16.4291 13.5884 16.202 13.7665 16.026C13.9383 15.8507 14.1595 15.7321 14.4006 15.6858C14.638 15.6166 14.8903 15.6166 15.1277 15.6858C15.3554 15.7814 15.5494 15.9431 15.6845 16.1499C15.8246 16.3493 15.9002 16.5867 15.9011 16.8304C15.8979 17.1662 15.7649 17.4876 15.5298 17.7275C15.4127 17.8629 15.2678 17.9717 15.105 18.0464C14.9422 18.1211 14.7653 18.1601 14.5862 18.1606ZM14.5862 13.9998C14.3377 13.9992 14.0953 13.9237 13.8903 13.7833C13.6841 13.6474 13.5226 13.4537 13.4261 13.2264C13.3493 12.9902 13.3493 12.7355 13.4261 12.4993C13.4695 12.2572 13.5887 12.0352 13.7665 11.8653C13.9383 11.6899 14.1595 11.5711 14.4006 11.5248C14.6369 11.448 14.8914 11.448 15.1277 11.5248C15.3512 11.62 15.5439 11.7754 15.6845 11.9734C15.8232 12.1793 15.8985 12.4214 15.9011 12.6696C15.9008 12.8339 15.8678 12.9963 15.8041 13.1477C15.7404 13.2991 15.6471 13.4362 15.5298 13.5512C15.4134 13.6887 15.269 13.7998 15.1063 13.8771C14.9436 13.9544 14.7663 13.9964 14.5862 13.9998ZM18.3295 7.33308H1.67056V4.06937H4.17636V4.9047C4.17374 5.12345 4.25708 5.3345 4.40841 5.49249C4.57048 5.64904 4.78627 5.73746 5.01159 5.73984C5.23219 5.73668 5.44295 5.64808 5.59938 5.49249C5.75071 5.3345 5.83405 5.12345 5.83143 4.9047V4.06937H14.1687V4.9047C14.1718 5.1253 14.2605 5.33606 14.4161 5.49249C14.4926 5.57091 14.584 5.63313 14.685 5.67564C14.7859 5.71814 14.8944 5.73994 15.0039 5.73984C15.2245 5.73668 15.4353 5.64808 15.5917 5.49249C15.7473 5.33606 15.836 5.1253 15.8391 4.9047V4.06937H18.3295V7.33308Z" fill="#154168"/>
</svg>
