<svg width="120" height="45" viewBox="0 0 120 45" fill="none" xmlns="http://www.w3.org/2000/svg">
<path fill-rule="evenodd" clip-rule="evenodd" d="M26.5374 11.1699C27.8473 9.86004 29.9711 9.86004 31.281 11.1699C32.591 12.4798 32.591 14.6036 31.281 15.9135L23.2948 23.8998C21.0019 20.8268 21.251 16.4564 24.0421 13.6653L26.5374 11.1699Z" fill="#D6424D"/>
<path fill-rule="evenodd" clip-rule="evenodd" d="M37.9541 29.1883C39.2642 30.4981 39.2642 32.622 37.9541 33.9318C36.6449 35.2418 34.5207 35.2418 33.2108 33.9318L25.2246 25.9457C28.2976 23.6528 32.668 23.9018 35.4591 26.6929L37.9541 29.1883Z" fill="#EBE1C5"/>
<path fill-rule="evenodd" clip-rule="evenodd" d="M19.936 40.6052C18.6261 41.9152 16.5023 41.9152 15.1924 40.6052C13.8825 39.2953 13.8825 37.1715 15.1924 35.8616L23.1785 27.8755C25.4714 30.9484 25.2224 35.3189 22.4313 38.1099L19.936 40.6052Z" fill="#D6BC42"/>
<path fill-rule="evenodd" clip-rule="evenodd" d="M8.51907 22.5874C7.20914 21.2775 7.20914 19.1537 8.51907 17.8438C9.82901 16.5338 11.9528 16.5338 13.2627 17.8438L21.2489 25.83C18.176 28.1229 13.8055 27.8738 11.0145 25.0828L8.51907 22.5874Z" fill="#6BD642"/>
<path fill-rule="evenodd" clip-rule="evenodd" d="M24.7524 39.6275C26.6839 37.4799 27.5817 34.7319 27.4455 32.0264L31.2809 35.8618C31.2904 35.8713 31.3001 35.8809 31.3097 35.8904V38.6286C31.3097 40.4811 29.8079 41.9829 27.9555 41.9829C26.4508 41.9829 25.1776 40.9921 24.7524 39.6275Z" fill="#6BD642"/>
<path fill-rule="evenodd" clip-rule="evenodd" d="M9.497 27.4033C11.6445 29.3349 14.3924 30.2326 17.098 30.0964L13.2627 33.9319C13.253 33.9414 13.2435 33.951 13.2341 33.9606H10.4958C8.64334 33.9607 7.1416 32.4588 7.1416 30.6063C7.1416 29.1018 8.13231 27.8285 9.497 27.4033Z" fill="#D6424D"/>
<path fill-rule="evenodd" clip-rule="evenodd" d="M36.9763 24.3723C34.829 22.4407 32.0811 21.5429 29.3755 21.6791L33.2108 17.8437C33.2204 17.8342 33.2299 17.8246 33.2394 17.8149H35.9777C37.8305 17.8149 39.3323 19.3168 39.3323 21.1693C39.3323 22.6739 38.3412 23.9471 36.9763 24.3723Z" fill="#D6BC42"/>
<path fill-rule="evenodd" clip-rule="evenodd" d="M21.7208 12.148C19.7892 14.2954 18.8916 17.0434 19.0277 19.7491L15.1924 15.9137C15.1827 15.9041 15.1732 15.8946 15.1636 15.8851V13.1468C15.1636 11.2943 16.6653 9.79248 18.5178 9.79248C20.0225 9.79248 21.2957 10.7833 21.7208 12.148Z" fill="#EBE1C5"/>
<path fill-rule="evenodd" clip-rule="evenodd" d="M18.5184 7.06396C15.1587 7.06396 12.4351 9.78757 12.4351 13.1473V14.3304C10.4138 13.8023 8.17375 14.3302 6.5898 15.9141C4.21411 18.2898 4.21411 22.1415 6.5898 24.5172L7.42638 25.3538C5.62373 26.4097 4.41309 28.3668 4.41309 30.6068C4.41309 33.9665 7.1367 36.6901 10.4964 36.6901H11.6795C11.1514 38.7113 11.6792 40.9514 13.2631 42.5352C15.6388 44.9109 19.4906 44.9109 21.8663 42.5352L24.3616 40.04C26.5628 37.8387 27.5909 34.9085 27.4458 32.0264L31.2813 35.8618C33.657 38.2375 37.5089 38.2375 39.8847 35.8618C42.2604 33.4861 42.2604 29.6344 39.8847 27.2588L39.0484 26.4223C40.8503 25.3665 42.0613 23.4093 42.0613 21.1693C42.0613 17.8096 39.3372 15.086 35.9779 15.086H34.7947C35.3229 13.0647 34.795 10.8246 33.211 9.24068C30.8354 6.86499 26.9837 6.86499 24.608 9.24068L22.1126 11.7361C19.9114 13.9373 18.8833 16.8674 19.0284 19.7495L15.1929 15.9141C15.1833 15.9046 15.1738 15.895 15.1641 15.8855V13.1473C15.1641 11.2948 16.6659 9.79305 18.5184 9.79305C20.023 9.79305 21.2963 10.7838 21.7214 12.1484C21.8474 12.0084 21.9778 11.8708 22.1126 11.7361L23.7713 10.0773C22.7155 8.2746 20.7583 7.06396 18.5184 7.06396ZM33.2396 17.8151C33.2301 17.8246 33.2207 17.8343 33.211 17.8438L29.3757 21.6791C32.0814 21.543 34.8293 22.4407 36.9765 24.3723C38.3414 23.9472 39.3325 22.6739 39.3325 21.1693C39.3325 19.3168 37.8307 17.8151 35.9779 17.8151H33.2396ZM13.2344 33.961C13.244 33.9514 13.2535 33.9417 13.2631 33.9322L17.0985 30.0968C14.3929 30.233 11.645 29.3353 9.49757 27.4038C8.13288 27.8289 7.14208 29.1021 7.14208 30.6068C7.14208 32.4593 8.64391 33.961 10.4964 33.961H13.2344ZM27.9559 44.7122C25.7159 44.7122 23.7587 43.5014 22.7028 41.6988L24.3616 40.04C24.4964 39.9052 24.6268 39.7677 24.7528 39.6276C25.1779 40.9923 26.4511 41.9831 27.9559 41.9831C29.8084 41.9831 31.3101 40.4813 31.3101 38.6288V35.8906C32.0962 36.6664 33.041 37.1848 34.0392 37.4456V38.6288C34.0392 41.9885 31.3156 44.7122 27.9559 44.7122ZM31.2813 11.1704C29.9714 9.86054 27.8476 9.86054 26.5377 11.1704L24.0423 13.6657C21.2513 16.4568 21.0022 20.8273 23.2951 23.9002L31.2813 15.914C32.5913 14.6041 32.5913 12.4803 31.2813 11.1704ZM37.9544 33.9321C39.2645 32.6222 39.2645 30.4984 37.9544 29.1885L35.4593 26.6931C32.6683 23.9021 28.2978 23.653 25.2248 25.9459L33.211 33.9321C34.521 35.2421 36.6452 35.2421 37.9544 33.9321ZM19.9365 40.6056C18.6265 41.9155 16.5028 41.9155 15.1928 40.6056C13.883 39.2956 13.883 37.1718 15.1928 35.8619L23.179 27.8757C25.472 30.9487 25.2229 35.3192 22.4319 38.1102L19.9365 40.6056ZM8.5195 17.8438C7.20966 19.1537 7.20966 21.2775 8.5195 22.5874L11.0149 25.0828C13.806 27.8738 18.1764 28.1229 21.2493 25.83L13.2631 17.8438C11.9532 16.534 9.82944 16.534 8.5195 17.8438Z" fill="#3D3A2C"/>
<path d="M48.3869 34.8583H47.8969C47.7969 34.8583 47.7469 34.6383 47.7469 34.1983C47.7469 33.7517 47.7969 33.5283 47.8969 33.5283H48.3869V33.3083C48.3869 32.6017 48.5335 32.115 48.8269 31.8483C49.1269 31.575 49.5435 31.4383 50.0769 31.4383C50.6102 31.4383 51.0802 31.535 51.4869 31.7283C51.5402 31.7483 51.5669 31.8217 51.5669 31.9483C51.5669 32.0683 51.5102 32.265 51.3969 32.5383C51.2835 32.8117 51.1869 32.9683 51.1069 33.0083C50.8802 32.8683 50.6469 32.7983 50.4069 32.7983C50.1469 32.7983 50.0169 32.9717 50.0169 33.3183V33.5283H50.8469C50.9669 33.5283 51.0269 33.7417 51.0269 34.1683C51.0269 34.635 50.9502 34.8683 50.7969 34.8683H50.1569V38.4083C50.1569 38.4883 49.8602 38.5283 49.2669 38.5283C48.6802 38.5283 48.3869 38.4883 48.3869 38.4083V34.8583ZM52.723 37.9383C52.3096 37.4783 52.103 36.8417 52.103 36.0283C52.103 35.215 52.3096 34.5783 52.723 34.1183C53.143 33.6583 53.7063 33.4283 54.413 33.4283C55.1196 33.4283 55.6796 33.6583 56.093 34.1183C56.5063 34.5783 56.713 35.215 56.713 36.0283C56.713 36.8417 56.5063 37.4783 56.093 37.9383C55.6796 38.3983 55.1196 38.6283 54.413 38.6283C53.7063 38.6283 53.143 38.3983 52.723 37.9383ZM54.413 35.0983C54.0396 35.0983 53.853 35.405 53.853 36.0183C53.853 36.6317 54.0396 36.9383 54.413 36.9383C54.793 36.9383 54.983 36.6317 54.983 36.0183C54.983 35.405 54.793 35.0983 54.413 35.0983ZM60.4099 38.5183C60.4099 38.565 60.1066 38.5883 59.4999 38.5883C58.8933 38.575 58.5899 38.5483 58.5899 38.5083V35.1883H58.3199C58.2133 35.1883 58.1266 35.125 58.0599 34.9983C57.9999 34.865 57.9699 34.7017 57.9699 34.5083C57.9699 33.7883 58.1833 33.4283 58.6099 33.4283C58.9099 33.4283 59.1599 33.5217 59.3599 33.7083C59.5599 33.8883 59.6599 34.095 59.6599 34.3283C59.7999 34.055 59.9866 33.8383 60.2199 33.6783C60.4599 33.5117 60.7033 33.4283 60.9499 33.4283C61.3366 33.4283 61.5699 33.5283 61.6499 33.7283C61.6699 33.7817 61.6799 33.8617 61.6799 33.9683C61.6799 34.0683 61.6466 34.2517 61.5799 34.5183C61.5199 34.785 61.4566 34.9783 61.3899 35.0983C61.3233 35.2183 61.2833 35.2783 61.2699 35.2783C61.2566 35.2783 61.1933 35.255 61.0799 35.2083C60.9733 35.155 60.8766 35.1283 60.7899 35.1283C60.5366 35.1283 60.4099 35.3283 60.4099 35.7283V38.5183ZM67.3395 38.4583C67.3395 38.5183 67.0595 38.5483 66.4995 38.5483C65.9462 38.5483 65.6695 38.5017 65.6695 38.4083V31.5583C65.6695 31.5117 65.7729 31.4783 65.9795 31.4583C66.1862 31.4383 66.3595 31.4283 66.4995 31.4283C67.0595 31.4283 67.3395 31.4883 67.3395 31.6083V33.6083C67.7129 33.495 67.9962 33.4383 68.1895 33.4383C68.6962 33.4383 69.0962 33.575 69.3895 33.8483C69.6829 34.115 69.8295 34.615 69.8295 35.3483V38.4483C69.8295 38.5083 69.5695 38.5383 69.0495 38.5383C68.4629 38.5183 68.1695 38.485 68.1695 38.4383V35.4983C68.1695 35.1717 68.0629 35.0083 67.8495 35.0083C67.7029 35.0083 67.5329 35.0783 67.3395 35.2183V38.4583ZM71.4293 33.5883C71.4293 33.515 71.716 33.4783 72.2893 33.4783C72.8626 33.4783 73.1493 33.515 73.1493 33.5883V36.5083C73.1493 36.8417 73.256 37.0083 73.4693 37.0083C73.6293 37.0083 73.8093 36.9383 74.0093 36.7983V33.5883C74.0093 33.5217 74.2926 33.4883 74.8593 33.4883C75.426 33.4883 75.7093 33.5217 75.7093 33.5883V36.8683H75.9693C76.196 36.8683 76.3093 37.085 76.3093 37.5183C76.3093 37.7383 76.2626 37.9617 76.1693 38.1883C76.036 38.4817 75.856 38.6283 75.6293 38.6283C75.1826 38.6283 74.8526 38.445 74.6393 38.0783L74.6293 38.0883C74.2226 38.4483 73.786 38.6283 73.3193 38.6283C72.6726 38.6283 72.196 38.4683 71.8893 38.1483C71.5826 37.8217 71.4293 37.285 71.4293 36.5383V33.5883ZM82.2487 38.4783C82.2487 38.525 81.9621 38.5483 81.3887 38.5483C80.8221 38.5483 80.5387 38.5183 80.5387 38.4583V35.5483C80.5387 35.215 80.4287 35.0483 80.2087 35.0483C80.0954 35.0483 79.9454 35.1217 79.7587 35.2683V38.4683C79.7587 38.535 79.4721 38.5683 78.8987 38.5683C78.3321 38.5683 78.0487 38.5317 78.0487 38.4583V35.1883H77.7987C77.5787 35.1883 77.4687 34.9583 77.4687 34.4983C77.4687 34.2917 77.5087 34.0817 77.5887 33.8683C77.6954 33.575 77.8687 33.4283 78.1087 33.4283C78.3487 33.4283 78.5787 33.4917 78.7987 33.6183C79.0254 33.745 79.1621 33.865 79.2087 33.9783C79.6221 33.6117 80.0787 33.4283 80.5787 33.4283C81.0854 33.4283 81.4921 33.585 81.7987 33.8983C82.1587 33.585 82.5921 33.4283 83.0987 33.4283C84.1987 33.4283 84.7487 34.0983 84.7487 35.4383V38.4783C84.7487 38.525 84.4621 38.5483 83.8887 38.5483C83.3221 38.5483 83.0387 38.5183 83.0387 38.4583V35.5483C83.0387 35.215 82.9287 35.0483 82.7087 35.0483C82.5887 35.0483 82.4354 35.1217 82.2487 35.2683V38.4783ZM87.0296 34.8983C86.8429 34.565 86.7496 34.295 86.7496 34.0883C86.7496 33.875 86.8063 33.7383 86.9196 33.6783C87.2996 33.5117 87.8196 33.4283 88.4796 33.4283C89.1463 33.4283 89.6163 33.585 89.8896 33.8983C90.1629 34.205 90.2996 34.6617 90.2996 35.2683V36.8483H90.6396C90.7529 36.8483 90.8396 36.915 90.8996 37.0483C90.9663 37.1817 90.9996 37.365 90.9996 37.5983C90.9996 37.8317 90.9396 38.0617 90.8196 38.2883C90.7063 38.515 90.5496 38.6283 90.3496 38.6283C89.9896 38.6283 89.6996 38.5317 89.4796 38.3383C89.3796 38.2583 89.3029 38.1617 89.2496 38.0483C88.9429 38.435 88.4663 38.6283 87.8196 38.6283C87.3329 38.6283 86.9229 38.455 86.5896 38.1083C86.2563 37.7617 86.0896 37.3517 86.0896 36.8783C86.0896 35.7917 86.7396 35.2483 88.0396 35.2483H88.5896V35.1483C88.5896 34.975 88.5596 34.865 88.4996 34.8183C88.4463 34.765 88.3163 34.7383 88.1096 34.7383C87.8563 34.7383 87.4963 34.7917 87.0296 34.8983ZM87.8296 36.7383C87.8296 36.885 87.8696 36.9983 87.9496 37.0783C88.0296 37.1517 88.1296 37.1883 88.2496 37.1883C88.3763 37.1883 88.4896 37.1383 88.5896 37.0383V36.2683H88.3096C87.9896 36.2683 87.8296 36.425 87.8296 36.7383ZM94.4556 38.4683C94.4556 38.515 94.2156 38.5383 93.7356 38.5383C93.069 38.5183 92.7356 38.4817 92.7356 38.4283V35.1883H92.4756C92.3023 35.1883 92.189 35.0417 92.1356 34.7483C92.1223 34.6617 92.1156 34.575 92.1156 34.4883C92.1156 34.2817 92.1556 34.075 92.2356 33.8683C92.3556 33.575 92.5423 33.4283 92.7956 33.4283C93.049 33.4283 93.2756 33.4883 93.4756 33.6083C93.6756 33.7283 93.809 33.8483 93.8756 33.9683C94.2956 33.6083 94.7956 33.4283 95.3756 33.4283C95.9556 33.4283 96.3756 33.585 96.6356 33.8983C96.8956 34.2117 97.0256 34.725 97.0256 35.4383V38.4383C97.0256 38.5183 96.739 38.5583 96.1656 38.5583C95.599 38.5583 95.3156 38.5183 95.3156 38.4383V35.5483C95.3156 35.215 95.199 35.0483 94.9656 35.0483C94.899 35.0483 94.8056 35.0783 94.6856 35.1383C94.5656 35.1917 94.489 35.2317 94.4556 35.2583V38.4683ZM100.503 38.4683C100.503 38.5217 100.197 38.5483 99.5834 38.5483C98.9768 38.5483 98.6734 38.525 98.6734 38.4783V33.5683C98.6734 33.5217 98.9768 33.4983 99.5834 33.4983C100.197 33.4983 100.503 33.5183 100.503 33.5583V38.4683ZM100.503 32.9683C100.503 33.015 100.197 33.0383 99.5834 33.0383C98.9768 33.0383 98.6734 33.0183 98.6734 32.9783V31.5383C98.6734 31.4717 98.9768 31.4383 99.5834 31.4383C100.197 31.4383 100.503 31.4583 100.503 31.4983V32.9683ZM104.508 38.4683C104.508 38.5483 104.228 38.5883 103.668 38.5883C103.001 38.5617 102.668 38.5183 102.668 38.4583V34.9183H102.158C102.024 34.9183 101.958 34.6883 101.958 34.2283C101.958 34.1083 101.968 33.9617 101.988 33.7883C102.014 33.615 102.064 33.5283 102.138 33.5283H102.668V32.6483C102.668 32.515 102.948 32.4483 103.508 32.4483C104.074 32.4483 104.358 32.5017 104.358 32.6083V33.2483L104.368 33.5283H105.218C105.331 33.5283 105.388 33.7617 105.388 34.2283C105.388 34.695 105.331 34.9283 105.218 34.9283H104.508V38.4683ZM106.339 33.5783C106.339 33.505 106.643 33.4683 107.249 33.4683C107.863 33.4683 108.179 33.5017 108.199 33.5683L108.919 35.9283L109.609 33.5483C109.636 33.495 109.843 33.4683 110.229 33.4683C111.116 33.4683 111.539 33.5117 111.499 33.5983L109.149 40.2883C109.143 40.3283 108.959 40.3483 108.599 40.3483C108.246 40.3483 107.916 40.335 107.609 40.3083C107.303 40.2883 107.156 40.2617 107.169 40.2283L108.039 38.1283L106.339 33.5783Z" fill="#154168"/>
<path d="M53.7106 14.8899C54.5866 14.8899 55.3546 15.0159 56.0146 15.2679C56.6866 15.5079 57.0226 15.8379 57.0226 16.2579C57.0226 16.6779 56.8606 17.1999 56.5366 17.8239C56.2246 18.4359 55.9606 18.7419 55.7446 18.7419C55.6846 18.7419 55.6126 18.7119 55.5286 18.6519C55.4566 18.5799 55.2766 18.5079 54.9886 18.4359C54.7126 18.3519 54.4726 18.3099 54.2686 18.3099C53.5726 18.3099 53.0086 18.5559 52.5766 19.0479C52.1566 19.5399 51.9466 20.2959 51.9466 21.3159C51.9466 22.3239 52.1626 23.0739 52.5946 23.5659C53.0386 24.0579 53.5966 24.3039 54.2686 24.3039C54.5446 24.3039 54.8506 24.2679 55.1866 24.1959C55.5346 24.1119 55.7806 23.9979 55.9246 23.8539C55.9486 23.8299 55.9966 23.8179 56.0686 23.8179C56.1406 23.8179 56.2726 23.9559 56.4646 24.2319C56.6686 24.4959 56.8546 24.8499 57.0226 25.2939C57.1906 25.7259 57.2746 26.0619 57.2746 26.3019C57.2746 26.7699 56.9146 27.1419 56.1946 27.4179C55.4746 27.6939 54.6226 27.8319 53.6386 27.8319C52.0546 27.8319 50.7526 27.2739 49.7326 26.1579C48.7126 25.0419 48.2026 23.4699 48.2026 21.4419C48.2026 19.4019 48.7246 17.7999 49.7686 16.6359C50.8246 15.4719 52.1386 14.8899 53.7106 14.8899ZM63.0084 27.5259C63.0084 27.6339 62.5044 27.6879 61.4964 27.6879C60.5004 27.6879 60.0024 27.6039 60.0024 27.4359V15.1059C60.0024 15.0219 60.1884 14.9619 60.5604 14.9259C60.9324 14.8899 61.2444 14.8719 61.4964 14.8719C62.5044 14.8719 63.0084 14.9799 63.0084 15.1959V18.7959C63.6804 18.5919 64.1904 18.4899 64.5384 18.4899C65.4504 18.4899 66.1704 18.7359 66.6984 19.2279C67.2264 19.7079 67.4904 20.6079 67.4904 21.9279V27.5079C67.4904 27.6159 67.0224 27.6699 66.0864 27.6699C65.0304 27.6339 64.5024 27.5739 64.5024 27.4899V22.1979C64.5024 21.6099 64.3104 21.3159 63.9264 21.3159C63.6624 21.3159 63.3564 21.4419 63.0084 21.6939V27.5259ZM71.594 21.1179C71.258 20.5179 71.09 20.0319 71.09 19.6599C71.09 19.2759 71.192 19.0299 71.396 18.9219C72.08 18.6219 73.016 18.4719 74.204 18.4719C75.404 18.4719 76.25 18.7539 76.742 19.3179C77.234 19.8699 77.48 20.6919 77.48 21.7839V24.6279H78.092C78.296 24.6279 78.452 24.7479 78.56 24.9879C78.68 25.2279 78.74 25.5579 78.74 25.9779C78.74 26.3979 78.632 26.8119 78.416 27.2199C78.212 27.6279 77.93 27.8319 77.57 27.8319C76.922 27.8319 76.4 27.6579 76.004 27.3099C75.824 27.1659 75.686 26.9919 75.59 26.7879C75.038 27.4839 74.18 27.8319 73.016 27.8319C72.14 27.8319 71.402 27.5199 70.802 26.8959C70.202 26.2719 69.902 25.5339 69.902 24.6819C69.902 22.7259 71.072 21.7479 73.412 21.7479H74.402V21.5679C74.402 21.2559 74.348 21.0579 74.24 20.9739C74.144 20.8779 73.91 20.8299 73.538 20.8299C73.082 20.8299 72.434 20.9259 71.594 21.1179ZM73.034 24.4299C73.034 24.6939 73.106 24.8979 73.25 25.0419C73.394 25.1739 73.574 25.2399 73.79 25.2399C74.018 25.2399 74.222 25.1499 74.402 24.9699V23.5839H73.898C73.322 23.5839 73.034 23.8659 73.034 24.4299ZM85.1408 27.6339C85.1408 27.7179 84.5948 27.7599 83.5028 27.7599C82.4108 27.7359 81.8648 27.6879 81.8648 27.6159V21.6399H81.3788C81.1868 21.6399 81.0308 21.5259 80.9108 21.2979C80.8028 21.0579 80.7488 20.7639 80.7488 20.4159C80.7488 19.1199 81.1328 18.4719 81.9008 18.4719C82.4408 18.4719 82.8908 18.6399 83.2508 18.9759C83.6108 19.2999 83.7908 19.6719 83.7908 20.0919C84.0428 19.5999 84.3788 19.2099 84.7988 18.9219C85.2308 18.6219 85.6688 18.4719 86.1128 18.4719C86.8088 18.4719 87.2288 18.6519 87.3728 19.0119C87.4088 19.1079 87.4268 19.2519 87.4268 19.4439C87.4268 19.6239 87.3668 19.9539 87.2468 20.4339C87.1388 20.9139 87.0248 21.2619 86.9048 21.4779C86.7848 21.6939 86.7128 21.8019 86.6888 21.8019C86.6648 21.8019 86.5508 21.7599 86.3468 21.6759C86.1548 21.5799 85.9808 21.5319 85.8248 21.5319C85.3688 21.5319 85.1408 21.8919 85.1408 22.6119V27.6339ZM93.0696 27.5439C93.0696 27.6399 92.5176 27.6879 91.4136 27.6879C90.3216 27.6879 89.7756 27.6459 89.7756 27.5619V18.7239C89.7756 18.6399 90.3216 18.5979 91.4136 18.5979C92.5176 18.5979 93.0696 18.6339 93.0696 18.7059V27.5439ZM93.0696 17.6439C93.0696 17.7279 92.5176 17.7699 91.4136 17.7699C90.3216 17.7699 89.7756 17.7339 89.7756 17.6619V15.0699C89.7756 14.9499 90.3216 14.8899 91.4136 14.8899C92.5176 14.8899 93.0696 14.9259 93.0696 14.9979V17.6439ZM100.277 27.5439C100.277 27.6879 99.7734 27.7599 98.7654 27.7599C97.5654 27.7119 96.9654 27.6339 96.9654 27.5259V21.1539H96.0474C95.8074 21.1539 95.6874 20.7399 95.6874 19.9119C95.6874 19.6959 95.7054 19.4319 95.7414 19.1199C95.7894 18.8079 95.8794 18.6519 96.0114 18.6519H96.9654V17.0679C96.9654 16.8279 97.4694 16.7079 98.4774 16.7079C99.4974 16.7079 100.007 16.8039 100.007 16.9959V18.1479L100.025 18.6519H101.555C101.759 18.6519 101.861 19.0719 101.861 19.9119C101.861 20.7519 101.759 21.1719 101.555 21.1719H100.277V27.5439ZM103.574 18.7419C103.574 18.6099 104.12 18.5439 105.212 18.5439C106.316 18.5439 106.886 18.6039 106.922 18.7239L108.218 22.9719L109.46 18.6879C109.508 18.5919 109.88 18.5439 110.576 18.5439C112.172 18.5439 112.934 18.6219 112.862 18.7779L108.632 30.8199C108.62 30.8919 108.29 30.9279 107.642 30.9279C107.006 30.9279 106.412 30.9039 105.86 30.8559C105.308 30.8199 105.044 30.7719 105.068 30.7119L106.634 26.9319L103.574 18.7419Z" fill="#D6424D"/>
<rect x="3.30762" y="0.782227" width="115.858" height="2.79248" fill="#154168"/>
</svg>
