<svg width="157" height="36" viewBox="0 0 157 36" fill="none" xmlns="http://www.w3.org/2000/svg">
<path d="M-0.00976562 27.259C4.38822 27.259 7.95345 23.6937 7.95345 19.2958C7.95345 14.8978 4.38822 11.3325 -0.00976562 11.3325V16.9067C1.30962 16.9067 2.37919 17.9763 2.37919 19.2958C2.37919 20.6151 1.30962 21.6847 -0.00976562 21.6847V27.259Z" fill="#154168"/>
<path d="M26.5344 13.9869C25.1737 13.5558 23.7245 13.3232 22.221 13.3232C14.3413 13.3232 7.95361 19.7111 7.95361 27.5907C7.95361 28.3816 8.01797 29.1575 8.1417 29.9133H17.0065C16.6901 29.2038 16.5141 28.4178 16.5141 27.5907C16.5141 24.4388 19.0692 21.8837 22.221 21.8837C23.9437 21.8837 25.488 22.647 26.5344 23.8537V13.9869Z" fill="#FFA415"/>
<path d="M1.39014 3.36914C2.05034 9.34149 7.11375 13.9868 13.2621 13.9868C19.4103 13.9868 24.4738 9.34149 25.134 3.36914H16.5917C16.0643 4.69118 14.7722 5.62538 13.2621 5.62538C11.7518 5.62538 10.4599 4.69118 9.93242 3.36914H1.39014Z" fill="#FF5528"/>
<path d="M44.0995 26.775C41.8503 26.775 40.0683 26.1521 38.7534 24.9064C37.4385 23.6434 36.781 21.844 36.781 19.5083V15.1484C36.781 12.8127 37.4385 11.022 38.7534 9.77627C40.0683 8.51326 41.8503 7.88176 44.0995 7.88176C46.3314 7.88176 48.0529 8.49596 49.264 9.72437C50.4924 10.9355 51.1066 12.6051 51.1066 14.7331V14.8889H47.7328V14.6293C47.7328 13.5566 47.4301 12.6743 46.8245 11.9822C46.2363 11.2901 45.3279 10.9441 44.0995 10.9441C42.8884 10.9441 41.9368 11.3161 41.2448 12.0601C40.5527 12.804 40.2067 13.8162 40.2067 15.0965V19.5602C40.2067 20.8233 40.5527 21.8354 41.2448 22.5967C41.9368 23.3406 42.8884 23.7126 44.0995 23.7126C45.3279 23.7126 46.2363 23.3666 46.8245 22.6745C47.4301 21.9651 47.7328 21.0828 47.7328 20.0274V19.5602H51.1066V19.9236C51.1066 22.0517 50.4924 23.7299 49.264 24.9583C48.0529 26.1694 46.3314 26.775 44.0995 26.775ZM56.4931 26.4116V8.24509H59.9188V15.7453H66.6664V8.24509H70.0921V26.4116H66.6664V18.8595H59.9188V26.4116H56.4931ZM74.8737 26.4116L79.6489 8.24509H85.6179L90.3932 26.4116H86.8637L85.8775 22.415H79.3894L78.4032 26.4116H74.8737ZM80.1939 19.2488H85.073L82.867 10.3991H82.3999L80.1939 19.2488ZM95.1629 26.4116V8.24509H103.052C104.194 8.24509 105.189 8.44406 106.037 8.84199C106.885 9.23993 107.542 9.80222 108.009 10.5289C108.476 11.2555 108.71 12.112 108.71 13.0982V13.4096C108.71 14.4996 108.45 15.3819 107.931 16.0567C107.412 16.7315 106.772 17.2245 106.011 17.536V18.0031C106.703 18.0377 107.239 18.2799 107.62 18.7298C108.001 19.1623 108.191 19.7419 108.191 20.4686V26.4116H104.765V20.9617C104.765 20.5464 104.653 20.209 104.428 19.9495C104.22 19.69 103.866 19.5602 103.364 19.5602H98.5886V26.4116H95.1629ZM98.5886 16.446H102.689C103.502 16.446 104.134 16.2297 104.584 15.7972C105.051 15.3473 105.284 14.7591 105.284 14.0324V13.7729C105.284 13.0462 105.059 12.4666 104.609 12.0341C104.16 11.5843 103.519 11.3594 102.689 11.3594H98.5886V16.446ZM114.156 26.4116V8.24509H117.581V26.4116H114.156ZM127.798 26.4116V11.3594H122.504V8.24509H136.518V11.3594H131.224V26.4116H127.798ZM146.117 26.4116V20.1571L139.941 8.24509H143.756L147.597 16.0307H148.064L151.905 8.24509H155.72L149.543 20.1571V26.4116H146.117Z" fill="#154168"/>
</svg>
