<svg width="110" height="67" viewBox="0 0 110 67" fill="none" xmlns="http://www.w3.org/2000/svg">
<path d="M11.7482 60.9448V56.9561H5.17694V60.9448H2.59438V51.3803H5.17694V54.8609H11.7482V51.3803H14.3307V60.9448H11.7482ZM19.8648 51.3803V56.7682C19.8648 57.1255 19.8949 57.4504 19.9553 57.7427C20.0156 58.0305 20.127 58.2787 20.2894 58.4876C20.4518 58.6918 20.6792 58.8519 20.9716 58.9679C21.2639 59.0793 21.6445 59.1349 22.1132 59.1349C22.4659 59.1349 22.8348 59.0862 23.22 58.9888C23.6098 58.8913 23.995 58.7614 24.3755 58.5989C24.7561 58.4365 25.1181 58.2509 25.4615 58.0421C25.8095 57.8286 26.1204 57.6082 26.3943 57.3808V51.3803H28.9698V60.9448H26.3943V59.6361C26.0694 59.8218 25.7237 60.0097 25.3571 60.2C24.9904 60.3856 24.6006 60.555 24.1876 60.7081C23.7746 60.8567 23.336 60.9773 22.872 61.0701C22.4079 61.1676 21.9183 61.2163 21.4032 61.2163C20.7581 61.2163 20.1803 61.1374 19.6699 60.9796C19.1594 60.8265 18.7278 60.6084 18.3751 60.3253C18.0224 60.0376 17.7509 59.6918 17.5607 59.2881C17.375 58.8797 17.2822 58.4249 17.2822 57.9237V51.3803H19.8648ZM34.5526 51.3803V52.4314C34.78 52.2876 35.026 52.1391 35.2905 51.9859C35.5596 51.8328 35.8497 51.6936 36.1606 51.5683C36.4762 51.443 36.8126 51.3409 37.17 51.262C37.5319 51.1785 37.9218 51.1367 38.3394 51.1367C38.7478 51.1367 39.1051 51.1808 39.4114 51.2689C39.7177 51.3525 39.9822 51.4639 40.205 51.6031C40.4324 51.7377 40.625 51.8908 40.7828 52.0625C40.9405 52.2296 41.0774 52.3966 41.1935 52.5637C41.523 52.3502 41.8478 52.1553 42.168 51.979C42.4882 51.8026 42.8108 51.6518 43.1356 51.5265C43.4604 51.4012 43.7923 51.3061 44.131 51.2411C44.4698 51.1715 44.8225 51.1367 45.1891 51.1367C45.7738 51.1367 46.2959 51.2179 46.7554 51.3803C47.2194 51.5428 47.6116 51.7655 47.9318 52.0486C48.252 52.3317 48.4956 52.6658 48.6627 53.051C48.8344 53.4315 48.9202 53.8399 48.9202 54.2761V60.9448H46.3377V54.6451C46.3377 54.3898 46.2982 54.1694 46.2193 53.9838C46.1405 53.7981 46.0337 53.6473 45.8991 53.5313C45.7692 53.4153 45.6137 53.3294 45.4328 53.2737C45.2564 53.218 45.0685 53.1902 44.8689 53.1902C43.9408 53.1902 42.8827 53.6079 41.6947 54.4432C41.7086 54.5221 41.7179 54.6149 41.7225 54.7216C41.7318 54.8284 41.7364 54.9351 41.7364 55.0418V60.9448H39.1539V54.5894C39.1539 54.3341 39.1144 54.1183 39.0355 53.942C38.9566 53.761 38.8476 53.6148 38.7084 53.5035C38.5738 53.3921 38.416 53.3132 38.235 53.2668C38.0587 53.2157 37.8707 53.1902 37.6712 53.1902C37.4299 53.1902 37.1746 53.225 36.9055 53.2946C36.6409 53.3642 36.3718 53.4617 36.098 53.587C35.8288 53.7123 35.562 53.8608 35.2974 54.0325C35.0376 54.2042 34.7893 54.3898 34.5526 54.5894V60.9448H31.9701V51.3803H34.5526ZM59.9883 60.9448V60.0051C59.6588 60.1861 59.3038 60.3462 58.9233 60.4854C58.5474 60.6246 58.1552 60.743 57.7469 60.8404C57.3385 60.9379 56.9162 61.0098 56.48 61.0562C56.0484 61.1072 55.6121 61.1328 55.1713 61.1328C54.6562 61.1328 54.1573 61.084 53.6746 60.9866C53.1967 60.8891 52.772 60.7314 52.4008 60.5132C52.0295 60.2951 51.7302 60.0097 51.5028 59.657C51.28 59.3043 51.1687 58.8727 51.1687 58.3623C51.1687 57.7172 51.345 57.1812 51.6977 56.7543C52.0504 56.3227 52.5887 55.97 53.3127 55.6962C54.0366 55.4224 54.9508 55.2112 56.0553 55.0627C57.1645 54.9142 58.4755 54.7982 59.9883 54.7147V54.5128C59.9883 54.355 59.9466 54.1996 59.863 54.0464C59.7795 53.8886 59.6264 53.7517 59.4036 53.6357C59.1855 53.5151 58.8838 53.4176 58.4987 53.3433C58.1181 53.2691 57.6308 53.232 57.0368 53.232C56.5681 53.232 56.1041 53.2575 55.6446 53.3085C55.1898 53.3549 54.749 53.4199 54.322 53.5035C53.8997 53.587 53.4983 53.6844 53.1178 53.7958C52.7372 53.9072 52.3915 54.0232 52.0806 54.1439V51.8467C52.4054 51.7632 52.7697 51.682 53.1735 51.6031C53.5772 51.5242 53.9972 51.4569 54.4334 51.4012C54.8696 51.3409 55.3105 51.2945 55.756 51.262C56.2015 51.2249 56.6285 51.2063 57.0368 51.2063C57.8397 51.2063 58.5799 51.2736 59.2574 51.4082C59.935 51.5381 60.5174 51.7423 61.0046 52.0207C61.4966 52.2992 61.8794 52.6519 62.1532 53.0788C62.4317 53.5058 62.5709 54.0139 62.5709 54.6033V60.9448H59.9883ZM59.9883 56.5802C58.9952 56.6174 58.1506 56.6707 57.4545 56.7403C56.763 56.81 56.1876 56.8912 55.7282 56.984C55.2687 57.0768 54.9068 57.1766 54.6422 57.2833C54.3824 57.39 54.1874 57.4991 54.0575 57.6105C53.9276 57.7219 53.8464 57.8332 53.8139 57.9446C53.786 58.056 53.7721 58.1581 53.7721 58.2509C53.7721 58.3623 53.8023 58.4713 53.8626 58.5781C53.9229 58.6802 54.0273 58.7707 54.1758 58.8495C54.329 58.9284 54.5309 58.9911 54.7815 59.0375C55.0321 59.0839 55.3476 59.1071 55.7282 59.1071C56.1505 59.1071 56.5635 59.0746 56.9672 59.0096C57.371 58.9447 57.7538 58.8565 58.1158 58.7451C58.4778 58.6291 58.8166 58.4945 59.1321 58.3414C59.4523 58.1836 59.7377 58.0165 59.9883 57.8402V56.5802ZM74.6344 60.9448V55.5848C74.6344 55.2275 74.6042 54.9049 74.5439 54.6172C74.4836 54.3249 74.3699 54.0766 74.2028 53.8724C74.0404 53.6636 73.8107 53.5035 73.5137 53.3921C73.2213 53.2761 72.8431 53.218 72.379 53.218C72.0263 53.218 71.6551 53.2668 71.2652 53.3642C70.8801 53.457 70.4972 53.5823 70.1167 53.7401C69.7361 53.8979 69.3718 54.0812 69.0238 54.2901C68.6804 54.4989 68.3741 54.717 68.1049 54.9444V60.9448H65.5224V51.3803H68.1049V52.689C68.4298 52.5034 68.7755 52.3201 69.1421 52.1391C69.5087 51.9535 69.8986 51.7864 70.3116 51.6379C70.7246 51.4894 71.1632 51.3687 71.6272 51.2759C72.0913 51.1831 72.5809 51.1367 73.096 51.1367C73.7411 51.1367 74.3165 51.2156 74.8224 51.3734C75.3328 51.5265 75.7644 51.7469 76.1171 52.0347C76.4698 52.3177 76.739 52.6635 76.9246 53.0719C77.1149 53.4756 77.21 53.9281 77.21 54.4293V60.9448H74.6344ZM80.1684 60.9448V51.3803H82.751V60.9448H80.1684ZM91.1112 53.4617V60.9448H88.5287V53.4617H84.4704V51.3803H95.1765V53.4617H91.1112ZM108.249 57.2694C108.249 57.8912 108.096 58.4458 107.79 58.9331C107.484 59.4204 107.047 59.8334 106.481 60.1721C105.92 60.5063 105.238 60.7615 104.435 60.9379C103.636 61.1142 102.741 61.2024 101.748 61.2024C101.312 61.2024 100.852 61.1838 100.369 61.1467C99.8914 61.1142 99.4227 61.0655 98.9633 61.0005C98.5085 60.9402 98.0816 60.8706 97.6825 60.7917C97.2834 60.7081 96.9469 60.6177 96.6731 60.5202V58.2509C96.9701 58.3762 97.2996 58.4945 97.6616 58.6059C98.0282 58.7173 98.425 58.8171 98.8519 58.9052C99.2789 58.9888 99.736 59.0561 100.223 59.1071C100.715 59.1535 101.235 59.1767 101.783 59.1767C102.298 59.1767 102.75 59.1466 103.14 59.0862C103.534 59.0259 103.875 58.9447 104.163 58.8426C104.451 58.7405 104.69 58.6245 104.88 58.4945C105.07 58.36 105.224 58.223 105.34 58.0838C105.456 57.94 105.537 57.7984 105.583 57.6592C105.634 57.52 105.66 57.39 105.66 57.2694V56.4271C105.186 56.7751 104.623 57.0629 103.968 57.2903C103.314 57.513 102.569 57.6244 101.734 57.6244C100.764 57.6244 99.9541 57.5316 99.3044 57.346C98.6593 57.1557 98.1419 56.8842 97.7521 56.5315C97.3623 56.1742 97.0838 55.7403 96.9168 55.2298C96.7543 54.7193 96.6731 54.1439 96.6731 53.5035V51.3803H99.2696V53.2459C99.2696 53.6218 99.3183 53.9559 99.4158 54.2483C99.5179 54.5406 99.6757 54.7866 99.8891 54.9862C100.107 55.1811 100.388 55.3296 100.731 55.4317C101.075 55.5338 101.49 55.5848 101.977 55.5848C102.39 55.5848 102.78 55.5338 103.147 55.4317C103.518 55.3296 103.859 55.195 104.17 55.0279C104.481 54.8609 104.762 54.6706 105.012 54.4571C105.263 54.2436 105.479 54.0255 105.66 53.8028V51.3803H108.249V57.2694Z" fill="#154168"/>
<path d="M31.3588 19.6875C32.6951 14.3165 35.79 9.5469 40.1506 6.13832C44.5113 2.72967 49.887 0.87793 55.4217 0.87793C60.9564 0.87793 66.3321 2.72967 70.6928 6.13832C75.0534 9.5469 78.1482 14.3165 79.4846 19.6875H77.311C73.6445 19.6336 70.053 20.7294 67.0411 22.8211C66.8672 22.9469 66.6857 23.062 66.4977 23.1652H66.2441C66.0561 23.062 65.8746 22.9469 65.7007 22.8211C62.6621 20.7777 59.0834 19.6864 55.4217 19.6864C51.76 19.6864 48.1813 20.7777 45.1427 22.8211C44.9688 22.9469 44.7873 23.062 44.5993 23.1652H44.3457C44.1577 23.062 43.9762 22.9469 43.8023 22.8211C40.7904 20.7294 37.1989 19.6336 33.5324 19.6875H31.3588ZM73.3987 31.0443C74.5144 30.1754 75.8973 29.7208 77.311 29.7583H80.2272V23.944H77.311C74.8209 23.914 72.3878 24.689 70.3738 26.1538C69.2405 26.9894 67.8695 27.4402 66.4615 27.4402C65.0534 27.4402 63.6824 26.9894 62.5491 26.1538C60.484 24.7164 58.0283 23.9457 55.5123 23.9457C52.9962 23.9457 50.5405 24.7164 48.4754 26.1538C47.3421 26.9894 45.9712 27.4402 44.5631 27.4402C43.155 27.4402 41.784 26.9894 40.6507 26.1538C38.6119 24.6702 36.1439 23.8942 33.6229 23.944H30.6162V29.7583H33.5324C34.9461 29.7208 36.329 30.1754 37.4447 31.0443C39.506 32.4828 41.959 33.254 44.4725 33.254C46.986 33.254 49.439 32.4828 51.5003 31.0443C52.6175 30.1781 53.9993 29.7238 55.4126 29.7583C56.8269 29.7177 58.2107 30.1727 59.325 31.0443C61.3901 32.4819 63.8458 33.2524 66.3618 33.2524C68.8779 33.2524 71.3336 32.4819 73.3987 31.0443ZM73.3987 41.441C74.5144 40.5721 75.8973 40.1175 77.311 40.155H80.2272V34.3408H77.311C74.8209 34.3107 72.3878 35.0858 70.3738 36.5506C69.2405 37.3861 67.8695 37.8369 66.4615 37.8369C65.0534 37.8369 63.6824 37.3861 62.5491 36.5506C60.484 35.1131 58.0283 34.3426 55.5123 34.3426C52.9962 34.3426 50.5405 35.1131 48.4754 36.5506C47.3421 37.3861 45.9712 37.8369 44.5631 37.8369C43.155 37.8369 41.784 37.3861 40.6507 36.5506C38.6119 35.0671 36.1439 34.291 33.6229 34.3408H30.6162V40.155H33.5324C34.9461 40.1175 36.329 40.5721 37.4447 41.441C39.506 42.8795 41.959 43.6508 44.4725 43.6508C46.986 43.6508 49.439 42.8795 51.5003 41.441C52.6175 40.5749 53.9993 40.1206 55.4126 40.155C56.8269 40.1144 58.2107 40.5694 59.325 41.441C61.3901 42.8786 63.8458 43.6491 66.3618 43.6491C68.8779 43.6491 71.3336 42.8786 73.3987 41.441Z" fill="#154168"/>
</svg>
