<svg width="100" height="68" viewBox="0 0 100 68" fill="none" xmlns="http://www.w3.org/2000/svg">
<path d="M43.487 36.7639C40.2308 42.6237 33.6009 45.4116 26.8971 45.4116H0C28 41.9116 47.5 27.9116 50 8.41162C52.5 27.9116 72 41.9116 100 45.4116H73.1029C66.3991 45.4116 59.7692 42.6237 56.513 36.7639C52.9886 30.4216 50.7432 23.245 50 15.4116C49.2568 23.245 47.0114 30.4216 43.487 36.7639Z" fill="#FF6D6D"/>
<path d="M28.1051 34.6929C26.5344 35.5772 24.8822 36.4078 23.1522 37.1815C22.1695 33.7869 21.8079 30.2254 22.0963 26.6776C22.4778 21.9841 23.9851 17.4592 26.4847 13.5039C28.9844 9.54862 32.3991 6.28481 36.4265 4.0017C40.4539 1.7186 44.9697 0.486631 49.5738 0.414941C54.1779 0.343241 58.7282 1.43403 62.8217 3.59068C66.9152 5.74732 70.4255 8.90322 73.0416 12.7789C75.6578 16.6546 77.2991 21.1304 77.8202 25.8098C78.2463 29.6373 77.9123 33.5045 76.8478 37.1815C75.1178 36.4078 73.4656 35.5771 71.8949 34.6928C72.5571 32.0046 72.7427 29.208 72.4342 26.4372C72.014 22.6637 70.6904 19.0544 68.5808 15.9291C66.4711 12.8038 63.6404 10.2588 60.3394 8.51972C57.0384 6.78059 53.369 5.90099 49.6563 5.9588C45.9435 6.01661 42.302 7.01007 39.0544 8.85112C35.8067 10.6922 33.053 13.3241 31.0373 16.5137C29.0216 19.7033 27.8061 23.3521 27.4985 27.137C27.2917 29.681 27.4993 32.2338 28.1051 34.6929Z" fill="#77D7D3"/>
<path d="M20.4867 63.0816C20.5567 63.0816 20.5917 63.1316 20.5917 63.2316C20.5917 63.3516 20.5567 63.4116 20.4867 63.4116H15.4167C15.3467 63.4116 15.3117 63.3516 15.3117 63.2316C15.3117 63.1316 15.3467 63.0816 15.4167 63.0816H15.5817C16.4117 63.0816 16.8267 62.6466 16.8267 61.7766L16.8417 57.8316H12.4467L12.4317 61.7766C12.4317 62.2866 12.5517 62.6316 12.7917 62.8116C13.0317 62.9816 13.3317 63.0666 13.6917 63.0666H13.8567C13.9267 63.0666 13.9617 63.1216 13.9617 63.2316C13.9617 63.3516 13.9267 63.4116 13.8567 63.4116H8.78668C8.71668 63.4116 8.68168 63.3516 8.68168 63.2316C8.68168 63.1216 8.71668 63.0666 8.78668 63.0666H8.96668C9.79668 63.0666 10.2117 62.6366 10.2117 61.7766V53.9466C10.2117 53.0866 9.79668 52.6566 8.96668 52.6566H8.78668C8.71668 52.6566 8.68168 52.5966 8.68168 52.4766C8.68168 52.3566 8.71668 52.2966 8.78668 52.2966H13.8567C13.9267 52.2966 13.9617 52.3566 13.9617 52.4766C13.9617 52.5966 13.9267 52.6566 13.8567 52.6566H13.6917C13.3317 52.6566 13.0317 52.7466 12.7917 52.9266C12.5617 53.0966 12.4467 53.4366 12.4467 53.9466V57.2916H16.8417V53.9466C16.8417 53.4366 16.7217 53.0966 16.4817 52.9266C16.2417 52.7466 15.9417 52.6566 15.5817 52.6566H15.4167C15.3467 52.6566 15.3117 52.5966 15.3117 52.4766C15.3117 52.3666 15.3467 52.3116 15.4167 52.3116H20.4867C20.5567 52.3116 20.5917 52.3666 20.5917 52.4766C20.5917 52.5966 20.5567 52.6566 20.4867 52.6566H20.3217C19.9617 52.6566 19.6617 52.7466 19.4217 52.9266C19.1917 53.0966 19.0767 53.4366 19.0767 53.9466L19.0617 61.7766C19.0617 62.6466 19.4817 63.0816 20.3217 63.0816H20.4867ZM31.5092 62.8716C31.6692 62.8716 31.7492 62.9416 31.7492 63.0816C31.7492 63.1616 31.7142 63.2116 31.6442 63.2316C31.5542 63.2516 30.5342 63.3716 28.5842 63.5916L28.5692 62.2866C28.3092 62.6666 27.9892 62.9816 27.6092 63.2316C27.2292 63.4716 26.7992 63.5916 26.3192 63.5916C25.5092 63.5916 24.9042 63.3666 24.5042 62.9166C24.1042 62.4566 23.8942 61.9116 23.8742 61.2816C23.8442 60.4616 23.8292 59.2616 23.8292 57.6816C23.8292 57.3616 23.7592 57.1466 23.6192 57.0366C23.4892 56.9266 23.2592 56.8716 22.9292 56.8716C22.8392 56.8616 22.7942 56.7866 22.7942 56.6466C22.7942 56.5766 22.8242 56.5366 22.8842 56.5266C22.9742 56.4966 23.9442 56.3016 25.7942 55.9416C25.7642 57.3316 25.7492 58.5066 25.7492 59.4666C25.7492 60.2466 25.7592 60.8166 25.7792 61.1766C25.8192 61.6866 25.9242 62.0916 26.0942 62.3916C26.2642 62.6916 26.5592 62.8416 26.9792 62.8416C27.5592 62.8416 28.0892 62.4466 28.5692 61.6566L28.5392 57.6966C28.5392 57.3666 28.4692 57.1516 28.3292 57.0516C28.1992 56.9416 27.9692 56.8816 27.6392 56.8716C27.5492 56.8616 27.5042 56.7816 27.5042 56.6316C27.5042 56.5716 27.5342 56.5366 27.5942 56.5266C27.6842 56.4966 28.6542 56.3016 30.5042 55.9416V62.1516C30.5042 62.6216 30.7692 62.8666 31.2992 62.8866L31.5092 62.8716ZM47.2651 63.0666C47.3351 63.0666 47.3701 63.1266 47.3701 63.2466C47.3701 63.3566 47.3351 63.4116 47.2651 63.4116H43.3201C43.2501 63.4116 43.2151 63.3566 43.2151 63.2466C43.2151 63.1266 43.2501 63.0666 43.3201 63.0666H43.4851C43.7651 63.0666 43.9751 63.0216 44.1151 62.9316C44.2551 62.8316 44.3251 62.6266 44.3251 62.3166L44.3401 59.8716C44.3401 59.2916 44.3301 58.7916 44.3101 58.3716C44.2801 57.8516 44.1801 57.4416 44.0101 57.1416C43.8401 56.8416 43.5451 56.6916 43.1251 56.6916C42.5451 56.6916 42.0301 57.0616 41.5801 57.8016C41.6101 57.9516 41.6251 58.1066 41.6251 58.2666V59.6916V62.3166C41.6251 62.6266 41.6951 62.8316 41.8351 62.9316C41.9751 63.0216 42.1851 63.0666 42.4651 63.0666H42.6151C42.6851 63.0666 42.7201 63.1266 42.7201 63.2466C42.7201 63.3566 42.6851 63.4116 42.6151 63.4116H38.6851C38.6151 63.4116 38.5801 63.3566 38.5801 63.2466C38.5801 63.1266 38.6151 63.0666 38.6851 63.0666H38.8501C39.1201 63.0666 39.3251 63.0216 39.4651 62.9316C39.6151 62.8316 39.6901 62.6266 39.6901 62.3166L39.7051 59.8866C39.7051 59.2966 39.6951 58.7916 39.6751 58.3716C39.6451 57.8516 39.5401 57.4416 39.3601 57.1416C39.1901 56.8416 38.8951 56.6916 38.4751 56.6916C37.8751 56.6916 37.3401 57.1016 36.8701 57.9216V62.3166C36.8701 62.6266 36.9401 62.8316 37.0801 62.9316C37.2201 63.0216 37.4301 63.0666 37.7101 63.0666H37.8751C37.9451 63.0666 37.9801 63.1266 37.9801 63.2466C37.9801 63.3566 37.9451 63.4116 37.8751 63.4116H33.9301C33.8601 63.4116 33.8251 63.3566 33.8251 63.2466C33.8251 63.1266 33.8601 63.0666 33.9301 63.0666H34.0801C34.3601 63.0666 34.5701 63.0216 34.7101 62.9316C34.8501 62.8316 34.9201 62.6266 34.9201 62.3166V57.6966C34.9101 57.3666 34.8351 57.1516 34.6951 57.0516C34.5651 56.9416 34.3351 56.8816 34.0051 56.8716C33.9551 56.8716 33.9201 56.8466 33.9001 56.7966C33.8801 56.7366 33.8701 56.6866 33.8701 56.6466C33.8701 56.5766 33.9001 56.5366 33.9601 56.5266C34.0501 56.4966 35.0201 56.3016 36.8701 55.9416V57.2616C37.1401 56.8616 37.4651 56.5416 37.8451 56.3016C38.2251 56.0616 38.6551 55.9416 39.1351 55.9416C39.7251 55.9416 40.2151 56.0766 40.6051 56.3466C40.9951 56.6066 41.2751 56.9466 41.4451 57.3666C41.7251 56.9366 42.0601 56.5916 42.4501 56.3316C42.8401 56.0716 43.2801 55.9416 43.7701 55.9416C44.3101 55.9416 44.7651 56.0566 45.1351 56.2866C45.5151 56.5066 45.7951 56.7966 45.9751 57.1566C46.1551 57.5066 46.2501 57.8766 46.2601 58.2666C46.2701 58.4966 46.2751 58.9716 46.2751 59.6916L46.2601 62.3166C46.2601 62.6266 46.3301 62.8316 46.4701 62.9316C46.6101 63.0216 46.8201 63.0666 47.1001 63.0666H47.2651ZM57.4652 62.0466C57.4952 62.0466 57.5202 62.0566 57.5402 62.0766C57.5702 62.0966 57.5852 62.1266 57.5852 62.1666L57.5702 62.2416C57.4502 62.6216 57.2252 62.9416 56.8952 63.2016C56.5652 63.4516 56.2102 63.5766 55.8302 63.5766C55.0802 63.5766 54.5902 63.2466 54.3602 62.5866C53.9702 62.9266 53.5302 63.1866 53.0402 63.3666C52.5502 63.5366 52.0752 63.6216 51.6152 63.6216C50.9852 63.6216 50.4902 63.4766 50.1302 63.1866C49.7802 62.8866 49.6052 62.4766 49.6052 61.9566C49.6052 61.1766 50.0452 60.5566 50.9252 60.0966C51.1652 59.9766 51.4252 59.8816 51.7052 59.8116C51.9852 59.7416 52.3602 59.6616 52.8302 59.5716C53.3602 59.4816 53.8252 59.3816 54.2252 59.2716V58.5966C54.2252 57.9866 54.2102 57.5616 54.1802 57.3216C54.1502 57.0716 54.0752 56.8666 53.9552 56.7066C53.7552 56.4666 53.4902 56.3466 53.1602 56.3466C52.9102 56.3466 52.6902 56.4266 52.5002 56.5866C52.3202 56.7466 52.1702 57.0816 52.0502 57.5916C51.9602 57.9616 51.8152 58.2366 51.6152 58.4166C51.4252 58.5966 51.2052 58.6866 50.9552 58.6866C50.7052 58.6866 50.4852 58.6166 50.2952 58.4766C50.1052 58.3266 50.0102 58.1216 50.0102 57.8616C50.0102 57.6616 50.0852 57.4166 50.2352 57.1266C50.3952 56.8266 50.7052 56.5566 51.1652 56.3166C51.6352 56.0666 52.2902 55.9416 53.1302 55.9416C54.3102 55.9416 55.1752 56.2416 55.7252 56.8416C55.9052 57.0416 56.0252 57.2666 56.0852 57.5166C56.1552 57.7566 56.1902 58.0566 56.1902 58.4166L56.1752 60.0666C56.1652 60.3966 56.1602 60.9066 56.1602 61.5966C56.1602 62.0366 56.2052 62.3216 56.2952 62.4516C56.3852 62.5716 56.5052 62.6316 56.6552 62.6316C56.7752 62.6316 56.8952 62.5916 57.0152 62.5116C57.1452 62.4216 57.2602 62.2916 57.3602 62.1216C57.3902 62.0716 57.4252 62.0466 57.4652 62.0466ZM52.7702 62.7666C53.0202 62.7666 53.2702 62.7216 53.5202 62.6316C53.7802 62.5316 54.0252 62.3866 54.2552 62.1966C54.2152 61.9466 54.1952 61.6516 54.1952 61.3116L54.2102 59.6616C53.3002 59.9016 52.6402 60.2016 52.2302 60.5616C51.8202 60.9116 51.6152 61.3416 51.6152 61.8516C51.6152 62.1316 51.7202 62.3566 51.9302 62.5266C52.1402 62.6866 52.4202 62.7666 52.7702 62.7666ZM68.0278 63.0666C68.0978 63.0666 68.1328 63.1266 68.1328 63.2466C68.1328 63.3566 68.0978 63.4116 68.0278 63.4116H64.0978C64.0278 63.4116 63.9928 63.3566 63.9928 63.2466C63.9928 63.1266 64.0278 63.0666 64.0978 63.0666H64.2628C64.5328 63.0666 64.7378 63.0216 64.8778 62.9316C65.0178 62.8316 65.0878 62.6266 65.0878 62.3166C65.1078 61.3266 65.1178 60.4616 65.1178 59.7216C65.1178 59.2016 65.1078 58.7516 65.0878 58.3716C65.0578 57.8516 64.9528 57.4416 64.7728 57.1416C64.6028 56.8416 64.3078 56.6916 63.8878 56.6916C63.2878 56.6916 62.7528 57.0966 62.2828 57.9066V62.3166C62.2828 62.6266 62.3528 62.8316 62.4928 62.9316C62.6328 63.0216 62.8428 63.0666 63.1228 63.0666H63.2878C63.3578 63.0666 63.3928 63.1266 63.3928 63.2466C63.3928 63.3566 63.3578 63.4116 63.2878 63.4116H59.3428C59.2628 63.4116 59.2228 63.3566 59.2228 63.2466C59.2228 63.1266 59.2628 63.0666 59.3428 63.0666H59.4928C59.7728 63.0666 59.9828 63.0216 60.1228 62.9316C60.2628 62.8316 60.3328 62.6266 60.3328 62.3166V57.6966C60.3328 57.3666 60.2628 57.1516 60.1228 57.0516C59.9828 56.9416 59.7478 56.8816 59.4178 56.8716C59.3278 56.8616 59.2828 56.7816 59.2828 56.6316C59.2828 56.5716 59.3128 56.5366 59.3728 56.5266C59.4628 56.4966 60.4328 56.3016 62.2828 55.9416V57.2616C62.5528 56.8616 62.8778 56.5416 63.2578 56.3016C63.6378 56.0616 64.0678 55.9416 64.5478 55.9416C65.0878 55.9416 65.5428 56.0566 65.9128 56.2866C66.2828 56.5066 66.5578 56.7916 66.7378 57.1416C66.9278 57.4916 67.0278 57.8616 67.0378 58.2516V59.7216V62.3166C67.0378 62.6266 67.1078 62.8316 67.2478 62.9316C67.3878 63.0216 67.5978 63.0666 67.8778 63.0666H68.0278ZM72.279 54.5016C71.949 54.5016 71.669 54.3866 71.439 54.1566C71.209 53.9266 71.094 53.6516 71.094 53.3316C71.094 53.0016 71.209 52.7216 71.439 52.4916C71.669 52.2616 71.949 52.1466 72.279 52.1466C72.599 52.1466 72.874 52.2616 73.104 52.4916C73.344 52.7216 73.464 53.0016 73.464 53.3316C73.464 53.6516 73.344 53.9266 73.104 54.1566C72.874 54.3866 72.599 54.5016 72.279 54.5016ZM70.314 63.4116C70.244 63.4116 70.209 63.3516 70.209 63.2316C70.209 63.1216 70.244 63.0666 70.314 63.0666H70.479C70.769 63.0666 70.994 63.0216 71.154 62.9316C71.314 62.8316 71.394 62.6266 71.394 62.3166V57.6966C71.394 57.3766 71.324 57.1666 71.184 57.0666C71.054 56.9566 70.819 56.8916 70.479 56.8716C70.389 56.8716 70.344 56.7966 70.344 56.6466C70.344 56.5766 70.374 56.5366 70.434 56.5266C70.534 56.4966 71.504 56.3016 73.344 55.9416V62.3166C73.344 62.6266 73.424 62.8316 73.584 62.9316C73.754 63.0216 73.984 63.0666 74.274 63.0666H74.439C74.509 63.0666 74.544 63.1216 74.544 63.2316C74.544 63.3516 74.509 63.4116 74.439 63.4116H70.314ZM79.8635 63.6066C79.1735 63.6066 78.6485 63.4116 78.2885 63.0216C77.9285 62.6216 77.7385 62.0416 77.7185 61.2816V56.6166H76.3835V56.1066C77.1435 55.9566 77.7835 55.6466 78.3035 55.1766C78.8335 54.7066 79.1885 53.9816 79.3685 53.0016H79.6685V56.1066H81.5435V56.6166H79.6685L79.6385 60.0066C79.6385 60.6766 79.6435 61.0766 79.6535 61.2066C79.6835 61.7766 79.7885 62.1716 79.9685 62.3916C80.1585 62.6016 80.4085 62.7066 80.7185 62.7066C80.9185 62.7066 81.0935 62.6666 81.2435 62.5866C81.3935 62.4966 81.5735 62.3466 81.7835 62.1366C81.8335 62.0766 81.8785 62.0466 81.9185 62.0466C81.9585 62.0466 81.9985 62.0666 82.0385 62.1066C82.0885 62.1466 82.1135 62.1866 82.1135 62.2266C82.1135 62.2466 82.1035 62.2766 82.0835 62.3166C81.7735 62.7866 81.4385 63.1216 81.0785 63.3216C80.7185 63.5116 80.3135 63.6066 79.8635 63.6066ZM91.8718 56.1066C91.9418 56.1066 91.9768 56.1616 91.9768 56.2716C91.9768 56.3316 91.9618 56.3716 91.9318 56.3916C91.9018 56.4116 91.8618 56.4266 91.8118 56.4366C91.7618 56.4466 91.7268 56.4566 91.7068 56.4666C91.4568 56.5266 91.2368 56.6516 91.0468 56.8416C90.8668 57.0216 90.6668 57.3416 90.4468 57.8016C90.0868 58.5616 89.6168 59.5666 89.0368 60.8166C88.4568 62.0566 87.9268 63.2016 87.4468 64.2516C87.0168 65.1816 86.5918 65.8366 86.1718 66.2166C85.7518 66.6066 85.3168 66.8016 84.8668 66.8016C84.3568 66.8016 83.9768 66.6916 83.7268 66.4716C83.4768 66.2516 83.3518 66.0066 83.3518 65.7366C83.3518 65.4766 83.4368 65.2666 83.6068 65.1066C83.7768 64.9466 83.9918 64.8666 84.2518 64.8666C84.4218 64.8666 84.5618 64.8866 84.6718 64.9266C84.7918 64.9666 84.9268 65.0266 85.0768 65.1066C85.2068 65.1866 85.3268 65.2416 85.4368 65.2716C85.5468 65.3116 85.6768 65.3316 85.8268 65.3316C86.0168 65.3316 86.1818 65.2466 86.3218 65.0766C86.4718 64.9166 86.6468 64.6416 86.8468 64.2516L87.3268 63.2616C87.0568 62.6716 86.7518 61.9866 86.4118 61.2066C85.2518 58.6366 84.6368 57.2816 84.5668 57.1416C84.4368 56.8816 84.3068 56.7016 84.1768 56.6016C84.0468 56.5016 83.8568 56.4516 83.6068 56.4516C83.5368 56.4516 83.5018 56.3916 83.5018 56.2716C83.5018 56.1616 83.5368 56.1066 83.6068 56.1066H87.2668C87.3368 56.1066 87.3718 56.1616 87.3718 56.2716C87.3718 56.3816 87.3318 56.4416 87.2518 56.4516C87.0418 56.4716 86.8768 56.5216 86.7568 56.6016C86.6468 56.6816 86.5918 56.7766 86.5918 56.8866C86.5918 56.9566 86.6168 57.0566 86.6668 57.1866C86.7268 57.3566 86.9468 57.8966 87.3268 58.8066C87.7168 59.7166 88.0518 60.4916 88.3318 61.1316C88.3918 61.0016 88.4568 60.8616 88.5268 60.7116C88.5968 60.5516 88.6768 60.3816 88.7668 60.2016C88.8868 59.9416 89.0918 59.4866 89.3818 58.8366C89.6818 58.1866 89.8568 57.7766 89.9068 57.6066C89.9568 57.4766 89.9818 57.3616 89.9818 57.2616C89.9818 56.9916 89.8568 56.7866 89.6068 56.6466C89.3568 56.5066 89.0918 56.4366 88.8118 56.4366C88.7418 56.4366 88.7068 56.3816 88.7068 56.2716C88.7068 56.1616 88.7418 56.1066 88.8118 56.1066H91.8718Z" fill="#154168"/>
</svg>
