<svg width="150" height="27" viewBox="0 0 150 27" fill="none" xmlns="http://www.w3.org/2000/svg">
<path d="M3.549 21.36C2.309 21.36 1.41 21.0913 0.852 20.554C0.294 20.0373 0.0150002 19.4483 0.0150002 18.787C0.0150002 18.105 0.273333 17.4747 0.79 16.896C1.32733 16.3173 2.061 16.028 2.991 16.028C3.239 16.028 3.518 16.059 3.828 16.121C3.99333 16.1417 4.11733 16.214 4.2 16.338C4.30333 16.462 4.355 16.586 4.355 16.71C4.355 16.9787 4.21033 17.113 3.921 17.113C3.81767 17.113 3.69367 17.1027 3.549 17.082C3.425 17.0613 3.31133 17.051 3.208 17.051C2.60867 17.051 2.123 17.237 1.751 17.609C1.379 17.981 1.193 18.384 1.193 18.818C1.193 19.19 1.36867 19.5207 1.72 19.81C2.07133 20.0993 2.66033 20.244 3.487 20.244C4.603 20.244 5.61567 20.027 6.525 19.593C7.43433 19.159 8.261 18.5907 9.005 17.888C9.76967 17.1647 10.462 16.3897 11.082 15.563C11.7227 14.7363 12.322 13.9407 12.88 13.176L14.244 11.254C15.3187 9.72467 16.414 8.216 17.53 6.728C18.6667 5.21933 19.7723 3.94833 20.847 2.915C20.351 2.81167 19.8033 2.729 19.204 2.667C18.6047 2.605 17.9537 2.574 17.251 2.574C15.4323 2.574 13.7583 2.77033 12.229 3.163C10.7203 3.535 9.39767 4.031 8.261 4.651C7.12433 5.271 6.20467 5.93233 5.502 6.635C4.79933 7.33767 4.34467 8.00933 4.138 8.65C3.99333 9.10467 3.921 9.53867 3.921 9.952C3.921 10.6133 4.12767 11.1093 4.541 11.44C4.95433 11.7707 5.49167 11.936 6.153 11.936C6.79367 11.936 7.52733 11.7603 8.354 11.409C9.20133 11.037 10.0487 10.4583 10.896 9.673C11.764 8.867 12.5493 7.83367 13.252 6.573C13.3553 6.387 13.5207 6.294 13.748 6.294C14.058 6.294 14.213 6.449 14.213 6.759C14.213 6.883 14.1923 6.976 14.151 7.038C13.3657 8.42267 12.4977 9.55933 11.547 10.448C10.5963 11.3367 9.64567 11.998 8.695 12.432C7.74433 12.8453 6.85567 13.052 6.029 13.052C5.07833 13.052 4.30333 12.7937 3.704 12.277C3.10467 11.7397 2.805 10.9853 2.805 10.014C2.805 9.518 2.898 8.96 3.084 8.34C3.332 7.534 3.84867 6.728 4.634 5.922C5.44 5.116 6.463 4.372 7.703 3.69C8.96367 3.008 10.4 2.47067 12.012 2.078C13.624 1.66467 15.3703 1.458 17.251 1.458C18.181 1.458 19.0283 1.50967 19.793 1.613C20.5783 1.71633 21.2707 1.861 21.87 2.047C22.3867 1.63367 22.893 1.31333 23.389 1.086C23.9057 0.858666 24.4017 0.744999 24.877 0.744999C25.0837 0.744999 25.2387 0.806999 25.342 0.930999C25.466 1.055 25.528 1.18933 25.528 1.334C25.528 1.582 25.3833 1.706 25.094 1.706C24.5567 1.706 23.9057 1.97467 23.141 2.512C24.071 2.946 24.7427 3.48333 25.156 4.124C25.59 4.76467 25.807 5.43633 25.807 6.139C25.807 6.90367 25.5693 7.67867 25.094 8.464C24.6187 9.22867 23.947 9.93133 23.079 10.572C22.211 11.192 21.188 11.688 20.01 12.06C18.832 12.4113 17.5507 12.556 16.166 12.494C16.2073 13.0727 16.321 13.8373 16.507 14.788C16.7137 15.7387 16.9927 16.7203 17.344 17.733C17.6953 18.725 18.119 19.6033 18.615 20.368C19.0077 20.9467 19.4623 21.3703 19.979 21.639C20.4957 21.9283 21.0227 22.073 21.56 22.073C22.4073 22.073 23.1927 21.8043 23.916 21.267C24.66 20.7297 25.1973 20.027 25.528 19.159C25.6107 18.9317 25.7657 18.818 25.993 18.818C26.179 18.818 26.3443 18.8903 26.489 19.035C26.6337 19.1797 26.6647 19.3553 26.582 19.562C26.334 20.2233 25.9413 20.8227 25.404 21.36C24.8873 21.8973 24.2777 22.321 23.575 22.631C22.893 22.941 22.1903 23.096 21.467 23.096C20.7437 23.096 20.041 22.9203 19.359 22.569C18.6977 22.2383 18.0983 21.6803 17.561 20.895C17.003 20.0477 16.538 19.097 16.166 18.043C15.794 16.9683 15.515 15.9143 15.329 14.881C15.143 13.8477 15.0397 12.9693 15.019 12.246L14.275 13.3C13.5723 14.3127 12.849 15.3047 12.105 16.276C11.361 17.2267 10.5653 18.0947 9.718 18.88C8.87067 19.6447 7.94067 20.244 6.928 20.678C5.91533 21.1327 4.789 21.36 3.549 21.36ZM15.732 11.223L15.67 11.316C15.856 11.3367 16.0523 11.3573 16.259 11.378C16.4657 11.378 16.6517 11.378 16.817 11.378C18.305 11.378 19.638 11.1197 20.816 10.603C21.994 10.0657 22.924 9.394 23.606 8.588C24.3087 7.782 24.66 6.976 24.66 6.17C24.66 5.612 24.4637 5.085 24.071 4.589C23.6783 4.07233 23.048 3.64867 22.18 3.318C20.9813 4.35133 19.8343 5.59133 18.739 7.038C17.6643 8.48467 16.662 9.87967 15.732 11.223ZM26.9017 20.027C26.199 20.027 25.703 19.8307 25.4137 19.438C25.1244 19.0247 24.9797 18.5183 24.9797 17.919C24.9797 17.423 25.052 16.8857 25.1967 16.307C25.362 15.7077 25.5687 15.1187 25.8167 14.54C25.8374 13.734 26.0544 12.9383 26.4677 12.153C26.9017 11.3677 27.4804 10.7167 28.2037 10.2C28.9477 9.68333 29.8157 9.425 30.8077 9.425C31.779 9.425 32.4507 9.704 32.8227 10.262C33.2154 10.82 33.4117 11.4813 33.4117 12.246C33.4117 12.7007 33.36 13.1657 33.2567 13.641C33.1534 14.0957 33.019 14.5297 32.8537 14.943C32.6884 15.3563 32.4817 15.78 32.2337 16.214C31.9857 16.6273 31.7067 17.0407 31.3967 17.454C32.0167 17.3507 32.554 17.1543 33.0087 16.865C33.484 16.555 33.9594 16.1313 34.4347 15.594C34.91 15.0567 35.468 14.3747 36.1087 13.548C36.2327 13.4033 36.367 13.331 36.5117 13.331C36.677 13.331 36.8114 13.3827 36.9147 13.486C37.0387 13.5893 37.1007 13.7237 37.1007 13.889C37.1007 14.013 37.0594 14.1267 36.9767 14.23C36.3774 15.0567 35.7677 15.8007 35.1477 16.462C34.5484 17.1233 33.8664 17.64 33.1017 18.012C32.337 18.384 31.4174 18.57 30.3427 18.57C29.8467 19.004 29.3094 19.3553 28.7307 19.624C28.152 19.8927 27.5424 20.027 26.9017 20.027ZM28.6997 11.998C28.4517 12.184 28.152 12.556 27.8007 13.114C27.4494 13.672 27.129 14.2817 26.8397 14.943C26.881 15.5837 27.1394 16.1623 27.6147 16.679C28.1107 17.175 28.865 17.454 29.8777 17.516C30.6217 16.7927 31.221 15.9453 31.6757 14.974C32.1304 13.982 32.3577 13.0933 32.3577 12.308C32.3577 11.7707 32.2337 11.3367 31.9857 11.006C31.7377 10.6753 31.345 10.51 30.8077 10.51C30.4357 10.51 30.074 10.572 29.7227 10.696C29.3714 10.82 29.051 10.9853 28.7617 11.192C28.865 11.2953 28.9167 11.4193 28.9167 11.564C28.9167 11.7293 28.8444 11.874 28.6997 11.998ZM26.0647 17.857C26.0647 18.1877 26.1267 18.4563 26.2507 18.663C26.3954 18.849 26.6124 18.942 26.9017 18.942C27.501 18.942 28.1107 18.756 28.7307 18.384C28.1314 18.2393 27.625 18.012 27.2117 17.702C26.7984 17.3713 26.478 16.9993 26.2507 16.586C26.1267 17.082 26.0647 17.5057 26.0647 17.857ZM36.6786 19.965C35.9346 19.965 35.4076 19.779 35.0976 19.407C34.7876 19.0143 34.6326 18.5183 34.6326 17.919C34.6326 17.3197 34.7566 16.6377 35.0046 15.873C35.2732 15.0877 35.6039 14.3127 35.9966 13.548C36.5752 12.432 37.2056 11.2333 37.8876 9.952C38.5902 8.67067 39.4169 7.35833 40.3676 6.015C40.6776 5.581 41.0496 5.06433 41.4836 4.465C41.9382 3.845 42.4446 3.23533 43.0026 2.636C43.5812 2.03667 44.2012 1.54067 44.8626 1.148C45.5239 0.734666 46.2059 0.527999 46.9086 0.527999C47.4872 0.527999 47.8902 0.651999 48.1176 0.899999C48.3656 1.148 48.4896 1.47867 48.4896 1.892C48.4896 2.28467 48.3966 2.73933 48.2106 3.256C48.0246 3.77267 47.7766 4.31 47.4666 4.868C47.0119 5.69467 46.3816 6.59367 45.5756 7.565C44.7902 8.51567 43.9016 9.46633 42.9096 10.417C41.9176 11.347 40.8946 12.1943 39.8406 12.959C38.7866 13.703 37.7739 14.2713 36.8026 14.664C36.5339 15.2633 36.3169 15.842 36.1516 16.4C36.0069 16.958 35.9346 17.4333 35.9346 17.826C35.9346 18.508 36.2032 18.849 36.7406 18.849C37.4432 18.849 38.1046 18.601 38.7246 18.105C39.3446 17.5883 39.8819 16.9477 40.3366 16.183C40.8119 15.3977 41.1529 14.6227 41.3596 13.858C41.2976 13.734 41.2666 13.61 41.2666 13.486C41.2666 13.238 41.3596 13.021 41.5456 12.835C41.7522 12.649 41.9589 12.556 42.1656 12.556C42.3516 12.556 42.5066 12.6387 42.6306 12.804C42.7752 12.9693 42.8269 13.2587 42.7856 13.672C42.9096 13.7547 43.0129 13.796 43.0956 13.796C43.1576 13.8167 43.2196 13.8373 43.2816 13.858C43.3436 13.858 43.4056 13.858 43.4676 13.858C43.9429 13.858 44.3976 13.7133 44.8316 13.424C45.2862 13.1347 45.5962 12.9177 45.7616 12.773C45.9889 12.5663 46.1956 12.463 46.3816 12.463C46.5882 12.463 46.6916 12.5767 46.6916 12.804C46.6916 12.9487 46.6399 13.114 46.5366 13.3C46.4539 13.4653 46.2989 13.6513 46.0716 13.858C45.3069 14.5607 44.3356 14.912 43.1576 14.912C42.9922 14.912 42.8372 14.9017 42.6926 14.881C42.5686 14.8397 42.4446 14.7983 42.3206 14.757C42.0312 15.563 41.6076 16.369 41.0496 17.175C40.5122 17.981 39.8716 18.6527 39.1276 19.19C38.3836 19.7067 37.5672 19.965 36.6786 19.965ZM40.8326 7.565C40.4606 8.08167 40.0679 8.67067 39.6546 9.332C39.2619 9.99333 38.8796 10.665 38.5076 11.347C38.1356 12.0083 37.8152 12.6077 37.5466 13.145C38.3939 12.649 39.2516 12.0497 40.1196 11.347C41.0082 10.6443 41.8556 9.89 42.6616 9.084C43.4676 8.25733 44.2012 7.42033 44.8626 6.573C45.5239 5.705 46.0716 4.88867 46.5056 4.124C47.0016 3.256 47.2496 2.59467 47.2496 2.14C47.2496 1.78867 47.0842 1.613 46.7536 1.613C46.2576 1.613 45.7202 1.85067 45.1416 2.326C44.5836 2.78067 44.0256 3.349 43.4676 4.031C42.9096 4.69233 42.3929 5.35367 41.9176 6.015C41.4629 6.65567 41.1012 7.17233 40.8326 7.565ZM48.5552 19.965C47.9145 19.965 47.3669 19.7687 46.9122 19.376C46.4782 18.9833 46.2612 18.3013 46.2612 17.33C46.2612 16.6687 46.4265 15.8937 46.7572 15.005C47.1085 14.1163 47.5735 13.2587 48.1522 12.432C48.7309 11.5847 49.3715 10.8923 50.0742 10.355C50.7769 9.797 51.4899 9.518 52.2132 9.518C52.6885 9.518 53.0399 9.69367 53.2672 10.045C53.5152 10.3757 53.6392 10.7787 53.6392 11.254C53.6392 11.9567 53.4119 12.6387 52.9572 13.3C52.5025 13.9613 51.9239 14.4987 51.2212 14.912C50.5392 15.3253 49.8572 15.532 49.1752 15.532C48.6172 15.532 48.1935 15.3563 47.9042 15.005C47.7389 15.4183 47.6045 15.8213 47.5012 16.214C47.3979 16.6067 47.3462 16.9787 47.3462 17.33C47.3462 17.9293 47.4702 18.353 47.7182 18.601C47.9869 18.8283 48.3175 18.942 48.7102 18.942C49.1855 18.942 49.7125 18.818 50.2912 18.57C50.8905 18.322 51.4485 18.0327 51.9652 17.702C52.4819 17.3507 52.8642 17.0613 53.1122 16.834C53.5255 16.4827 53.9182 16.1003 54.2902 15.687C54.6829 15.253 55.0239 14.85 55.3132 14.478C55.4165 14.354 55.5302 14.292 55.6542 14.292C55.7782 14.292 55.8815 14.354 55.9642 14.478C56.0675 14.5813 56.1192 14.7157 56.1192 14.881C56.1192 15.0257 56.0675 15.1703 55.9642 15.315C55.6335 15.7283 55.2202 16.2037 54.7242 16.741C54.2489 17.2577 53.7115 17.7433 53.1122 18.198C52.7815 18.4667 52.3579 18.7353 51.8412 19.004C51.3245 19.2727 50.7769 19.5 50.1982 19.686C49.6402 19.872 49.0925 19.965 48.5552 19.965ZM49.1132 14.54C49.5265 14.54 49.9709 14.4057 50.4462 14.137C50.9422 13.8683 51.3762 13.517 51.7482 13.083C52.1409 12.6283 52.3992 12.1427 52.5232 11.626C52.5439 11.5847 52.5542 11.533 52.5542 11.471C52.5542 11.409 52.5542 11.3573 52.5542 11.316C52.5542 10.944 52.4199 10.758 52.1512 10.758C51.7172 10.758 51.2625 10.9233 50.7872 11.254C50.3119 11.564 49.8572 11.9877 49.4232 12.525C49.0099 13.0417 48.6379 13.61 48.3072 14.23C48.3899 14.292 48.4725 14.354 48.5552 14.416C48.6379 14.4573 48.7205 14.4883 48.8032 14.509C48.8445 14.5297 48.8962 14.54 48.9582 14.54C49.0202 14.54 49.0719 14.54 49.1132 14.54ZM60.3207 19.314C59.9487 19.314 59.6387 19.2107 59.3907 19.004C59.1633 18.7973 59.0497 18.508 59.0497 18.136C59.0497 17.3507 59.246 16.5653 59.6387 15.78C60.0313 14.974 60.4757 14.1887 60.9717 13.424C61.4883 12.6387 61.912 11.9153 62.2427 11.254C61.912 11.4813 61.54 11.6467 61.1267 11.75C60.7133 11.8533 60.3103 11.905 59.9177 11.905C59.3597 11.905 58.9257 11.8327 58.6157 11.688C58.223 12.37 57.7683 13.0623 57.2517 13.765C56.735 14.447 56.2287 15.067 55.7327 15.625C55.2573 16.183 54.8543 16.6067 54.5237 16.896C54.379 17.02 54.2343 17.082 54.0897 17.082C53.945 17.082 53.821 17.0303 53.7177 16.927C53.6143 16.8237 53.5627 16.71 53.5627 16.586C53.5627 16.4827 53.604 16.3897 53.6867 16.307C54.0587 15.9143 54.4927 15.408 54.9887 14.788C55.5053 14.168 56.0117 13.5067 56.5077 12.804C57.0243 12.1013 57.448 11.4503 57.7787 10.851C57.758 10.4377 57.8097 9.97267 57.9337 9.456C58.0783 8.93933 58.2643 8.44333 58.4917 7.968C58.7397 7.49267 59.0083 7.1 59.2977 6.79C59.587 6.45933 59.8867 6.294 60.1967 6.294C60.5273 6.294 60.6927 6.49033 60.6927 6.883C60.6927 7.21367 60.5893 7.63733 60.3827 8.154C60.1967 8.67067 59.9693 9.177 59.7007 9.673C59.4527 10.1483 59.2357 10.541 59.0497 10.851C59.3183 10.9337 59.5973 10.975 59.8867 10.975C60.3827 10.975 60.8167 10.882 61.1887 10.696C61.5607 10.4893 61.8913 10.293 62.1807 10.107C62.47 9.90033 62.718 9.797 62.9247 9.797C63.1933 9.797 63.369 9.86933 63.4517 10.014C63.555 10.138 63.6067 10.3033 63.6067 10.51C63.6067 10.9027 63.5033 11.3367 63.2967 11.812C63.09 12.2667 62.935 12.556 62.8317 12.68C62.687 12.9073 62.47 13.2483 62.1807 13.703C61.8913 14.137 61.602 14.602 61.3127 15.098C61.0233 15.594 60.7857 16.0693 60.5997 16.524C60.517 16.7513 60.4343 16.989 60.3517 17.237C60.2897 17.4643 60.2587 17.6607 60.2587 17.826C60.2587 18.0947 60.3723 18.229 60.5997 18.229C60.8063 18.229 61.106 18.1257 61.4987 17.919C61.9947 17.6503 62.4493 17.3093 62.8627 16.896C63.2967 16.462 63.6687 16.09 63.9787 15.78C63.9993 15.7593 64.0923 15.656 64.2577 15.47C64.4437 15.284 64.6193 15.098 64.7847 14.912C64.9707 14.726 65.0637 14.633 65.0637 14.633C65.1463 14.5297 65.2497 14.478 65.3737 14.478C65.477 14.478 65.57 14.54 65.6527 14.664C65.756 14.7673 65.8077 14.9017 65.8077 15.067C65.8077 15.253 65.756 15.408 65.6527 15.532C65.3427 15.966 64.919 16.4413 64.3817 16.958C63.8443 17.4747 63.369 17.8983 62.9557 18.229C62.5217 18.5597 62.0773 18.8283 61.6227 19.035C61.1887 19.221 60.7547 19.314 60.3207 19.314ZM67.3068 19.81C66.1701 19.81 65.6018 19.2417 65.6018 18.105C65.6018 17.6297 65.7051 17.0923 65.9118 16.493C66.2218 15.5837 66.6868 14.602 67.3068 13.548C67.9475 12.494 68.5985 11.4813 69.2598 10.51H68.1438C67.9785 10.51 67.8441 10.4583 67.7408 10.355C67.6581 10.231 67.6168 10.0967 67.6168 9.952C67.6168 9.828 67.6581 9.71433 67.7408 9.611C67.8441 9.487 67.9785 9.425 68.1438 9.425H70.0348C70.2621 9.13567 70.4688 8.85667 70.6548 8.588C70.8408 8.29867 71.0268 8.01967 71.2128 7.751C71.5021 7.007 71.8535 6.294 72.2668 5.612C72.7008 4.93 73.2278 4.38233 73.8478 3.969C73.9511 3.907 74.0441 3.876 74.1268 3.876C74.2921 3.876 74.4368 3.95867 74.5608 4.124C74.6848 4.26867 74.7468 4.434 74.7468 4.62C74.7468 4.76467 74.6951 4.91967 74.5918 5.085C74.5298 5.16767 74.3335 5.426 74.0028 5.86C73.6721 6.294 73.2795 6.83133 72.8248 7.472C72.3701 8.092 71.8948 8.743 71.3988 9.425H74.3748C74.5608 9.425 74.6951 9.487 74.7778 9.611C74.8605 9.71433 74.9018 9.828 74.9018 9.952C74.9018 10.0967 74.8605 10.231 74.7778 10.355C74.6951 10.4583 74.5608 10.51 74.3748 10.51H70.6548L70.3758 10.944C70.1898 11.2127 69.9108 11.6467 69.5388 12.246C69.1875 12.8453 68.8051 13.5067 68.3918 14.23C67.9991 14.9533 67.6581 15.656 67.3688 16.338C67.1001 16.9993 66.9658 17.547 66.9658 17.981C66.9658 18.4977 67.1828 18.756 67.6168 18.756C67.9681 18.756 68.4951 18.5907 69.1978 18.26C69.9211 17.9087 70.6341 17.4333 71.3368 16.834C71.7501 16.4827 72.1325 16.1107 72.4838 15.718C72.8351 15.3253 73.1658 14.9637 73.4758 14.633C73.5585 14.5297 73.6618 14.478 73.7858 14.478C73.8891 14.478 73.9821 14.54 74.0648 14.664C74.1681 14.7673 74.2198 14.9017 74.2198 15.067C74.2198 15.253 74.1681 15.408 74.0648 15.532C73.7548 15.966 73.3208 16.4517 72.7628 16.989C72.2255 17.5057 71.7501 17.919 71.3368 18.229C70.5515 18.8077 69.7041 19.2417 68.7948 19.531C68.2368 19.717 67.7408 19.81 67.3068 19.81ZM83.2013 26.258C82.168 26.258 81.207 26.0823 80.3183 25.731C79.4297 25.4003 78.7167 24.9043 78.1793 24.243C77.6627 23.6023 77.4043 22.8273 77.4043 21.918C77.4043 20.926 77.6833 20.0683 78.2413 19.345C78.7993 18.6217 79.5227 18.012 80.4113 17.516C81.3 17.02 82.261 16.617 83.2943 16.307C84.3483 15.997 85.3713 15.7593 86.3633 15.594C87.3553 15.4287 88.213 15.3253 88.9363 15.284C89.0603 15.284 89.236 15.284 89.4633 15.284C89.7113 15.2633 90.0007 15.253 90.3313 15.253C91.034 15.253 91.871 15.2737 92.8423 15.315C93.8343 15.3563 94.7747 15.439 95.6633 15.563C96.3453 14.2403 96.9447 12.897 97.4613 11.533C97.9987 10.169 98.536 8.82567 99.0733 7.503C99.6313 6.15967 100.293 4.87833 101.057 3.659C100.086 3.74167 99.1147 3.845 98.1433 3.969C97.172 4.07233 96.2317 4.32033 95.3223 4.713C93.4417 5.519 92.057 6.45933 91.1683 7.534C90.2797 8.60867 89.7837 9.56967 89.6803 10.417C89.6597 10.5203 89.6493 10.6237 89.6493 10.727C89.6493 10.8097 89.6493 10.8923 89.6493 10.975C89.6493 11.6157 89.794 12.091 90.0833 12.401C90.3933 12.6903 90.7757 12.835 91.2303 12.835C91.7677 12.835 92.3257 12.6593 92.9043 12.308C93.5037 11.9567 94.0307 11.4813 94.4853 10.882C94.94 10.262 95.1983 9.58 95.2603 8.836V8.557C95.2603 8.35033 95.2397 8.216 95.1983 8.154C95.1777 8.07133 95.1467 8.01967 95.1053 7.999C94.878 7.85433 94.7643 7.69933 94.7643 7.534C94.7643 7.38933 94.8367 7.26533 94.9813 7.162C95.126 7.05867 95.281 7.007 95.4463 7.007C95.6737 7.007 95.8907 7.12067 96.0973 7.348C96.304 7.55467 96.4073 7.92667 96.4073 8.464C96.4073 9.53867 96.1283 10.4893 95.5703 11.316C95.0123 12.1427 94.32 12.7833 93.4933 13.238C92.6873 13.6927 91.902 13.92 91.1373 13.92C90.414 13.92 89.794 13.6927 89.2773 13.238C88.7607 12.7627 88.5023 12.0187 88.5023 11.006C88.5023 10.882 88.5023 10.758 88.5023 10.634C88.523 10.51 88.5437 10.386 88.5643 10.262C88.709 9.16667 89.298 8.00933 90.3313 6.79C91.3647 5.55 92.8837 4.51667 94.8883 3.69C96.0043 3.21467 97.1617 2.92533 98.3603 2.822C99.5797 2.71867 100.789 2.59467 101.987 2.45C102.297 2.16067 102.628 1.923 102.979 1.737C103.351 1.551 103.723 1.458 104.095 1.458C104.385 1.458 104.612 1.53033 104.777 1.675C104.943 1.81967 105.025 1.99533 105.025 2.202C105.025 2.45 104.86 2.698 104.529 2.946C104.219 3.194 103.672 3.36967 102.886 3.473C102.742 3.49367 102.597 3.51433 102.452 3.535C102.08 4.031 101.688 4.67167 101.274 5.457C100.861 6.22167 100.479 6.99667 100.127 7.782C99.466 9.27 98.8977 10.665 98.4223 11.967C97.947 13.269 97.4097 14.5297 96.8103 15.749C97.3063 15.873 97.73 16.0177 98.0813 16.183C98.4533 16.3277 98.7013 16.5033 98.8253 16.71C98.908 16.8547 98.9493 16.9993 98.9493 17.144C98.9493 17.4127 98.8253 17.547 98.5773 17.547C98.3707 17.547 98.1743 17.4643 97.9883 17.299C97.9263 17.2577 97.7403 17.1957 97.4303 17.113C97.141 17.0097 96.7587 16.9063 96.2833 16.803C95.6013 18.043 94.8263 19.2313 93.9583 20.368C93.0903 21.5047 92.119 22.5173 91.0443 23.406C89.9903 24.2947 88.8123 24.987 87.5103 25.483C86.2083 25.9997 84.772 26.258 83.2013 26.258ZM78.5203 21.918C78.5203 22.8067 78.9337 23.561 79.7603 24.181C80.6077 24.8217 81.7547 25.142 83.2013 25.142C85.082 25.142 86.756 24.739 88.2233 23.933C89.7113 23.1477 91.0237 22.104 92.1603 20.802C93.297 19.5207 94.2787 18.1153 95.1053 16.586H95.0743C94.4543 16.5033 93.8137 16.4413 93.1523 16.4C92.491 16.3587 91.8297 16.338 91.1683 16.338C89.6597 16.338 88.1407 16.4517 86.6113 16.679C85.1027 16.9063 83.6973 17.2887 82.3953 17.826C81.2587 18.2807 80.3287 18.8387 79.6053 19.5C78.882 20.182 78.5203 20.988 78.5203 21.918ZM103.172 19.655C102.593 19.655 102.159 19.4897 101.87 19.159C101.601 18.8077 101.467 18.3737 101.467 17.857C101.467 17.2783 101.632 16.6067 101.963 15.842C102.314 15.0567 102.769 14.2507 103.327 13.424C103.885 12.5973 104.495 11.8327 105.156 11.13C105.838 10.4067 106.52 9.828 107.202 9.394C107.884 8.93933 108.514 8.712 109.093 8.712C109.486 8.712 109.868 8.774 110.24 8.898C110.612 9.00133 110.912 9.21833 111.139 9.549C111.387 9.87967 111.511 10.3653 111.511 11.006C111.511 11.2333 111.449 11.3987 111.325 11.502C111.201 11.6053 111.087 11.657 110.984 11.657C110.757 11.657 110.643 11.5743 110.643 11.409C110.54 10.7477 110.323 10.3137 109.992 10.107C109.682 9.90033 109.382 9.797 109.093 9.797C108.68 9.797 108.194 10.0037 107.636 10.417C107.078 10.8303 106.51 11.3573 105.931 11.998C105.352 12.6387 104.805 13.331 104.288 14.075C103.792 14.7983 103.389 15.501 103.079 16.183C102.769 16.8443 102.614 17.392 102.614 17.826C102.614 18.0327 102.645 18.2187 102.707 18.384C102.79 18.5493 102.914 18.632 103.079 18.632C103.389 18.632 103.792 18.4667 104.288 18.136C104.784 17.8053 105.311 17.3817 105.869 16.865C106.448 16.3277 107.016 15.7697 107.574 15.191C108.132 14.6123 108.638 14.0647 109.093 13.548C109.548 13.0313 109.899 12.618 110.147 12.308C110.271 12.122 110.426 12.029 110.612 12.029C110.757 12.029 110.891 12.0807 111.015 12.184C111.139 12.2873 111.201 12.4217 111.201 12.587C111.201 12.6697 111.17 12.7627 111.108 12.866C110.963 13.0933 110.788 13.4137 110.581 13.827C110.395 14.2403 110.199 14.6847 109.992 15.16C109.806 15.6353 109.641 16.0797 109.496 16.493C109.372 16.8857 109.31 17.1853 109.31 17.392C109.31 17.5987 109.382 17.702 109.527 17.702C109.63 17.702 109.754 17.6503 109.899 17.547C110.064 17.4437 110.209 17.3507 110.333 17.268C110.829 16.8547 111.304 16.4207 111.759 15.966C112.214 15.4907 112.627 15.0463 112.999 14.633C113.082 14.5297 113.185 14.478 113.309 14.478C113.412 14.478 113.505 14.54 113.588 14.664C113.691 14.7673 113.743 14.9017 113.743 15.067C113.743 15.253 113.691 15.408 113.588 15.532C113.257 15.966 112.823 16.4517 112.286 16.989C111.749 17.5057 111.273 17.919 110.86 18.229C110.591 18.415 110.271 18.601 109.899 18.787C109.548 18.9523 109.207 19.035 108.876 19.035C108.628 19.035 108.421 18.9627 108.256 18.818C108.091 18.6527 108.008 18.3737 108.008 17.981C108.008 17.671 108.06 17.3197 108.163 16.927C108.266 16.5343 108.39 16.1313 108.535 15.718C107.956 16.338 107.336 16.9477 106.675 17.547C106.014 18.1463 105.373 18.6527 104.753 19.066C104.154 19.4587 103.627 19.655 103.172 19.655ZM112.595 20.244C112.43 20.244 112.275 20.182 112.13 20.058C111.986 19.9547 111.913 19.8307 111.913 19.686C111.913 19.6447 111.913 19.6033 111.913 19.562C111.934 19.5207 111.955 19.4793 111.975 19.438C112.389 18.5493 112.781 17.7847 113.153 17.144C113.525 16.5033 113.825 15.9557 114.052 15.501C114.466 14.7157 114.755 14.0647 114.92 13.548C115.106 13.0313 115.199 12.556 115.199 12.122C115.199 11.9773 115.179 11.843 115.137 11.719C115.117 11.595 115.106 11.4607 115.106 11.316C115.106 11.0267 115.189 10.7993 115.354 10.634C115.54 10.4687 115.737 10.386 115.943 10.386C116.233 10.386 116.419 10.5513 116.501 10.882C116.563 11.13 116.594 11.409 116.594 11.719C116.594 11.843 116.584 11.9773 116.563 12.122C116.563 12.2667 116.553 12.4113 116.532 12.556C116.822 12.1633 117.09 11.812 117.338 11.502C117.586 11.192 117.803 10.9337 117.989 10.727C118.382 10.3137 118.816 9.97267 119.291 9.704C119.787 9.43533 120.242 9.301 120.655 9.301C121.069 9.301 121.41 9.456 121.678 9.766C121.947 10.076 122.081 10.603 122.081 11.347C122.081 11.8637 122.03 12.4113 121.926 12.99C121.823 13.5687 121.689 14.1577 121.523 14.757C122.164 14.0543 122.815 13.455 123.476 12.959C124.138 12.463 124.737 12.06 125.274 11.75C126.06 11.316 126.628 11.099 126.979 11.099C127.372 11.099 127.568 11.3263 127.568 11.781C127.568 11.967 127.537 12.2047 127.475 12.494C127.413 12.7833 127.3 13.114 127.134 13.486L125.894 16.524C125.812 16.7513 125.729 16.9787 125.646 17.206C125.584 17.4333 125.553 17.6297 125.553 17.795C125.553 18.0843 125.677 18.229 125.925 18.229C126.132 18.229 126.442 18.1257 126.855 17.919C127.331 17.6503 127.785 17.3093 128.219 16.896C128.653 16.462 129.015 16.09 129.304 15.78C129.325 15.7593 129.418 15.656 129.583 15.47C129.769 15.284 129.945 15.098 130.11 14.912C130.296 14.726 130.4 14.633 130.42 14.633C130.503 14.5297 130.606 14.478 130.73 14.478C130.834 14.478 130.927 14.54 131.009 14.664C131.113 14.7673 131.164 14.9017 131.164 15.067C131.164 15.253 131.113 15.408 131.009 15.532C130.679 15.966 130.245 16.4413 129.707 16.958C129.191 17.4747 128.726 17.8983 128.312 18.229C127.878 18.5597 127.393 18.88 126.855 19.19C126.318 19.5 125.832 19.655 125.398 19.655C125.026 19.655 124.727 19.562 124.499 19.376C124.272 19.1693 124.179 18.7767 124.22 18.198C124.262 17.8673 124.375 17.4437 124.561 16.927C124.747 16.3897 124.954 15.8317 125.181 15.253C125.429 14.6743 125.657 14.1267 125.863 13.61C126.07 13.0933 126.215 12.68 126.297 12.37C125.533 12.804 124.654 13.4033 123.662 14.168C122.67 14.912 121.689 15.904 120.717 17.144C120.614 17.4127 120.5 17.6813 120.376 17.95C120.273 18.198 120.159 18.4563 120.035 18.725C119.953 18.9317 119.787 19.035 119.539 19.035C119.374 19.035 119.229 18.9627 119.105 18.818C118.981 18.6733 118.961 18.4977 119.043 18.291C119.601 17.0303 120.046 15.811 120.376 14.633C120.707 13.455 120.872 12.3907 120.872 11.44C120.872 10.758 120.697 10.417 120.345 10.417C120.139 10.417 119.891 10.5203 119.601 10.727C119.333 10.9337 119.064 11.1817 118.795 11.471C118.465 11.8223 117.989 12.37 117.369 13.114C116.77 13.8373 116.16 14.6123 115.54 15.439L115.416 15.687C115.148 16.245 114.838 16.834 114.486 17.454C114.135 18.0533 113.763 18.7973 113.37 19.686C113.288 19.8927 113.174 20.0373 113.029 20.12C112.885 20.2027 112.74 20.244 112.595 20.244ZM132.14 19.965C131.499 19.965 130.952 19.7687 130.497 19.376C130.063 18.9833 129.846 18.3013 129.846 17.33C129.846 16.6687 130.011 15.8937 130.342 15.005C130.693 14.1163 131.158 13.2587 131.737 12.432C132.316 11.5847 132.956 10.8923 133.659 10.355C134.362 9.797 135.075 9.518 135.798 9.518C136.273 9.518 136.625 9.69367 136.852 10.045C137.1 10.3757 137.224 10.7787 137.224 11.254C137.224 11.9567 136.997 12.6387 136.542 13.3C136.087 13.9613 135.509 14.4987 134.806 14.912C134.124 15.3253 133.442 15.532 132.76 15.532C132.202 15.532 131.778 15.3563 131.489 15.005C131.324 15.4183 131.189 15.8213 131.086 16.214C130.983 16.6067 130.931 16.9787 130.931 17.33C130.931 17.9293 131.055 18.353 131.303 18.601C131.572 18.8283 131.902 18.942 132.295 18.942C132.77 18.942 133.297 18.818 133.876 18.57C134.475 18.322 135.033 18.0327 135.55 17.702C136.067 17.3507 136.449 17.0613 136.697 16.834C137.11 16.4827 137.503 16.1003 137.875 15.687C138.268 15.253 138.609 14.85 138.898 14.478C139.001 14.354 139.115 14.292 139.239 14.292C139.363 14.292 139.466 14.354 139.549 14.478C139.652 14.5813 139.704 14.7157 139.704 14.881C139.704 15.0257 139.652 15.1703 139.549 15.315C139.218 15.7283 138.805 16.2037 138.309 16.741C137.834 17.2577 137.296 17.7433 136.697 18.198C136.366 18.4667 135.943 18.7353 135.426 19.004C134.909 19.2727 134.362 19.5 133.783 19.686C133.225 19.872 132.677 19.965 132.14 19.965ZM132.698 14.54C133.111 14.54 133.556 14.4057 134.031 14.137C134.527 13.8683 134.961 13.517 135.333 13.083C135.726 12.6283 135.984 12.1427 136.108 11.626C136.129 11.5847 136.139 11.533 136.139 11.471C136.139 11.409 136.139 11.3573 136.139 11.316C136.139 10.944 136.005 10.758 135.736 10.758C135.302 10.758 134.847 10.9233 134.372 11.254C133.897 11.564 133.442 11.9877 133.008 12.525C132.595 13.0417 132.223 13.61 131.892 14.23C131.975 14.292 132.057 14.354 132.14 14.416C132.223 14.4573 132.305 14.4883 132.388 14.509C132.429 14.5297 132.481 14.54 132.543 14.54C132.605 14.54 132.657 14.54 132.698 14.54ZM140.465 20.523C139.7 20.523 139.121 20.3163 138.729 19.903C138.336 19.5103 138.14 19.1383 138.14 18.787C138.14 18.3323 138.367 18.105 138.822 18.105C138.925 18.105 139.028 18.1153 139.132 18.136C139.235 18.1567 139.349 18.198 139.473 18.26C139.907 18.4667 140.372 18.6217 140.868 18.725C141.384 18.8077 141.88 18.8593 142.356 18.88C142.542 18.8387 142.717 18.57 142.883 18.074C143.048 17.578 143.172 17.1027 143.255 16.648C143.317 16.214 143.348 15.7697 143.348 15.315C143.348 14.6537 143.296 13.982 143.193 13.3C143.089 12.618 142.996 11.936 142.914 11.254C142.356 11.998 141.767 12.7523 141.147 13.517C140.527 14.261 139.948 14.943 139.411 15.563C138.873 16.183 138.419 16.6583 138.047 16.989C137.964 17.0717 137.861 17.113 137.737 17.113C137.592 17.113 137.468 17.0613 137.365 16.958C137.261 16.834 137.21 16.6997 137.21 16.555C137.21 16.369 137.282 16.214 137.427 16.09C137.613 15.904 137.912 15.5837 138.326 15.129C138.739 14.6743 139.204 14.137 139.721 13.517C140.258 12.8763 140.795 12.215 141.333 11.533C141.87 10.8303 142.366 10.169 142.821 9.549C142.841 9.34233 142.862 9.146 142.883 8.96C142.903 8.75333 142.934 8.557 142.976 8.371C143.12 7.73033 143.389 7.24467 143.782 6.914C144.195 6.56267 144.557 6.387 144.867 6.387C145.239 6.387 145.425 6.58333 145.425 6.976C145.425 7.26533 145.27 7.689 144.96 8.247C144.815 8.47433 144.66 8.72233 144.495 8.991C144.329 9.239 144.143 9.50767 143.937 9.797C143.937 10.5823 144.009 11.3987 144.154 12.246C144.298 13.0727 144.381 13.6927 144.402 14.106C144.422 14.3127 144.433 14.5193 144.433 14.726C144.453 14.9327 144.464 15.1497 144.464 15.377C144.464 15.9557 144.412 16.5343 144.309 17.113C144.226 17.6917 144.05 18.2187 143.782 18.694C144.34 18.4873 144.918 18.2187 145.518 17.888C146.117 17.5367 146.634 17.1647 147.068 16.772C147.481 16.4207 147.863 16.0487 148.215 15.656C148.566 15.2633 148.897 14.9017 149.207 14.571C149.289 14.4677 149.393 14.416 149.517 14.416C149.62 14.416 149.713 14.478 149.796 14.602C149.899 14.7053 149.951 14.8397 149.951 15.005C149.951 15.191 149.899 15.346 149.796 15.47C149.486 15.904 149.052 16.3897 148.494 16.927C147.956 17.4437 147.481 17.857 147.068 18.167C146.53 18.5597 145.869 18.911 145.084 19.221C144.298 19.531 143.492 19.7583 142.666 19.903C142.252 20.151 141.767 20.337 141.209 20.461C141.064 20.4817 140.93 20.492 140.806 20.492C140.682 20.5127 140.568 20.523 140.465 20.523Z" fill="#FFA415"/>
</svg>
