<svg width="109" height="63" viewBox="0 0 109 63" fill="none" xmlns="http://www.w3.org/2000/svg">
<path d="M47.1229 0H56.1217L52.5096 10.0943C46.152 11.2115 41.2894 17.3625 41.2894 24.783C41.2894 28.1305 42.279 31.2197 43.9489 33.7049H32L42.9236 3.17808C43.6104 1.25863 45.2735 0 47.1229 0Z" fill="#E9352B"/>
<path d="M56.1219 0L53.5833 7.09426L52.8184 0H56.1219Z" fill="black" fill-opacity="0.1"/>
<path d="M61.8172 0H52.8184L56.4153 10.0517C62.8994 11.0452 67.8945 17.262 67.8945 24.783C67.8945 28.1305 66.9049 31.2197 65.235 33.7049H76.9401L66.0165 3.17809C65.3297 1.25863 63.6666 0 61.8172 0Z" fill="#FF594F"/>
<path d="M45.5183 32.7331C43.9805 30.5431 43.0635 27.7826 43.0635 24.7826C43.0635 17.6652 48.2251 11.8955 54.5922 11.8955C60.9594 11.8955 66.121 17.6652 66.121 24.7826C66.121 27.7826 65.204 30.5431 63.6662 32.7331C61.1417 30.8537 57.9989 29.7392 54.5922 29.7392C51.1856 29.7392 48.0428 30.8537 45.5183 32.7331Z" fill="#FF594F"/>
<path d="M10.8263 56.7051V52.7164H4.25506V56.7051H1.67251V47.1406H4.25506V50.6211H10.8263V47.1406H13.4089V56.7051H10.8263ZM18.9429 47.1406V52.5284C18.9429 52.8858 18.9731 53.2106 19.0334 53.503C19.0937 53.7907 19.2051 54.039 19.3675 54.2478C19.5299 54.452 19.7573 54.6121 20.0497 54.7281C20.3421 54.8395 20.7226 54.8952 21.1913 54.8952C21.544 54.8952 21.913 54.8465 22.2981 54.749C22.688 54.6516 23.0731 54.5216 23.4537 54.3592C23.8342 54.1968 24.1962 54.0111 24.5396 53.8023C24.8876 53.5888 25.1986 53.3684 25.4724 53.141V47.1406H28.048V56.7051H25.4724V55.3964C25.1475 55.582 24.8018 55.77 24.4352 55.9602C24.0686 56.1459 23.6787 56.3153 23.2657 56.4684C22.8527 56.6169 22.4141 56.7376 21.9501 56.8304C21.486 56.9278 20.9964 56.9766 20.4813 56.9766C19.8362 56.9766 19.2585 56.8977 18.748 56.7399C18.2375 56.5867 17.8059 56.3686 17.4532 56.0855C17.1005 55.7978 16.8291 55.4521 16.6388 55.0483C16.4532 54.64 16.3603 54.1852 16.3603 53.684V47.1406H18.9429ZM33.6307 47.1406V48.1917C33.8581 48.0478 34.1041 47.8993 34.3686 47.7462C34.6378 47.593 34.9278 47.4538 35.2387 47.3285C35.5543 47.2032 35.8908 47.1011 36.2481 47.0222C36.6101 46.9387 36.9999 46.8969 37.4176 46.8969C37.8259 46.8969 38.1833 46.941 38.4896 47.0292C38.7958 47.1127 39.0604 47.2241 39.2831 47.3633C39.5105 47.4979 39.7031 47.6511 39.8609 47.8228C40.0187 47.9898 40.1556 48.1569 40.2716 48.324C40.6011 48.1105 40.9259 47.9156 41.2461 47.7392C41.5663 47.5629 41.8889 47.4121 42.2137 47.2868C42.5386 47.1615 42.8704 47.0663 43.2092 47.0014C43.5479 46.9317 43.9006 46.8969 44.2672 46.8969C44.852 46.8969 45.374 46.9782 45.8335 47.1406C46.2975 47.303 46.6897 47.5258 47.0099 47.8088C47.3301 48.0919 47.5737 48.4261 47.7408 48.8112C47.9125 49.1918 47.9984 49.6002 47.9984 50.0364V56.7051H45.4158V50.4053C45.4158 50.1501 45.3764 49.9296 45.2975 49.744C45.2186 49.5584 45.1118 49.4076 44.9773 49.2915C44.8473 49.1755 44.6919 49.0897 44.5109 49.034C44.3345 48.9783 44.1466 48.9505 43.947 48.9505C43.0189 48.9505 41.9608 49.3681 40.7728 50.2034C40.7867 50.2823 40.796 50.3752 40.8006 50.4819C40.8099 50.5886 40.8146 50.6954 40.8146 50.8021V56.7051H38.232V50.3496C38.232 50.0944 38.1926 49.8786 38.1137 49.7023C38.0348 49.5213 37.9257 49.3751 37.7865 49.2637C37.6519 49.1523 37.4941 49.0734 37.3131 49.027C37.1368 48.976 36.9488 48.9505 36.7493 48.9505C36.508 48.9505 36.2527 48.9853 35.9836 49.0549C35.7191 49.1245 35.4499 49.2219 35.1761 49.3472C34.9069 49.4725 34.6401 49.621 34.3756 49.7927C34.1157 49.9645 33.8674 50.1501 33.6307 50.3496V56.7051H31.0482V47.1406H33.6307ZM59.0665 56.7051V55.7653C58.737 55.9463 58.3819 56.1064 58.0014 56.2456C57.6255 56.3849 57.2334 56.5032 56.825 56.6007C56.4166 56.6981 55.9943 56.77 55.5581 56.8165C55.1265 56.8675 54.6903 56.893 54.2494 56.893C53.7343 56.893 53.2354 56.8443 52.7528 56.7468C52.2748 56.6494 51.8502 56.4916 51.4789 56.2735C51.1076 56.0554 50.8083 55.77 50.5809 55.4173C50.3582 55.0646 50.2468 54.633 50.2468 54.1225C50.2468 53.4775 50.4231 52.9415 50.7758 52.5145C51.1285 52.0829 51.6668 51.7302 52.3908 51.4564C53.1147 51.1826 54.029 50.9715 55.1335 50.823C56.2426 50.6745 57.5536 50.5585 59.0665 50.4749V50.2731C59.0665 50.1153 59.0247 49.9598 58.9412 49.8067C58.8576 49.6489 58.7045 49.512 58.4817 49.396C58.2636 49.2753 57.962 49.1779 57.5768 49.1036C57.1962 49.0293 56.709 48.9922 56.115 48.9922C55.6463 48.9922 55.1822 49.0177 54.7228 49.0688C54.268 49.1152 53.8271 49.1802 53.4002 49.2637C52.9778 49.3472 52.5764 49.4447 52.1959 49.5561C51.8153 49.6674 51.4696 49.7835 51.1587 49.9041V47.607C51.4835 47.5234 51.8478 47.4422 52.2516 47.3633C52.6553 47.2844 53.0753 47.2172 53.5115 47.1615C53.9478 47.1011 54.3886 47.0547 54.8341 47.0222C55.2796 46.9851 55.7066 46.9666 56.115 46.9666C56.9178 46.9666 57.658 47.0338 58.3355 47.1684C59.0131 47.2984 59.5955 47.5026 60.0828 47.781C60.5747 48.0594 60.9575 48.4121 61.2313 48.8391C61.5098 49.266 61.649 49.7742 61.649 50.3636V56.7051H59.0665ZM59.0665 52.3405C58.0733 52.3776 57.2287 52.431 56.5326 52.5006C55.8412 52.5702 55.2657 52.6514 54.8063 52.7442C54.3469 52.837 53.9849 52.9368 53.7204 53.0436C53.4605 53.1503 53.2656 53.2594 53.1356 53.3707C53.0057 53.4821 52.9245 53.5935 52.892 53.7049C52.8641 53.8162 52.8502 53.9183 52.8502 54.0111C52.8502 54.1225 52.8804 54.2316 52.9407 54.3383C53.001 54.4404 53.1055 54.5309 53.254 54.6098C53.4071 54.6887 53.609 54.7513 53.8596 54.7977C54.1102 54.8442 54.4257 54.8674 54.8063 54.8674C55.2286 54.8674 55.6416 54.8349 56.0454 54.7699C56.4491 54.7049 56.832 54.6168 57.1939 54.5054C57.5559 54.3894 57.8947 54.2548 58.2102 54.1016C58.5305 53.9439 58.8159 53.7768 59.0665 53.6004V52.3405ZM73.7125 56.7051V51.3451C73.7125 50.9877 73.6824 50.6652 73.622 50.3775C73.5617 50.0851 73.448 49.8368 73.2809 49.6326C73.1185 49.4238 72.8888 49.2637 72.5918 49.1523C72.2994 49.0363 71.9212 48.9783 71.4571 48.9783C71.1044 48.9783 70.7332 49.027 70.3434 49.1245C69.9582 49.2173 69.5753 49.3426 69.1948 49.5004C68.8143 49.6582 68.45 49.8415 68.1019 50.0503C67.7585 50.2591 67.4522 50.4772 67.1831 50.7046V56.7051H64.6005V47.1406H67.1831V48.4493C67.5079 48.2636 67.8536 48.0803 68.2202 47.8993C68.5869 47.7137 68.9767 47.5466 69.3897 47.3981C69.8027 47.2496 70.2413 47.129 70.7053 47.0362C71.1694 46.9434 71.659 46.8969 72.1741 46.8969C72.8192 46.8969 73.3946 46.9758 73.9005 47.1336C74.411 47.2868 74.8425 47.5072 75.1952 47.7949C75.5479 48.078 75.8171 48.4237 76.0027 48.8321C76.193 49.2359 76.2881 49.6883 76.2881 50.1895V56.7051H73.7125ZM79.2466 56.7051V47.1406H81.8291V56.7051H79.2466ZM90.1894 49.2219V56.7051H87.6068V49.2219H83.5485V47.1406H94.2546V49.2219H90.1894ZM107.327 53.0296C107.327 53.6515 107.174 54.2061 106.868 54.6933C106.562 55.1806 106.126 55.5936 105.559 55.9324C104.998 56.2665 104.316 56.5218 103.513 56.6981C102.715 56.8745 101.819 56.9626 100.826 56.9626C100.39 56.9626 99.9302 56.9441 99.4476 56.9069C98.9696 56.8745 98.5009 56.8257 98.0414 56.7608C97.5866 56.7004 97.1597 56.6308 96.7606 56.5519C96.3615 56.4684 96.025 56.3779 95.7512 56.2805V54.0111C96.0482 54.1364 96.3777 54.2548 96.7397 54.3662C97.1063 54.4775 97.5031 54.5773 97.9301 54.6655C98.357 54.749 98.8141 54.8163 99.3014 54.8674C99.7933 54.9138 100.313 54.937 100.861 54.937C101.376 54.937 101.828 54.9068 102.218 54.8465C102.613 54.7861 102.954 54.7049 103.241 54.6028C103.529 54.5007 103.768 54.3847 103.958 54.2548C104.149 54.1202 104.302 53.9833 104.418 53.8441C104.534 53.7002 104.615 53.5587 104.661 53.4195C104.712 53.2802 104.738 53.1503 104.738 53.0296V52.1873C104.265 52.5354 103.701 52.8231 103.046 53.0505C102.392 53.2733 101.647 53.3847 100.812 53.3847C99.842 53.3847 99.0322 53.2918 98.3825 53.1062C97.7375 52.9159 97.22 52.6445 96.8302 52.2918C96.4404 51.9344 96.1619 51.5005 95.9949 50.99C95.8325 50.4796 95.7512 49.9041 95.7512 49.2637V47.1406H98.3477V49.0061C98.3477 49.382 98.3964 49.7162 98.4939 50.0085C98.596 50.3009 98.7538 50.5469 98.9673 50.7464C99.1854 50.9413 99.4661 51.0898 99.8095 51.1919C100.153 51.294 100.568 51.3451 101.056 51.3451C101.469 51.3451 101.858 51.294 102.225 51.1919C102.596 51.0898 102.937 50.9552 103.248 50.7882C103.559 50.6211 103.84 50.4308 104.091 50.2174C104.341 50.0039 104.557 49.7858 104.738 49.563V47.1406H107.327V53.0296Z" fill="#263238"/>
</svg>
