<svg width="95" height="79" viewBox="0 0 95 79" fill="none" xmlns="http://www.w3.org/2000/svg">
<g style="mix-blend-mode:multiply">
<path d="M4.83344 72.9834V61.3834H0.753438V58.9834H11.5534V61.3834H7.47344V72.9834H4.83344ZM13.3512 72.9834V58.9834H19.4313C20.3113 58.9834 21.0779 59.1367 21.7313 59.4434C22.3846 59.7501 22.8913 60.1834 23.2513 60.7434C23.6113 61.3034 23.7912 61.9634 23.7912 62.7234V62.9634C23.7912 63.8034 23.5913 64.4834 23.1913 65.0034C22.7913 65.5234 22.2979 65.9034 21.7113 66.1434V66.5034C22.2446 66.5301 22.6579 66.7167 22.9513 67.0634C23.2446 67.3967 23.3913 67.8434 23.3913 68.4034V72.9834H20.7513V68.7834C20.7513 68.4634 20.6646 68.2034 20.4913 68.0034C20.3313 67.8034 20.0579 67.7034 19.6713 67.7034H15.9913V72.9834H13.3512ZM15.9913 65.3034H19.1513C19.7779 65.3034 20.2646 65.1367 20.6113 64.8034C20.9713 64.4567 21.1513 64.0034 21.1513 63.4434V63.2434C21.1513 62.6834 20.9779 62.2367 20.6313 61.9034C20.2846 61.5567 19.7913 61.3834 19.1513 61.3834H15.9913V65.3034ZM31.388 73.2634C30.2413 73.2634 29.2546 73.0567 28.428 72.6434C27.6146 72.2167 26.988 71.6167 26.548 70.8434C26.1213 70.0567 25.908 69.1301 25.908 68.0634V58.9834H28.548V68.1434C28.548 68.9967 28.788 69.6701 29.268 70.1634C29.7613 70.6567 30.468 70.9034 31.388 70.9034C32.308 70.9034 33.008 70.6567 33.488 70.1634C33.9813 69.6701 34.228 68.9967 34.228 68.1434V58.9834H36.868V68.0634C36.868 69.1301 36.648 70.0567 36.208 70.8434C35.7813 71.6167 35.1546 72.2167 34.328 72.6434C33.5146 73.0567 32.5346 73.2634 31.388 73.2634ZM44.2855 73.2634C43.2055 73.2634 42.2521 73.0701 41.4255 72.6834C40.5988 72.2967 39.9521 71.7434 39.4855 71.0234C39.0188 70.3034 38.7855 69.4367 38.7855 68.4234V67.8634H41.3855V68.4234C41.3855 69.2634 41.6455 69.8967 42.1655 70.3234C42.6855 70.7367 43.3921 70.9434 44.2855 70.9434C45.1921 70.9434 45.8655 70.7634 46.3055 70.4034C46.7588 70.0434 46.9855 69.5834 46.9855 69.0234C46.9855 68.6367 46.8721 68.3234 46.6455 68.0834C46.4321 67.8434 46.1121 67.6501 45.6855 67.5034C45.2721 67.3434 44.7655 67.1967 44.1655 67.0634L43.7055 66.9634C42.7455 66.7501 41.9188 66.4834 41.2255 66.1634C40.5455 65.8301 40.0188 65.3967 39.6455 64.8634C39.2855 64.3301 39.1055 63.6367 39.1055 62.7834C39.1055 61.9301 39.3055 61.2034 39.7055 60.6034C40.1188 59.9901 40.6921 59.5234 41.4255 59.2034C42.1721 58.8701 43.0455 58.7034 44.0455 58.7034C45.0455 58.7034 45.9321 58.8767 46.7055 59.2234C47.4921 59.5567 48.1055 60.0634 48.5455 60.7434C48.9988 61.4101 49.2255 62.2501 49.2255 63.2634V63.8634H46.6255V63.2634C46.6255 62.7301 46.5188 62.3034 46.3055 61.9834C46.1055 61.6501 45.8121 61.4101 45.4255 61.2634C45.0388 61.1034 44.5788 61.0234 44.0455 61.0234C43.2455 61.0234 42.6521 61.1767 42.2655 61.4834C41.8921 61.7767 41.7055 62.1834 41.7055 62.7034C41.7055 63.0501 41.7921 63.3434 41.9655 63.5834C42.1521 63.8234 42.4255 64.0234 42.7855 64.1834C43.1455 64.3434 43.6055 64.4834 44.1655 64.6034L44.6255 64.7034C45.6255 64.9167 46.4921 65.1901 47.2255 65.5234C47.9721 65.8567 48.5521 66.2967 48.9655 66.8434C49.3788 67.3901 49.5855 68.0901 49.5855 68.9434C49.5855 69.7967 49.3655 70.5501 48.9255 71.2034C48.4988 71.8434 47.8855 72.3501 47.0855 72.7234C46.2988 73.0834 45.3655 73.2634 44.2855 73.2634ZM54.3452 72.9834V61.3834H50.2652V58.9834H61.0652V61.3834H56.9852V72.9834H54.3452ZM67.3356 72.9834V58.9834H72.2356L74.6556 71.1834H75.0156L77.4356 58.9834H82.3356V72.9834H79.7756V60.9234H79.4156L77.0156 72.9834H72.6556L70.2556 60.9234H69.8956V72.9834H67.3356ZM84.9723 72.9834V58.9834H93.9723V61.3834H87.6123V64.7234H93.4123V67.1234H87.6123V70.5834H94.0923V72.9834H84.9723Z" fill="#263238"/>
<path fill-rule="evenodd" clip-rule="evenodd" d="M50.582 1.28773C48.8637 -0.429739 46.0786 -0.429176 44.3612 1.28901L30.0275 15.6286L30.0153 15.625L29.97 15.6298C29.9887 15.6388 30.007 15.6477 30.0249 15.6566C27.5105 15.92 26.4437 16.6756 26.4316 17.646C26.4358 18.0069 26.5839 18.3968 26.856 18.8014L26.8429 18.8145C29.1288 22.2622 40.4529 26.8101 48.4644 23.7287C42.4601 26.7309 28.3196 27.3259 24.1664 21.4969C23.2644 22.4727 22.887 23.755 23.0291 24.9872C24.1263 31.0346 36.3928 32.6844 48.6595 23.9226L51.3139 26.577C48.0108 29.9705 43.1318 49.6817 50.3815 46.6722C50.5535 46.5555 50.6994 46.451 50.898 46.3008L51.2211 45.9958C51.2024 46.0004 51.1839 46.0047 51.1655 46.0091L70.5817 27.679C72.3845 25.977 72.4254 23.1222 70.6718 21.3693L50.582 1.28773ZM48.4676 7.26132L49.1312 4.6069L49.7948 7.26132L51.7856 7.92494L49.7948 8.58856L49.1312 11.243L48.4676 8.58856L46.4767 7.92494L48.4676 7.26132ZM40.2538 15.9266L40.6961 14.1569L41.1385 15.9266L42.4658 16.369L41.1385 16.8114L40.6961 18.581L40.2538 16.8114L38.9266 16.369L40.2538 15.9266ZM55.6621 30.8533L55.2197 32.6228L53.8925 33.0653L55.2197 33.5077L55.6621 35.2773L56.1045 33.5077L57.4317 33.0653L56.1045 32.6228L55.6621 30.8533Z" fill="#EF4830"/>
<path fill-rule="evenodd" clip-rule="evenodd" d="M72.077 3.04395C67.9261 3.04395 63.9896 4.88769 61.3322 8.07653L51.8783 19.4214L57.3374 11.2326L48.2757 15.1162C47.1249 15.6094 46.8362 17.1088 47.7214 17.9941L50.6375 20.9101L49.1486 22.6968L52.4242 25.9723L54.2108 24.4834L57.1269 27.3995C58.0121 28.2847 59.5116 27.996 60.0047 26.8453L63.8883 17.7836L55.6996 23.2427L67.0445 13.7887C70.2333 11.1314 72.077 7.19488 72.077 3.04395ZM63.0695 12.0517C63.974 12.9561 65.4404 12.9561 66.345 12.0517C67.2494 11.1471 67.2494 9.68069 66.345 8.77625C65.4404 7.8717 63.974 7.8717 63.0695 8.77625C62.165 9.68069 62.165 11.1471 63.0695 12.0517Z" fill="#FF9B8C"/>
<path opacity="0.6" d="M24.0601 21.3442C26.2288 28.7746 39.4144 28.3872 48.4609 23.7297C42.4032 26.7567 28.0733 27.3349 24.0601 21.3442Z" fill="#424242"/>
<path opacity="0.6" d="M50.3806 46.6717C44.2718 49.2076 46.7748 35.6112 49.69 29.2388C47.565 34.9028 45.7511 47.3889 51.2202 45.9953L50.8971 46.3003C50.6985 46.4506 50.5526 46.555 50.3806 46.6717Z" fill="#424242"/>
</g>
</svg>
