<svg width="278" height="78" viewBox="0 0 278 78" fill="none" xmlns="http://www.w3.org/2000/svg">
<path fill-rule="evenodd" clip-rule="evenodd" d="M137.849 8.4029C140.529 5.72247 144.875 5.72247 147.556 8.4029C150.236 11.0835 150.236 15.4296 147.556 18.1102L131.213 34.4529C126.521 28.1645 127.031 19.221 132.742 13.5094L137.849 8.4029Z" fill="white"/>
<path fill-rule="evenodd" clip-rule="evenodd" d="M161.213 45.2752C163.894 47.9556 163.894 52.3018 161.213 54.9822C158.533 57.6628 154.187 57.6628 151.506 54.9822L135.163 38.6397C141.452 33.9475 150.395 34.4571 156.107 40.1687L161.213 45.2752Z" fill="white"/>
<path fill-rule="evenodd" clip-rule="evenodd" d="M124.342 68.6386C121.661 71.3193 117.315 71.3193 114.635 68.6386C111.954 65.958 111.954 61.612 114.635 58.9314L130.977 42.5889C135.669 48.8773 135.16 57.8208 129.448 63.5322L124.342 68.6386Z" fill="white"/>
<path fill-rule="evenodd" clip-rule="evenodd" d="M100.978 31.7665C98.2972 29.0859 98.2972 24.7399 100.978 22.0593C103.658 19.3787 108.004 19.3787 110.685 22.0593L127.028 38.402C120.739 43.0942 111.796 42.5844 106.084 36.873L100.978 31.7665Z" fill="white"/>
<path fill-rule="evenodd" clip-rule="evenodd" d="M134.198 66.6377C138.15 62.243 139.987 56.6196 139.708 51.083L147.557 58.9317C147.577 58.9512 147.596 58.9707 147.616 58.9902V64.5937C147.616 68.3846 144.543 71.4577 140.752 71.4577C137.673 71.4577 135.068 69.4303 134.198 66.6377Z" fill="white"/>
<path fill-rule="evenodd" clip-rule="evenodd" d="M102.978 41.623C107.373 45.5758 112.996 47.4129 118.533 47.1342L110.684 54.9829C110.664 55.0024 110.645 55.0221 110.626 55.0416H105.022C101.231 55.0418 98.1581 51.9685 98.1581 48.1776C98.1581 45.0987 100.185 42.493 102.978 41.623Z" fill="white"/>
<path fill-rule="evenodd" clip-rule="evenodd" d="M159.586 36.6995C155.004 32.1477 149.14 30.0322 143.367 30.3529L151.551 21.3149C151.572 21.2924 151.592 21.2698 151.612 21.2471H157.456C161.409 21.2471 164.614 24.7862 164.614 29.1516C164.614 32.6974 162.499 35.6977 159.586 36.6995Z" fill="white"/>
<path fill-rule="evenodd" clip-rule="evenodd" d="M127.993 10.4052C124.04 14.7997 122.203 20.423 122.482 25.9599L114.633 18.1112C114.614 18.0917 114.594 18.0721 114.574 18.0526V12.4491C114.574 8.65826 117.648 5.58496 121.438 5.58496C124.518 5.58496 127.123 7.61252 127.993 10.4052Z" fill="white"/>
<path fill-rule="evenodd" clip-rule="evenodd" d="M121.439 0C114.564 0 108.991 5.57352 108.991 12.4487V14.8699C104.854 13.7892 100.27 14.8693 97.0291 18.1107C92.1675 22.9722 92.1675 30.8543 97.0291 35.7159L98.741 37.4278C95.0521 39.5885 92.5747 43.5935 92.5747 48.1773C92.5747 55.0525 98.1482 60.626 105.023 60.626H107.444C106.364 64.7623 107.444 69.3463 110.685 72.5874C115.547 77.449 123.429 77.449 128.29 72.5874L133.397 67.4811C137.901 62.9765 140.005 56.9802 139.708 51.0824L147.557 58.9311C152.419 63.7926 160.301 63.7926 165.163 58.9311C170.024 54.0695 170.024 46.1874 165.163 41.3261L163.451 39.6143C167.139 37.4537 169.617 33.4486 169.617 28.8648C169.617 21.9896 164.042 16.4161 157.168 16.4161H154.747C155.828 12.2797 154.747 7.69572 151.506 4.45437C146.645 -0.407173 138.763 -0.407173 133.901 4.45437L128.795 9.56083C124.29 14.0654 122.186 20.0615 122.483 25.9594L114.634 18.1107C114.615 18.0912 114.595 18.0717 114.575 18.0521V12.4487C114.575 8.65783 117.648 5.58472 121.439 5.58472C124.518 5.58472 127.124 7.61208 127.994 10.4047C128.252 10.1181 128.519 9.83666 128.795 9.56083L132.189 6.16631C130.028 2.47742 126.023 0 121.439 0ZM151.565 22.0008C151.545 22.0203 151.526 22.04 151.506 22.0596L143.658 29.9081C149.194 29.6295 154.817 31.4664 159.212 35.4194C162.005 34.5494 164.033 31.9437 164.033 28.8648C164.033 25.0739 160.96 22.0008 157.168 22.0008H151.565ZM110.626 55.0413C110.646 55.0216 110.666 55.0019 110.685 54.9824L118.534 47.1337C112.997 47.4124 107.374 45.5753 102.979 41.6228C100.187 42.4927 98.1592 45.0982 98.1592 48.1773C98.1592 51.9682 101.233 55.0413 105.023 55.0413H110.626ZM140.752 77.0422C136.168 77.0422 132.163 74.5646 130.002 70.8757L133.397 67.4811C133.673 67.2053 133.939 66.9239 134.197 66.6372C135.067 69.4299 137.673 71.4575 140.752 71.4575C144.543 71.4575 147.616 68.3843 147.616 64.5935V58.99C149.225 60.5775 151.158 61.6384 153.201 62.1721V64.5935C153.201 71.4687 147.627 77.0422 140.752 77.0422ZM147.557 8.40325C144.877 5.72283 140.53 5.72283 137.85 8.40325L132.743 13.5097C127.032 19.2213 126.522 28.1648 131.214 34.4532L147.557 18.1105C150.238 15.4299 150.238 11.0839 147.557 8.40325ZM161.213 54.9822C163.894 52.3016 163.894 47.9556 161.213 45.275L156.107 40.1685C150.395 34.4571 141.452 33.9473 135.163 38.6395L151.506 54.9822C154.187 57.6628 158.534 57.6628 161.213 54.9822ZM124.341 68.6385C121.661 71.3191 117.315 71.3191 114.634 68.6385C111.954 65.9579 111.954 61.6119 114.634 58.9313L130.977 42.5886C135.669 48.8769 135.159 57.8206 129.448 63.5321L124.341 68.6385ZM100.978 22.0596C98.2975 24.7402 98.2975 29.0862 100.978 31.7668L106.084 36.8733C111.796 42.5847 120.74 43.0944 127.028 38.4023L110.685 22.0596C108.005 19.3791 103.659 19.3791 100.978 22.0596Z" fill="#454948" fill-opacity="0.5"/>
<path d="M0.431396 25.1738H6.53628V44.1441H17.0215V49.2832H0.431396V25.1738Z" fill="#454948" fill-opacity="0.5"/>
<path d="M28.106 49.8C26.0595 49.8 24.2659 49.432 22.7253 48.6963C21.1846 47.9374 19.989 46.9027 19.1382 45.5921C18.3105 44.2583 17.8966 42.7293 17.8966 41.0046C17.8966 39.2801 18.3105 37.7625 19.1382 36.452C19.989 35.1182 21.1846 34.0835 22.7253 33.3477C24.2659 32.5888 26.0595 32.2095 28.106 32.2095C30.1525 32.2095 31.9459 32.5888 33.4866 33.3477C35.0272 34.0835 36.2114 35.1182 37.0391 36.452C37.8899 37.7625 38.3153 39.2801 38.3153 41.0046C38.3153 42.7293 37.8899 44.2583 37.0391 45.5921C36.2114 46.9027 35.0272 47.9374 33.4866 48.6963C31.9459 49.432 30.1525 49.8 28.106 49.8ZM28.106 45.0746C29.3246 45.0746 30.2904 44.7183 31.0032 44.0055C31.7391 43.2696 32.1068 42.2694 32.1068 41.0046C32.1068 39.74 31.7391 38.7513 31.0032 38.0385C30.2904 37.3026 29.3246 36.9348 28.106 36.9348C26.8872 36.9348 25.91 37.3026 25.1743 38.0385C24.4613 38.7513 24.105 39.74 24.105 41.0046C24.105 42.2694 24.4613 43.2696 25.1743 44.0055C25.91 44.7183 26.8872 45.0746 28.106 45.0746Z" fill="#454948" fill-opacity="0.5"/>
<path d="M49.7185 57.2156C48.6148 57.2156 47.4995 57.1121 46.3728 56.9052C45.2691 56.6982 44.3147 56.4224 43.5101 56.0774V51.8695C45.3265 52.6512 47.396 53.0421 49.7185 53.0421C51.397 53.0421 52.6042 52.6971 53.34 52.0074C54.0989 51.3176 54.4782 50.3059 54.4782 48.9721V47.972C53.8115 48.5468 52.9836 48.9951 51.9948 49.3171C51.029 49.6391 49.9943 49.8 48.8906 49.8C47.1431 49.8 45.6025 49.432 44.2688 48.6963C42.9352 47.9604 41.8889 46.9256 41.1302 45.5921C40.3943 44.2583 40.0265 42.7293 40.0265 41.0046C40.0265 39.2572 40.3943 37.7165 41.1302 36.383C41.8659 35.0493 42.9006 34.0259 44.2344 33.3132C45.5679 32.5774 47.0972 32.2095 48.8217 32.2095C51.1901 32.2095 53.1445 32.9338 54.6851 34.3825V32.7267H60.5487V48.1445C60.5487 51.0186 59.6633 53.2492 57.8928 54.8358C56.1454 56.4223 53.4205 57.2156 49.7185 57.2156ZM50.4082 45.1092C51.351 45.1092 52.1903 44.8678 52.926 44.3849C53.662 43.902 54.1792 43.2582 54.4782 42.4533V39.5562C54.1562 38.7513 53.6274 38.1189 52.8916 37.659C52.1557 37.1763 51.328 36.9348 50.4082 36.9348C49.1666 36.9348 48.1663 37.3026 47.4076 38.0385C46.6486 38.7513 46.2693 39.7285 46.2693 40.9703C46.2693 42.2348 46.6486 43.2466 47.4076 44.0055C48.1663 44.7412 49.1666 45.1092 50.4082 45.1092Z" fill="#454948" fill-opacity="0.5"/>
<path d="M72.298 49.8C70.2515 49.8 68.458 49.432 66.9174 48.6963C65.3768 47.9374 64.181 46.9027 63.3303 45.5921C62.5024 44.2583 62.0885 42.7293 62.0885 41.0046C62.0885 39.2801 62.5024 37.7625 63.3303 36.452C64.181 35.1182 65.3768 34.0835 66.9174 33.3477C68.458 32.5888 70.2515 32.2095 72.298 32.2095C74.3445 32.2095 76.1379 32.5888 77.6785 33.3477C79.2191 34.0835 80.4034 35.1182 81.2312 36.452C82.0819 37.7625 82.5074 39.2801 82.5074 41.0046C82.5074 42.7293 82.0819 44.2583 81.2312 45.5921C80.4034 46.9027 79.2191 47.9374 77.6785 48.6963C76.1379 49.432 74.3445 49.8 72.298 49.8ZM72.298 45.0746C73.5166 45.0746 74.4824 44.7183 75.1953 44.0055C75.931 43.2696 76.299 42.2694 76.299 41.0046C76.299 39.74 75.931 38.7513 75.1953 38.0385C74.4824 37.3026 73.5166 36.9348 72.298 36.9348C71.0793 36.9348 70.102 37.3026 69.3662 38.0385C68.6533 38.7513 68.2969 39.74 68.2969 41.0046C68.2969 42.2694 68.6533 43.2696 69.3662 44.0055C70.102 44.7183 71.0793 45.0746 72.298 45.0746Z" fill="#454948" fill-opacity="0.5"/>
<path d="M179.872 25.1738H185.978V49.2832H179.872V25.1738Z" fill="#454948" fill-opacity="0.5"/>
<path d="M189.07 32.7267H194.934V34.3825C196.473 32.9338 198.428 32.2095 200.796 32.2095C202.521 32.2095 204.051 32.5774 205.383 33.3132C206.718 34.0259 207.752 35.0493 208.487 36.383C209.223 37.6936 209.592 39.2228 209.592 40.9703C209.592 42.6948 209.223 44.2354 208.487 45.5921C207.752 46.9256 206.718 47.9604 205.383 48.6963C204.074 49.432 202.544 49.8 200.796 49.8C199.693 49.8 198.635 49.6275 197.624 49.2825C196.635 48.9607 195.807 48.5122 195.14 47.9374V56.8361H189.07V32.7267ZM199.21 45.0746C200.452 45.0746 201.453 44.7069 202.21 43.9709C202.969 43.2352 203.35 42.2348 203.35 40.9703C203.35 39.7055 202.969 38.7169 202.21 38.004C201.453 37.2682 200.452 36.9003 199.21 36.9003C198.291 36.9003 197.462 37.1417 196.726 37.6246C195.99 38.0845 195.463 38.7169 195.14 39.5216V42.4533C195.463 43.2582 195.99 43.902 196.726 44.3849C197.462 44.8448 198.291 45.0746 199.21 45.0746Z" fill="#454948" fill-opacity="0.5"/>
<path d="M218.642 49.8C217.309 49.8 215.918 49.6621 214.469 49.3861C213.021 49.1332 211.87 48.7653 211.02 48.2824V43.833C211.962 44.3849 213.088 44.8448 214.4 45.2127C215.733 45.5575 216.951 45.73 218.056 45.73C218.86 45.73 219.447 45.6724 219.814 45.5575C220.183 45.4426 220.366 45.2127 220.366 44.8678C220.366 44.5917 220.241 44.3733 219.988 44.2124C219.758 44.0285 219.32 43.8444 218.676 43.6605C218.056 43.4537 217.332 43.2352 216.503 43.0052C215.101 42.5912 213.998 42.1659 213.193 41.729C212.387 41.2921 211.79 40.7402 211.398 40.0734C211.008 39.4067 210.813 38.5674 210.813 37.5556C210.813 35.762 211.514 34.4285 212.916 33.5546C214.342 32.6578 216.285 32.2095 218.746 32.2095C219.942 32.2095 221.195 32.336 222.505 32.5888C223.839 32.8419 224.838 33.1753 225.506 33.5892V37.9696C224.817 37.5097 223.895 37.1301 222.746 36.8313C221.62 36.5323 220.562 36.383 219.573 36.383C218.792 36.383 218.182 36.4633 217.745 36.6242C217.309 36.7624 217.091 37.0152 217.091 37.3832C217.091 37.7281 217.309 37.9926 217.745 38.1764C218.182 38.3603 218.964 38.5904 220.09 38.8662C220.826 39.0503 221.137 39.1306 221.021 39.1077C222.493 39.4986 223.631 39.9355 224.436 40.4184C225.242 40.9013 225.804 41.4761 226.126 42.1429C226.472 42.7867 226.644 43.6146 226.644 44.6263C226.644 46.2129 225.954 47.4775 224.575 48.4203C223.217 49.3401 221.24 49.8 218.642 49.8Z" fill="#454948" fill-opacity="0.5"/>
<path d="M235.706 49.8008C233.431 49.8008 231.717 49.1684 230.568 47.9038C229.442 46.639 228.878 44.9721 228.878 42.9026V32.7275H234.949V42.2127C234.949 44.1212 235.81 45.0754 237.535 45.0754C238.317 45.0754 239.03 44.8915 239.673 44.5236C240.317 44.1556 240.846 43.6154 241.259 42.9026V32.7275H247.33V49.2833H241.468V47.4899C240.755 48.2486 239.892 48.8234 238.88 49.2144C237.869 49.6053 236.811 49.8008 235.706 49.8008Z" fill="#454948" fill-opacity="0.5"/>
<path d="M250.438 32.7267H256.061V34.5204C256.751 33.7847 257.544 33.2212 258.441 32.8303C259.337 32.4163 260.291 32.2095 261.303 32.2095C262.545 32.2095 263.534 32.3934 264.27 32.7613C265.029 33.1293 265.638 33.6811 266.097 34.4169C266.787 33.7271 267.627 33.1866 268.616 32.7959C269.605 32.4049 270.606 32.2095 271.616 32.2095C273.8 32.2095 275.353 32.7729 276.273 33.8996C277.192 35.0033 277.652 36.6013 277.652 38.6937V49.2825H271.857V39.5562C271.857 38.6364 271.685 37.9696 271.34 37.5556C270.996 37.1417 270.42 36.9348 269.617 36.9348C268.581 36.9348 267.741 37.3026 267.098 38.0385C267.121 38.4293 267.133 39.0273 267.133 39.832V49.2825H261.338V39.3147C261.338 38.4639 261.189 37.8545 260.89 37.4867C260.591 37.1187 260.061 36.9348 259.304 36.9348C258.13 36.9348 257.12 37.59 256.268 38.9008V49.2825H250.438V32.7267Z" fill="#454948" fill-opacity="0.5"/>
</svg>
