<svg width="189" height="59" viewBox="0 0 189 59" fill="none" xmlns="http://www.w3.org/2000/svg">
<path d="M18.0631 46.6319C12.9779 46.6319 9.09621 45.2176 6.41816 42.3892C3.77021 39.5607 2.44623 35.5436 2.44623 30.338C2.44623 27.7502 2.85245 25.4483 3.66489 23.4322C4.47733 21.3861 5.59068 19.6709 7.00493 18.2868C8.41917 16.8725 10.1042 15.8043 12.0601 15.0821C14.016 14.36 16.1374 13.9989 18.4242 13.9989C19.7482 13.9989 20.9518 14.1042 22.0351 14.3148C23.1183 14.4954 24.0662 14.721 24.8786 14.9919C25.6911 15.2326 26.3681 15.4884 26.9097 15.7592C27.4513 16.03 27.8425 16.2406 28.0832 16.3911L26.0521 22.0781C25.0892 21.5666 23.9609 21.1303 22.667 20.7692C21.4032 20.4081 19.9588 20.2276 18.334 20.2276C17.2507 20.2276 16.1825 20.4081 15.1293 20.7692C14.1063 21.1303 13.1885 21.7171 12.3761 22.5295C11.5937 23.3119 10.9618 24.3349 10.4804 25.5987C9.99892 26.8625 9.7582 28.3971 9.7582 30.2025C9.7582 31.6469 9.90865 33.001 10.2096 34.2647C10.5405 35.4985 11.0521 36.5667 11.7442 37.4694C12.4663 38.3721 13.3991 39.0943 14.5426 39.6359C15.686 40.1474 17.0702 40.4032 18.695 40.4032C19.7181 40.4032 20.6359 40.343 21.4483 40.2226C22.2607 40.1023 22.9829 39.9669 23.6148 39.8164C24.2467 39.6359 24.8034 39.4403 25.2848 39.2297C25.7663 39.019 26.2026 38.8234 26.5938 38.6429L28.5346 44.2848C27.5416 44.8867 26.1424 45.4283 24.337 45.9097C22.5316 46.3912 20.4403 46.6319 18.0631 46.6319ZM46.9245 28.2166C46.3227 28.0661 45.6156 27.9157 44.8031 27.7652C43.9907 27.5847 43.1181 27.4944 42.1853 27.4944C41.764 27.4944 41.2525 27.5395 40.6507 27.6298C40.079 27.69 39.6426 27.7652 39.3417 27.8555V46H32.6165V23.5225C33.8202 23.1012 35.2344 22.71 36.8593 22.349C38.5143 21.9578 40.3498 21.7622 42.3658 21.7622C42.7269 21.7622 43.1632 21.7923 43.6748 21.8525C44.1863 21.8826 44.6978 21.9427 45.2094 22.033C45.7209 22.0932 46.2324 22.1835 46.744 22.3038C47.2555 22.3941 47.6918 22.5145 48.0529 22.6649L46.9245 28.2166ZM73.424 34.0842C73.424 35.9498 73.1532 37.665 72.6116 39.2297C72.07 40.7643 71.2876 42.0882 70.2645 43.2016C69.2415 44.2848 68.0078 45.1274 66.5634 45.7292C65.1492 46.331 63.5544 46.6319 61.7791 46.6319C60.0338 46.6319 58.439 46.331 56.9947 45.7292C55.5804 45.1274 54.3618 44.2848 53.3387 43.2016C52.3156 42.0882 51.5182 40.7643 50.9465 39.2297C50.3748 37.665 50.0889 35.9498 50.0889 34.0842C50.0889 32.2186 50.3748 30.5185 50.9465 28.9839C51.5483 27.4493 52.3608 26.1403 53.3838 25.0571C54.437 23.9738 55.6707 23.1313 57.085 22.5295C58.5293 21.9277 60.094 21.6268 61.7791 21.6268C63.4942 21.6268 65.0589 21.9277 66.4732 22.5295C67.9175 23.1313 69.1512 23.9738 70.1743 25.0571C71.1974 26.1403 71.9947 27.4493 72.5665 28.9839C73.1382 30.5185 73.424 32.2186 73.424 34.0842ZM66.5634 34.0842C66.5634 32.008 66.1422 30.3831 65.2996 29.2096C64.4872 28.0059 63.3137 27.4041 61.7791 27.4041C60.2445 27.4041 59.0559 28.0059 58.2134 29.2096C57.3708 30.3831 56.9496 32.008 56.9496 34.0842C56.9496 36.1604 57.3708 37.8154 58.2134 39.0491C59.0559 40.2527 60.2445 40.8545 61.7791 40.8545C63.3137 40.8545 64.4872 40.2527 65.2996 39.0491C66.1422 37.8154 66.5634 36.1604 66.5634 34.0842ZM85.4491 41.1705C86.6829 41.1705 87.5555 41.0501 88.067 40.8094C88.5785 40.5687 88.8343 40.1023 88.8343 39.4102C88.8343 38.8686 88.5033 38.4022 87.8413 38.011C87.1793 37.5897 86.1713 37.1233 84.8172 36.6118C83.7641 36.2206 82.8012 35.8144 81.9286 35.3931C81.086 34.9719 80.3639 34.4754 79.7621 33.9037C79.1603 33.3019 78.6939 32.5947 78.3629 31.7823C78.0319 30.9699 77.8664 29.9919 77.8664 28.8485C77.8664 26.6218 78.6939 24.8615 80.3488 23.5676C82.0038 22.2737 84.2756 21.6268 87.1643 21.6268C88.6086 21.6268 89.9928 21.7622 91.3168 22.033C92.6407 22.2737 93.6939 22.5445 94.4763 22.8454L93.3027 28.0812C92.5204 27.8104 91.6628 27.5696 90.73 27.359C89.8273 27.1484 88.8042 27.0431 87.6608 27.0431C85.5545 27.0431 84.5013 27.6298 84.5013 28.8033C84.5013 29.0742 84.5464 29.3149 84.6367 29.5255C84.727 29.7361 84.9075 29.9468 85.1783 30.1574C85.4491 30.338 85.8102 30.5486 86.2616 30.7893C86.743 30.9999 87.3448 31.2407 88.067 31.5115C89.5414 32.0531 90.7601 32.5947 91.723 33.1364C92.6859 33.6479 93.4381 34.2196 93.9798 34.8515C94.5515 35.4533 94.9427 36.1304 95.1533 36.8826C95.394 37.6349 95.5144 38.5075 95.5144 39.5005C95.5144 41.8475 94.6267 43.6229 92.8514 44.8265C91.1061 46.0301 88.6237 46.6319 85.404 46.6319C83.2977 46.6319 81.5374 46.4514 80.1231 46.0903C78.739 45.7292 77.7761 45.4283 77.2345 45.1876L78.3629 39.7262C79.5063 40.1775 80.6798 40.5386 81.8834 40.8094C83.087 41.0501 84.2756 41.1705 85.4491 41.1705ZM107.356 41.1705C108.589 41.1705 109.462 41.0501 109.974 40.8094C110.485 40.5687 110.741 40.1023 110.741 39.4102C110.741 38.8686 110.41 38.4022 109.748 38.011C109.086 37.5897 108.078 37.1233 106.724 36.6118C105.671 36.2206 104.708 35.8144 103.835 35.3931C102.993 34.9719 102.27 34.4754 101.669 33.9037C101.067 33.3019 100.6 32.5947 100.269 31.7823C99.9385 30.9699 99.773 29.9919 99.773 28.8485C99.773 26.6218 100.6 24.8615 102.255 23.5676C103.91 22.2737 106.182 21.6268 109.071 21.6268C110.515 21.6268 111.899 21.7622 113.223 22.033C114.547 22.2737 115.601 22.5445 116.383 22.8454L115.209 28.0812C114.427 27.8104 113.569 27.5696 112.637 27.359C111.734 27.1484 110.711 27.0431 109.567 27.0431C107.461 27.0431 106.408 27.6298 106.408 28.8033C106.408 29.0742 106.453 29.3149 106.543 29.5255C106.634 29.7361 106.814 29.9468 107.085 30.1574C107.356 30.338 107.717 30.5486 108.168 30.7893C108.65 30.9999 109.251 31.2407 109.974 31.5115C111.448 32.0531 112.667 32.5947 113.63 33.1364C114.593 33.6479 115.345 34.2196 115.886 34.8515C116.458 35.4533 116.849 36.1304 117.06 36.8826C117.301 37.6349 117.421 38.5075 117.421 39.5005C117.421 41.8475 116.533 43.6229 114.758 44.8265C113.013 46.0301 110.53 46.6319 107.311 46.6319C105.204 46.6319 103.444 46.4514 102.03 46.0903C100.646 45.7292 99.6827 45.4283 99.1411 45.1876L100.269 39.7262C101.413 40.1775 102.586 40.5386 103.79 40.8094C104.994 41.0501 106.182 41.1705 107.356 41.1705ZM120.416 29.4804H133.505V35.5737H120.416V29.4804ZM154.747 46C153.874 44.2548 152.911 42.4945 151.858 40.7191C150.835 38.9137 149.646 37.0782 148.292 35.2126C147.871 35.7542 147.329 36.5065 146.667 37.4694C146.036 38.4323 145.389 39.4553 144.727 40.5386C144.095 41.6218 143.493 42.66 142.921 43.653C142.349 44.6459 141.928 45.4283 141.657 46H133.623C134.947 43.5627 136.482 41.005 138.227 38.327C140.002 35.6489 141.973 32.8054 144.14 29.7963L134.075 14.721H142.605L148.699 24.4703L154.656 14.721H162.691L152.761 29.8866C155.288 33.1665 157.41 36.2056 159.125 39.004C160.84 41.7723 162.194 44.1043 163.187 46H154.747ZM186.765 22.2587C185.411 26.8324 183.997 31.1203 182.523 35.1223C181.048 39.1243 179.438 43.006 177.693 46.7673C177.061 48.1214 176.429 49.2648 175.798 50.1976C175.166 51.1605 174.474 51.9429 173.721 52.5447C172.969 53.1766 172.111 53.6279 171.149 53.8987C170.216 54.1996 169.117 54.3501 167.854 54.3501C166.8 54.3501 165.823 54.2448 164.92 54.0341C164.047 53.8536 163.325 53.643 162.753 53.4022L163.927 48.0311C164.619 48.2718 165.236 48.4373 165.777 48.5276C166.319 48.6179 166.891 48.663 167.493 48.663C168.696 48.663 169.614 48.332 170.246 47.67C170.908 47.0381 171.465 46.1505 171.916 45.007C170.381 41.998 168.847 38.6279 167.312 34.8966C165.777 31.1354 164.333 26.9227 162.979 22.2587H170.11C170.411 23.4322 170.757 24.7111 171.149 26.0952C171.57 27.4493 172.006 28.8334 172.457 30.2477C172.909 31.6318 173.36 32.9859 173.812 34.3099C174.293 35.6339 174.744 36.8375 175.166 37.9207C175.557 36.8375 175.963 35.6339 176.384 34.3099C176.806 32.9859 177.212 31.6318 177.603 30.2477C178.024 28.8334 178.415 27.4493 178.776 26.0952C179.168 24.7111 179.514 23.4322 179.815 22.2587H186.765Z" fill="#454948" fill-opacity="0.5"/>
</svg>
