<svg width="212" height="39" viewBox="0 0 212 39" fill="none" xmlns="http://www.w3.org/2000/svg">
<path d="M49.0531 2.4165H54.3905V31.5292H63.1728V36.3814H49.0531V2.4165Z" fill="#454948" fill-opacity="0.5"/>
<path d="M73.2556 36.8669C70.6355 36.8669 68.63 36.1229 67.2389 34.6349C65.848 33.1469 65.1526 31.0444 65.1526 28.3271V10.4714C65.1526 7.75419 65.848 5.6516 67.2389 4.16362C68.63 2.67563 70.6355 1.93164 73.2556 1.93164C75.8757 1.93164 77.8812 2.67563 79.2722 4.16362C80.6631 5.6516 81.3586 7.75419 81.3586 10.4714V28.3271C81.3586 31.0444 80.6631 33.1469 79.2722 34.6349C77.8812 36.1229 75.8757 36.8669 73.2556 36.8669ZM73.2556 32.0148C75.0994 32.0148 76.0213 30.8987 76.0213 28.6667V10.1317C76.0213 7.89974 75.0994 6.78375 73.2556 6.78375C71.4117 6.78375 70.4898 7.89974 70.4898 10.1317V28.6667C70.4898 30.8987 71.4117 32.0148 73.2556 32.0148Z" fill="#454948" fill-opacity="0.5"/>
<path d="M92.5393 36.8669C89.9515 36.8669 87.9783 36.1391 86.6196 34.6834C85.261 33.1955 84.5818 31.0767 84.5818 28.3271V10.4714C84.5818 7.72184 85.261 5.61925 86.6196 4.16362C87.9783 2.67563 89.9515 1.93164 92.5393 1.93164C95.127 1.93164 97.1002 2.67563 98.4588 4.16362C99.8175 5.61925 100.497 7.72184 100.497 10.4714V13.3826H95.4505V10.1317C95.4505 7.89974 94.5286 6.78375 92.6848 6.78375C90.841 6.78375 89.9191 7.89974 89.9191 10.1317V28.7154C89.9191 30.915 90.841 32.0148 92.6848 32.0148C94.5286 32.0148 95.4505 30.915 95.4505 28.7154V22.0679H92.7819V17.2159H100.497V28.3271C100.497 31.0767 99.8175 33.1955 98.4588 34.6834C97.1002 36.1391 95.127 36.8669 92.5393 36.8669Z" fill="#454948" fill-opacity="0.5"/>
<path d="M111.64 36.8669C109.02 36.8669 107.014 36.1229 105.623 34.6349C104.232 33.1469 103.537 31.0444 103.537 28.3271V10.4714C103.537 7.75419 104.232 5.6516 105.623 4.16362C107.014 2.67563 109.02 1.93164 111.64 1.93164C114.26 1.93164 116.266 2.67563 117.657 4.16362C119.048 5.6516 119.743 7.75419 119.743 10.4714V28.3271C119.743 31.0444 119.048 33.1469 117.657 34.6349C116.266 36.1229 114.26 36.8669 111.64 36.8669ZM111.64 32.0148C113.484 32.0148 114.406 30.8987 114.406 28.6667V10.1317C114.406 7.89974 113.484 6.78375 111.64 6.78375C109.796 6.78375 108.874 7.89974 108.874 10.1317V28.6667C108.874 30.8987 109.796 32.0148 111.64 32.0148Z" fill="#454948" fill-opacity="0.5"/>
<path d="M123.361 2.4165H128.699V36.3814H123.361V2.4165Z" fill="#454948" fill-opacity="0.5"/>
<path d="M132.695 2.4165H140.555C143.207 2.4165 145.197 3.12814 146.523 4.55144C147.85 5.97472 148.513 8.06113 148.513 10.8107V14.1586C148.513 16.9082 147.85 18.9945 146.523 20.4179C145.197 21.8411 143.207 22.5527 140.555 22.5527H138.032V36.3814H132.695V2.4165ZM140.555 17.7006C141.429 17.7006 142.075 17.458 142.496 16.9729C142.949 16.4876 143.175 15.6628 143.175 14.4982V10.471C143.175 9.30651 142.949 8.48165 142.496 7.99644C142.075 7.51123 141.429 7.26863 140.555 7.26863H138.032V17.7006H140.555Z" fill="#454948" fill-opacity="0.5"/>
<path d="M158.54 36.8669C155.953 36.8669 153.995 36.1391 152.669 34.6834C151.343 33.1955 150.679 31.0767 150.679 28.3271V26.3863H155.726V28.7154C155.726 30.915 156.648 32.0148 158.491 32.0148C159.397 32.0148 160.076 31.756 160.529 31.2385C161.014 30.6886 161.257 29.8151 161.257 28.6182C161.257 27.195 160.934 25.9496 160.287 24.8822C159.64 23.7823 158.443 22.4723 156.696 20.9519C154.496 19.0111 152.96 17.2644 152.086 15.7117C151.214 14.1266 150.777 12.3475 150.777 10.3743C150.777 7.68949 151.455 5.61925 152.814 4.16362C154.173 2.67563 156.147 1.93164 158.735 1.93164C161.289 1.93164 163.215 2.67563 164.508 4.16362C165.835 5.61925 166.497 7.72184 166.497 10.4714V11.8785H161.451V10.1317C161.451 8.96722 161.225 8.12617 160.772 7.60862C160.319 7.05871 159.657 6.78375 158.783 6.78375C157.003 6.78375 156.114 7.8674 156.114 10.0347C156.114 11.2639 156.438 12.4122 157.084 13.4797C157.763 14.5471 158.976 15.841 160.724 17.3614C162.955 19.3022 164.492 21.0652 165.334 22.6502C166.174 24.2353 166.595 26.0951 166.595 28.2301C166.595 31.012 165.899 33.1469 164.508 34.6349C163.149 36.1229 161.16 36.8669 158.54 36.8669Z" fill="#454948" fill-opacity="0.5"/>
<path d="M177.42 36.8665C174.832 36.8665 172.859 36.1388 171.5 34.6831C170.141 33.1952 169.462 31.0764 169.462 28.3268V2.4165H174.8V28.715C174.8 29.8795 175.026 30.7205 175.479 31.2382C175.964 31.7556 176.644 32.0144 177.517 32.0144C178.39 32.0144 179.053 31.7556 179.506 31.2382C179.991 30.7205 180.234 29.8795 180.234 28.715V2.4165H185.377V28.3268C185.377 31.0764 184.698 33.1952 183.339 34.6831C181.981 36.1388 180.007 36.8665 177.42 36.8665Z" fill="#454948" fill-opacity="0.5"/>
<path d="M189.18 2.4165H196.798L200.195 26.7256H200.291L203.689 2.4165H211.306V36.3814H206.259V10.6651H206.163L202.28 36.3814H197.816L193.935 10.6651H193.839V36.3814H189.18V2.4165Z" fill="#454948" fill-opacity="0.5"/>
<path d="M0.760376 34.7676C7.16102 34.7676 12.3497 29.5788 12.3497 23.1783C12.3497 16.7776 7.16102 11.5889 0.760376 11.5889V19.7014C2.68055 19.7014 4.23716 21.258 4.23716 23.1783C4.23716 25.0984 2.68055 26.655 0.760376 26.655V34.7676Z" fill="#454948" fill-opacity="0.5"/>
<path d="M39.3952 15.4532C37.4148 14.8258 35.3058 14.4873 33.1176 14.4873C21.6498 14.4873 12.3535 23.7839 12.3535 35.2515C12.3535 36.4026 12.4471 37.5318 12.6272 38.6318H25.5287C25.0681 37.5993 24.8121 36.4554 24.8121 35.2515C24.8121 30.6645 28.5306 26.9458 33.1176 26.9458C35.6248 26.9458 37.8723 28.0567 39.3952 29.813V15.4532Z" fill="#454948" fill-opacity="0.5"/>
<path d="M2.79755 0C3.75838 8.69191 11.1274 15.4525 20.0755 15.4525C29.0234 15.4525 36.3925 8.69191 37.3533 0H24.9212C24.1537 1.92404 22.2733 3.28364 20.0755 3.28364C17.8776 3.28364 15.9973 1.92404 15.2296 0H2.79755Z" fill="#454948" fill-opacity="0.5"/>
</svg>
