<svg width="173" height="39" viewBox="0 0 173 39" fill="none" xmlns="http://www.w3.org/2000/svg">
<path d="M0.651978 38.6312H39.2832V5.42118e-08H0.651978V38.6312ZM31.8476 15.5986H23.6846V7.43556H31.8476V15.5986ZM8.08603 7.43556H16.2536V23.0326H31.8476V31.1956H8.08603V7.43556ZM64.4394 5.42118e-08C60.619 5.42118e-08 56.8845 1.13285 53.7082 3.25527C50.5317 5.3777 48.056 8.39438 46.594 11.9239C45.1321 15.4534 44.7497 19.337 45.4949 23.0838C46.2403 26.8307 48.0798 30.2724 50.7811 32.9737C53.4824 35.6752 56.9242 37.5147 60.671 38.2601C64.418 39.0053 68.3016 38.6229 71.8311 37.1609C75.3606 35.699 78.3772 33.2233 80.4997 30.0468C82.6221 26.8703 83.755 23.1358 83.755 19.3156C83.7489 14.1946 81.712 9.2851 78.0909 5.66402C74.4698 2.04293 69.5604 0.00597923 64.4394 5.42118e-08ZM64.4394 31.1956C62.0897 31.1956 59.7928 30.4989 57.8391 29.1934C55.8856 27.8881 54.3628 26.0327 53.4636 23.8619C52.5645 21.6911 52.3292 19.3025 52.7875 16.9979C53.246 14.6934 54.3775 12.5766 56.0389 10.9151C57.7004 9.25369 59.8172 8.12223 62.1217 7.66384C64.4261 7.20544 66.8148 7.44071 68.9857 8.33988C71.1564 9.23904 73.0119 10.7617 74.3172 12.7155C75.6227 14.669 76.3194 16.9659 76.3194 19.3156C76.3146 22.465 75.0614 25.4839 72.8345 27.7108C70.6076 29.9377 67.5886 31.1908 64.4394 31.1956ZM152.875 5.42118e-08C149.054 -0.000286103 145.32 1.13229 142.144 3.25454C138.967 5.37678 136.491 8.39336 135.029 11.9228C133.567 15.4522 133.184 19.3361 133.929 23.0829C134.674 26.8299 136.514 30.2718 139.215 32.9732C141.916 35.6747 145.358 37.5146 149.106 38.2599C152.851 39.0053 156.736 38.6229 160.266 37.1611C163.795 35.6991 166.811 33.2234 168.933 30.0469C171.057 26.8704 172.189 23.1359 172.189 19.3156C172.183 14.1949 170.147 9.28558 166.527 5.66455C162.906 2.04351 157.996 0.00638587 152.875 5.42118e-08ZM152.875 31.1956C150.526 31.1959 148.229 30.4993 146.275 29.1942C144.321 27.889 142.798 26.0336 141.899 23.8629C140.999 21.6922 140.764 19.3034 141.222 16.9988C141.68 14.6943 142.812 12.5773 144.473 10.9157C146.134 9.25407 148.252 8.12246 150.556 7.66394C152.86 7.20543 155.249 7.4406 157.419 8.33974C159.591 9.23886 161.447 10.7615 162.752 12.7153C164.057 14.669 164.754 16.9659 164.754 19.3156C164.749 22.4647 163.496 25.4833 161.269 27.7102C159.043 29.9371 156.025 31.1905 152.875 31.1956ZM108.657 5.42118e-08C104.836 5.42118e-08 101.102 1.13285 97.9255 3.25527C94.749 5.3777 92.2733 8.39438 90.8113 11.9239C89.3493 15.4534 88.9669 19.337 89.7122 23.0838C90.4575 26.8307 92.2971 30.2724 94.9984 32.9737C97.6997 35.6752 101.141 37.5147 104.888 38.2601C108.635 39.0053 112.519 38.6229 116.048 37.1609C119.578 35.699 122.594 33.2233 124.717 30.0468C126.839 26.8703 127.972 23.1358 127.972 19.3156C127.966 14.1946 125.929 9.2851 122.308 5.66402C118.687 2.04293 113.778 0.00597923 108.657 5.42118e-08ZM108.657 31.1956C106.467 31.1967 104.321 30.5929 102.453 29.4508C100.585 28.3087 99.0695 26.673 98.0729 24.7238C97.0765 22.7746 96.6378 20.5879 96.8055 18.4053C96.9733 16.2225 97.7408 14.1286 99.0235 12.3546C100.306 10.5807 102.054 9.19559 104.074 8.35233C106.095 7.50906 108.309 7.2404 110.472 7.57599C112.635 7.91159 114.664 8.83838 116.333 10.2541C118.003 11.6698 119.249 13.5194 119.934 15.5986H108.657V23.0326H119.934C119.15 25.4052 117.638 27.4706 115.614 28.9357C113.59 30.401 111.156 31.1915 108.657 31.1956Z" fill="#454948" fill-opacity="0.5"/>
</svg>
