<svg width="279" height="50" viewBox="0 0 279 50" fill="none" xmlns="http://www.w3.org/2000/svg">
<path d="M102.408 33.8234V39H84.5219V12.2286H90.5484V33.8234H102.408ZM110.596 25.595C110.596 26.9084 110.75 28.0931 111.059 29.149C111.394 30.205 111.858 31.1192 112.45 31.8919C113.068 32.6387 113.815 33.2182 114.691 33.6303C115.566 34.0423 116.571 34.2484 117.704 34.2484C118.811 34.2484 119.803 34.0423 120.679 33.6303C121.58 33.2182 122.327 32.6387 122.919 31.8919C123.537 31.1192 124.001 30.205 124.31 29.149C124.645 28.0931 124.812 26.9084 124.812 25.595C124.812 24.2815 124.645 23.0968 124.31 22.0409C124.001 20.9592 123.537 20.045 122.919 19.2981C122.327 18.5255 121.58 17.9331 120.679 17.5211C119.803 17.109 118.811 16.903 117.704 16.903C116.571 16.903 115.566 17.1219 114.691 17.5597C113.815 17.9718 113.068 18.5641 112.45 19.3367C111.858 20.0836 111.394 20.9979 111.059 22.0795C110.75 23.1355 110.596 24.3073 110.596 25.595ZM131.032 25.595C131.032 27.8871 130.684 29.9088 129.989 31.6601C129.319 33.3856 128.392 34.8407 127.207 36.0254C126.023 37.1843 124.606 38.06 122.958 38.6523C121.335 39.2447 119.584 39.5408 117.704 39.5408C115.875 39.5408 114.15 39.2447 112.527 38.6523C110.905 38.06 109.488 37.1843 108.278 36.0254C107.068 34.8407 106.115 33.3856 105.419 31.6601C104.724 29.9088 104.376 27.8871 104.376 25.595C104.376 23.3029 104.737 21.294 105.458 19.5685C106.179 17.8172 107.145 16.3492 108.355 15.1646C109.591 13.9799 111.008 13.0913 112.605 12.499C114.227 11.9067 115.927 11.6105 117.704 11.6105C119.533 11.6105 121.258 11.9067 122.881 12.499C124.503 13.0913 125.92 13.9799 127.13 15.1646C128.34 16.3492 129.293 17.8172 129.989 19.5685C130.684 21.294 131.032 23.3029 131.032 25.595ZM154.019 39C152.293 35.9353 150.426 32.9091 148.417 29.9217C146.408 26.9342 144.271 24.1141 142.005 21.4614V39H136.055V12.2286H140.961C141.811 13.0785 142.751 14.1215 143.782 15.3577C144.812 16.5939 145.855 17.9202 146.911 19.3367C147.992 20.7274 149.061 22.1826 150.117 23.702C151.173 25.1958 152.165 26.638 153.092 28.0287V12.2286H159.079V39H154.019ZM178.312 16.8643C175.505 16.8643 173.471 17.6498 172.209 19.2208C170.972 20.7661 170.354 22.8908 170.354 25.595C170.354 26.9084 170.509 28.106 170.818 29.1877C171.127 30.2436 171.591 31.1579 172.209 31.9305C172.827 32.7031 173.599 33.3083 174.527 33.7462C175.454 34.1582 176.535 34.3643 177.772 34.3643C178.441 34.3643 179.008 34.3514 179.471 34.3256C179.961 34.2999 180.386 34.2484 180.746 34.1711V24.861H186.773V38.1115C186.052 38.3948 184.893 38.691 183.296 39C181.699 39.3348 179.729 39.5022 177.385 39.5022C175.376 39.5022 173.548 39.1932 171.9 38.5751C170.277 37.957 168.886 37.0556 167.727 35.8709C166.569 34.6862 165.667 33.2311 165.023 31.5055C164.405 29.78 164.096 27.8098 164.096 25.595C164.096 23.3544 164.444 21.3713 165.139 19.6458C165.835 17.9202 166.787 16.4651 167.998 15.2804C169.208 14.07 170.625 13.1557 172.247 12.5376C173.896 11.9195 175.647 11.6105 177.501 11.6105C178.763 11.6105 179.896 11.7006 180.901 11.8809C181.931 12.0354 182.806 12.2286 183.528 12.4604C184.274 12.6664 184.88 12.8853 185.343 13.1171C185.833 13.3489 186.18 13.5292 186.386 13.6579L184.648 18.4868C183.824 18.049 182.871 17.6756 181.789 17.3665C180.733 17.0317 179.574 16.8643 178.312 16.8643ZM219.547 33.8234V39H201.66V12.2286H207.687V33.8234H219.547ZM223.428 12.2286H229.455V39H223.428V12.2286ZM235.651 39V12.2286H253.576V17.2893H241.678V22.8908H252.263V27.9515H241.678V39H235.651ZM257.834 39V12.2286H275.913V17.2893H263.861V22.5431H274.561V27.4879H263.861V33.9393H276.802V39H257.834Z" fill="#454948" fill-opacity="0.5"/>
<path d="M35.8892 21.9336L17.8174 40.2834H28.1045L35.8892 32.4986L43.952 40.2834H53.961L35.8892 21.9336Z" fill="#454948" fill-opacity="0.5"/>
<path d="M35.8934 3.86279L0.305908 40.5624H10.5929L35.8934 14.4278L61.1939 40.5624H71.2029L35.8934 3.86279Z" fill="#454948" fill-opacity="0.5"/>
</svg>
