<svg width="20" height="20" viewBox="0 0 20 20" fill="none" xmlns="http://www.w3.org/2000/svg">
<path d="M0 2.24026C0 1.5909 0.225232 1.05518 0.675676 0.633117C1.12612 0.211032 1.71172 0 2.43243 0C3.14029 0 3.71299 0.207779 4.15058 0.623377C4.60102 1.05195 4.82625 1.61038 4.82625 2.2987C4.82625 2.92208 4.60747 3.44155 4.16988 3.85714C3.71944 4.28571 3.12741 4.5 2.39382 4.5H2.37452C1.66666 4.5 1.09396 4.28571 0.656371 3.85714C0.218784 3.42857 0 2.8896 0 2.24026ZM0.250965 19.2857V6.27273H4.53668V19.2857H0.250965ZM6.9112 19.2857H11.1969V12.0195C11.1969 11.5649 11.2484 11.2143 11.3514 10.9675C11.5315 10.526 11.805 10.1526 12.1718 9.8474C12.5386 9.5422 12.9987 9.38961 13.5521 9.38961C14.9936 9.38961 15.7143 10.3701 15.7143 12.3312V19.2857H20V11.8247C20 9.90259 19.5496 8.44481 18.6486 7.4513C17.7477 6.45779 16.5573 5.96104 15.0772 5.96104C13.417 5.96104 12.1236 6.68182 11.1969 8.12338V8.16234H11.1776L11.1969 8.12338V6.27273H6.9112C6.93693 6.68831 6.94981 7.98051 6.94981 10.1494C6.94981 12.3182 6.93693 15.3636 6.9112 19.2857Z" fill="white"/>
</svg>
