<svg width="288" height="28" viewBox="0 0 288 28" fill="none" xmlns="http://www.w3.org/2000/svg">
<path d="M8.79632 0.870419H0V26.3438H24.3067V19.5621H8.79632V0.870419ZM42.0616 0.290951C30.8335 0.290951 24.9287 5.6124 24.9287 13.4256C24.9287 22.2528 31.1271 26.7301 42.0616 26.7301C54.0991 26.7301 59.1617 21.5381 59.1617 13.4256C59.1617 5.18746 53.4501 0.287088 42.0616 0.287088V0.290951ZM42.0288 6.91041C42.7931 6.90681 43.5571 6.95132 44.3158 7.04368L34.4822 16.8773C34.0169 15.8247 33.7899 14.6822 33.8177 13.5318C33.8177 9.5354 35.8304 6.90654 42.0288 6.90654V6.91041ZM42.0616 20.215C41.3251 20.2183 40.5892 20.1769 39.8577 20.0914L49.7087 10.2404C50.1566 11.2755 50.371 12.3967 50.3364 13.5241C50.3364 17.4123 48.4821 20.2111 42.0616 20.2111V20.215ZM76.5902 16.7382H85.6434C85.5101 17.3665 85.2324 17.9551 84.8322 18.4573C82.9553 19.9863 80.5599 20.7303 78.147 20.5337C76.9325 20.6637 75.7044 20.531 74.5456 20.1447C73.3869 19.7586 72.3245 19.1277 71.431 18.295C70.5156 16.9524 70.0808 15.3399 70.1967 13.7192C70.0486 12.0208 70.5214 10.3264 71.5276 8.95013C72.7928 7.52078 74.9349 6.90461 78.0833 6.90461C80.0865 6.73875 82.0872 7.25322 83.7621 8.36487C84.29 8.78417 84.6846 9.34786 84.8978 9.98738H93.2943C93.2333 8.93366 92.9799 7.9 92.5468 6.93745C90.5361 2.84834 85.8617 0.414571 77.9133 0.414571C71.0003 0.414571 66.3607 2.52383 63.7975 5.70511C62.1047 8.00243 61.2357 10.8033 61.3309 13.6554C61.2214 16.5721 62.068 19.4445 63.7415 21.8356C66.2737 25.1192 70.7839 26.734 76.2039 26.734C79.8072 26.9853 83.386 25.9761 86.3272 23.8792L86.5551 26.3438H93.53V11.2545H76.5902V16.7382ZM113.327 0.285156C102.1 0.285156 96.1936 5.6066 96.1936 13.4198C96.1936 22.247 102.39 26.7243 113.327 26.7243C125.366 26.7243 130.429 21.5323 130.429 13.4198C130.429 5.18745 124.717 0.287088 113.327 0.287088V0.285156ZM113.296 6.90461C114.04 6.90241 114.784 6.94498 115.523 7.03209L105.728 16.8328C105.277 15.7919 105.058 14.6658 105.085 13.5318C105.077 9.5354 107.097 6.90461 113.296 6.90461ZM113.327 20.2092C112.571 20.2125 111.815 20.1684 111.065 20.0778L120.948 10.1921C121.413 11.241 121.636 12.3812 121.599 13.5279C121.603 17.4123 119.757 20.2111 113.327 20.2111V20.2092Z" fill="#454948" fill-opacity="0.5"/>
<path d="M133.419 26.8274H143.309V0.388244H133.419V26.8274Z" fill="#454948" fill-opacity="0.5"/>
<path d="M147.378 26.8274H157.069L157.075 19.6903C159.113 19.6903 166.74 19.7174 167.758 19.6903C171.799 19.6536 174.747 18.6067 176.518 16.5747C178.015 14.744 178.766 12.416 178.621 10.0557C178.745 8.68976 178.552 7.31366 178.056 6.03475C177.561 4.75587 176.777 3.60875 175.765 2.68294C173.414 0.967654 170.525 0.153366 167.625 0.388244H147.378V26.8274Z" fill="#454948" fill-opacity="0.5"/>
<path d="M180.426 20.6349C182.398 25.0639 187.574 27.2176 196.247 27.2176C209.542 27.2176 212.333 22.4351 212.331 18.4271C212.331 13.6484 209.297 11.1895 202.496 10.4517C201.414 10.3203 198.256 9.99582 196.291 9.8355C191.58 9.33136 190.11 9.02811 190.11 8.17243C190.11 7.53115 190.752 6.93623 195.405 6.93623C199.194 6.93623 200.415 7.79191 200.802 8.30957C201.033 8.56394 201.178 8.88398 201.219 9.22513L201.261 9.66166H211.591L211.524 9.11889C211.367 8.06424 211.031 7.04397 210.533 6.1018C208.429 2.05132 203.415 0 195.633 0C186.093 0 179.929 3.3358 179.929 8.49886C179.929 13.4147 183.551 15.9354 191.663 16.6694C192.625 16.7524 194.731 16.9514 196.396 17.1078L197.236 17.187C201.659 17.6583 202.287 17.9538 202.287 18.8173C202.287 19.3291 202.287 20.2814 196.863 20.2814C192.351 20.2814 190.991 19.4547 190.584 18.9621C190.329 18.6297 190.153 18.242 190.074 17.8302L190.006 17.4246H179.688L179.773 17.9809C179.884 18.8883 180.103 19.7794 180.426 20.6349Z" fill="#454948" fill-opacity="0.5"/>
<path d="M230.678 27.1848C230.679 27.1848 230.68 27.1848 230.681 27.1848H230.675C230.676 27.1848 230.677 27.1848 230.678 27.1848C220.597 27.184 215.035 23.1066 215.035 15.7016V0.388244H224.793V15.7016C224.793 18.2416 227.067 19.698 231.029 19.698C234.814 19.698 237.165 18.1779 237.165 15.7345V0.388244H246.823V16.5129C246.833 23.294 240.944 27.184 230.678 27.1848Z" fill="#454948" fill-opacity="0.5"/>
<path d="M230.681 27.1848C230.68 27.1848 230.679 27.1848 230.678 27.1848C230.677 27.1848 230.676 27.1848 230.675 27.1848H230.681Z" fill="#454948" fill-opacity="0.5"/>
<path d="M278.539 26.8274H287.749L287.76 0.388244H275.966L269.345 14.9657L263.029 0.388244H250.871V26.8274H260.114V14.9136L265.283 26.8274H273.316L278.539 14.8904V26.8274Z" fill="#454948" fill-opacity="0.5"/>
</svg>
