<svg width="40" height="40" viewBox="0 0 40 40" fill="none" xmlns="http://www.w3.org/2000/svg">
<path fill-rule="evenodd" clip-rule="evenodd" d="M29 29H25.3016V22.7007C25.3016 20.9736 24.6453 20.0085 23.2783 20.0085C21.7912 20.0085 21.0143 21.0129 21.0143 22.7007V29H17.45V17H21.0143V18.6164C21.0143 18.6164 22.0859 16.6334 24.6324 16.6334C27.1777 16.6334 29 18.1877 29 21.4023V29ZM13.1979 15.4287C11.9838 15.4287 11 14.4372 11 13.2143C11 11.9915 11.9838 11 13.1979 11C14.4119 11 15.3951 11.9915 15.3951 13.2143C15.3951 14.4372 14.4119 15.4287 13.1979 15.4287ZM11.3574 29H15.074V17H11.3574V29Z" fill="white"/>
</svg>
