<svg width="40" height="40" viewBox="0 0 40 40" fill="none" xmlns="http://www.w3.org/2000/svg">
<path d="M23.7499 12.4999C24.7436 12.5028 25.6958 12.8989 26.3984 13.6016C27.1011 14.3042 27.4972 15.2564 27.5001 16.2501V23.7499C27.4972 24.7436 27.1011 25.6958 26.3984 26.3984C25.6958 27.1011 24.7436 27.4972 23.7499 27.5001H16.2501C15.2564 27.4972 14.3042 27.1011 13.6016 26.3984C12.8989 25.6958 12.5028 24.7436 12.4999 23.7499V16.2501C12.5028 15.2564 12.8989 14.3042 13.6016 13.6016C14.3042 12.8989 15.2564 12.5028 16.2501 12.4999H23.7499ZM23.7499 11H16.2501C13.3625 11 11 13.3625 11 16.2501V23.7499C11 26.6375 13.3625 29 16.2501 29H23.7499C26.6375 29 29 26.6375 29 23.7499V16.2501C29 13.3625 26.6375 11 23.7499 11Z" fill="white"/>
<path d="M24.8751 16.2505C24.6526 16.2505 24.4351 16.1845 24.2501 16.0609C24.0651 15.9373 23.9209 15.7616 23.8358 15.556C23.7506 15.3504 23.7283 15.1242 23.7717 14.906C23.8151 14.6878 23.9223 14.4873 24.0796 14.33C24.237 14.1726 24.4374 14.0655 24.6556 14.0221C24.8739 13.9787 25.1001 14.001 25.3056 14.0861C25.5112 14.1713 25.6869 14.3155 25.8105 14.5005C25.9341 14.6855 26.0001 14.903 26.0001 15.1255C26.0004 15.2733 25.9716 15.4197 25.9151 15.5564C25.8587 15.693 25.7759 15.8172 25.6713 15.9217C25.5668 16.0262 25.4427 16.1091 25.306 16.1655C25.1694 16.2219 25.0229 16.2508 24.8751 16.2505ZM20.0003 17.0002C20.5936 17.0002 21.1737 17.1762 21.667 17.5058C22.1604 17.8355 22.5449 18.304 22.772 18.8522C22.9991 19.4004 23.0585 20.0037 22.9427 20.5856C22.827 21.1676 22.5412 21.7022 22.1217 22.1218C21.7021 22.5413 21.1675 22.8271 20.5856 22.9428C20.0036 23.0586 19.4004 22.9992 18.8522 22.7721C18.304 22.545 17.8354 22.1605 17.5057 21.6671C17.1761 21.1738 17.0001 20.5937 17.0001 20.0003C17.001 19.2049 17.3173 18.4423 17.8798 17.8799C18.4422 17.3174 19.2048 17.0011 20.0003 17.0002ZM20.0003 15.5003C19.1102 15.5003 18.2402 15.7643 17.5002 16.2587C16.7602 16.7532 16.1834 17.456 15.8428 18.2783C15.5022 19.1005 15.4131 20.0053 15.5867 20.8782C15.7604 21.7512 16.1889 22.553 16.8183 23.1823C17.4476 23.8117 18.2494 24.2402 19.1224 24.4139C19.9953 24.5875 20.9001 24.4984 21.7223 24.1578C22.5446 23.8172 23.2474 23.2404 23.7419 22.5004C24.2363 21.7604 24.5003 20.8904 24.5003 20.0003C24.5003 18.8069 24.0262 17.6623 23.1822 16.8184C22.3383 15.9744 21.1937 15.5003 20.0003 15.5003Z" fill="white"/>
</svg>
